<svg width="888" height="931" viewBox="0 0 888 931" fill="none" xmlns="http://www.w3.org/2000/svg">
<path d="M858 0H30C13.4315 0 0 13.4315 0 30V901C0 917.569 13.4315 931 30 931H858C874.569 931 888 917.569 888 901V30C888 13.4315 874.569 0 858 0Z" fill="white"/>
<mask id="mask0" mask-type="alpha" maskUnits="userSpaceOnUse" x="0" y="0" width="888" height="931">
<path d="M858 0H30C13.4315 0 0 13.4315 0 30V901C0 917.569 13.4315 931 30 931H858C874.569 931 888 917.569 888 901V30C888 13.4315 874.569 0 858 0Z" fill="white"/>
</mask>
<g mask="url(#mask0)">
<path d="M444 215C577.653 215 686 106.653 686 -27C686 -160.653 577.653 -269 444 -269C310.347 -269 202 -160.653 202 -27C202 106.653 310.347 215 444 215Z" fill="url(#paint0_radial)"/>
<path d="M583.354 55H304C295.716 55 289 61.7157 289 70V254.94C289 263.224 295.716 269.94 304 269.94H583.354C591.638 269.94 598.354 263.224 598.354 254.94V70C598.354 61.7157 591.638 55 583.354 55Z" fill="#150B00"/>
<path d="M409.019 214.698H402.52L401.323 218.012H399.271L404.658 203.196H406.903L412.269 218.012H410.216L409.019 214.698ZM408.463 213.116L405.77 205.591L403.076 213.116H408.463Z" fill="white"/>
<path d="M428.705 206.082C429.617 206.082 430.43 206.275 431.142 206.66C431.855 207.03 432.418 207.593 432.831 208.349C433.244 209.104 433.451 210.023 433.451 211.106V218.012H431.527V211.384C431.527 210.216 431.235 209.325 430.65 208.712C430.08 208.085 429.304 207.771 428.32 207.771C427.308 207.771 426.503 208.099 425.904 208.755C425.306 209.396 425.007 210.33 425.007 211.555V218.012H423.082V211.384C423.082 210.216 422.79 209.325 422.206 208.712C421.636 208.085 420.859 207.771 419.876 207.771C418.864 207.771 418.059 208.099 417.46 208.755C416.861 209.396 416.562 210.33 416.562 211.555V218.012H414.617V206.296H416.562V207.985C416.947 207.372 417.46 206.902 418.101 206.574C418.757 206.246 419.477 206.082 420.261 206.082C421.244 206.082 422.113 206.303 422.869 206.745C423.624 207.187 424.187 207.835 424.558 208.691C424.885 207.864 425.427 207.223 426.182 206.766C426.938 206.31 427.779 206.082 428.705 206.082Z" fill="white"/>
<path d="M435.915 212.111C435.915 210.914 436.158 209.866 436.642 208.968C437.127 208.056 437.79 207.351 438.631 206.852C439.486 206.353 440.433 206.104 441.474 206.104C442.5 206.104 443.391 206.325 444.146 206.766C444.902 207.208 445.465 207.764 445.835 208.434V206.296H447.802V218.012H445.835V215.831C445.45 216.515 444.873 217.085 444.103 217.541C443.348 217.983 442.464 218.204 441.452 218.204C440.412 218.204 439.471 217.947 438.631 217.434C437.79 216.921 437.127 216.202 436.642 215.275C436.158 214.349 435.915 213.294 435.915 212.111ZM445.835 212.133C445.835 211.249 445.657 210.479 445.301 209.824C444.944 209.168 444.46 208.669 443.847 208.327C443.248 207.971 442.586 207.793 441.859 207.793C441.132 207.793 440.469 207.964 439.87 208.306C439.272 208.648 438.794 209.147 438.438 209.802C438.082 210.458 437.904 211.227 437.904 212.111C437.904 213.009 438.082 213.793 438.438 214.463C438.794 215.118 439.272 215.624 439.87 215.981C440.469 216.323 441.132 216.494 441.859 216.494C442.586 216.494 443.248 216.323 443.847 215.981C444.46 215.624 444.944 215.118 445.301 214.463C445.657 213.793 445.835 213.016 445.835 212.133Z" fill="white"/>
<path d="M452.543 216.408H458.294V218.012H450.32V216.408L456.007 207.878H450.363V206.296H458.251V207.878L452.543 216.408Z" fill="white"/>
<path d="M465.928 218.204C464.83 218.204 463.833 217.955 462.935 217.456C462.051 216.957 461.353 216.251 460.84 215.339C460.341 214.413 460.092 213.344 460.092 212.133C460.092 210.935 460.348 209.881 460.861 208.968C461.388 208.042 462.101 207.337 462.999 206.852C463.897 206.353 464.902 206.104 466.013 206.104C467.125 206.104 468.13 206.353 469.028 206.852C469.926 207.337 470.631 208.035 471.144 208.947C471.672 209.859 471.935 210.921 471.935 212.133C471.935 213.344 471.664 214.413 471.123 215.339C470.595 216.251 469.876 216.957 468.964 217.456C468.051 217.955 467.04 218.204 465.928 218.204ZM465.928 216.494C466.626 216.494 467.282 216.33 467.895 216.002C468.508 215.674 468.999 215.183 469.37 214.527C469.755 213.871 469.947 213.073 469.947 212.133C469.947 211.192 469.762 210.394 469.391 209.738C469.021 209.083 468.536 208.598 467.937 208.284C467.339 207.957 466.69 207.793 465.992 207.793C465.279 207.793 464.624 207.957 464.025 208.284C463.441 208.598 462.97 209.083 462.614 209.738C462.258 210.394 462.08 211.192 462.08 212.133C462.08 213.087 462.251 213.893 462.593 214.548C462.949 215.204 463.419 215.696 464.004 216.023C464.588 216.337 465.229 216.494 465.928 216.494Z" fill="white"/>
<path d="M480.201 206.082C481.626 206.082 482.781 206.517 483.664 207.386C484.548 208.242 484.99 209.482 484.99 211.106V218.012H483.066V211.384C483.066 210.216 482.774 209.325 482.189 208.712C481.605 208.085 480.807 207.771 479.795 207.771C478.769 207.771 477.949 208.092 477.336 208.733C476.738 209.375 476.439 210.308 476.439 211.534V218.012H474.493V206.296H476.439V207.964C476.823 207.365 477.344 206.902 477.999 206.574C478.669 206.246 479.403 206.082 480.201 206.082Z" fill="white"/>
<path d="M471.839 178.154C471.175 177.33 465.455 176.622 461.965 179.071C461.433 179.447 461.52 179.967 462.12 179.897C464.082 179.666 468.459 179.141 469.235 180.136C470.013 181.133 468.367 185.251 467.628 187.087C467.402 187.644 467.884 187.868 468.387 187.45C471.667 184.719 472.508 178.984 471.839 178.154Z" fill="#FF8000"/>
<path d="M465.816 181.606C458.982 184.508 451.549 185.906 444.784 185.906C434.769 185.906 425.063 183.163 417.221 178.596C416.537 178.194 416.028 178.897 416.597 179.412C423.867 185.98 433.474 189.93 444.145 189.93C451.76 189.93 460.596 187.535 466.699 183.038C467.707 182.292 466.849 181.173 465.816 181.606Z" fill="#FF8000"/>
<path d="M468.239 166.057C466.188 163.209 464.017 160.909 464.017 155.666V138.196C464.017 130.808 464.54 124.012 459.092 118.915C454.784 114.788 447.662 113.338 442.196 113.338C431.539 113.338 419.646 117.311 417.132 130.49C416.875 131.898 417.904 132.636 418.797 132.842L429.694 134.009C430.69 133.966 431.436 132.97 431.633 131.958C432.552 127.419 436.379 125.23 440.652 125.23C442.951 125.23 445.56 126.08 446.933 128.148C448.495 130.448 448.28 133.605 448.28 136.265V137.707C441.793 138.462 433.298 138.934 427.206 141.611C420.204 144.623 415.253 150.818 415.253 159.914C415.253 171.558 422.598 177.384 432.028 177.384C440.008 177.384 444.367 175.505 450.511 169.232C452.545 172.184 453.214 173.626 456.938 176.715C457.779 177.161 458.843 177.109 459.589 176.457L459.624 176.474C461.855 174.501 465.913 170.94 468.213 169.035C469.123 168.263 468.968 167.061 468.239 166.057ZM448.28 149.111C448.28 153.478 448.4 157.116 446.186 160.995C444.41 164.153 441.587 166.083 438.429 166.083C434.13 166.083 431.633 162.814 431.633 157.966C431.633 148.416 440.188 146.682 448.28 146.682V149.111Z" fill="#FFFBF7"/>
<path d="M558.849 70.2365C558.6 69.8922 558.194 69.7388 557.823 69.7388C557.299 69.7388 556.812 70.007 556.596 70.5822C556.348 70.0077 556 69.7388 555.445 69.7388C554.899 69.7388 554.493 70.007 554.277 70.5822H554.262V69.9873C554.256 69.9051 554.187 69.8386 554.101 69.8352H553.274C553.179 69.8352 553.103 69.9079 553.103 69.9989V74.5515C553.109 74.633 553.177 74.6961 553.261 74.7015H554.149C554.243 74.7015 554.319 74.6275 554.319 74.5372V72.123C554.319 71.5968 554.294 70.8681 554.931 70.8681C555.561 70.8681 555.479 71.6151 555.479 72.123V74.5365C555.479 74.6241 555.549 74.6941 555.639 74.7009H556.524C556.62 74.7009 556.696 74.6268 556.696 74.5365V72.123C556.696 71.8643 556.687 71.4799 556.778 71.2504C556.869 71.0209 557.094 70.8776 557.308 70.8776C557.565 70.8776 557.764 70.9638 557.83 71.2694C557.872 71.4521 557.855 71.9309 557.855 72.123V74.5365C557.855 74.6241 557.926 74.6941 558.014 74.7009H558.901C558.995 74.7009 559.071 74.6268 559.071 74.5365L559.072 71.664C559.072 71.1757 559.129 70.6195 558.849 70.2365Z" fill="#FFFBF7"/>
<path d="M570.538 69.7407C569.255 69.7407 568.543 70.8429 568.543 72.2595C568.543 73.6679 569.246 74.7979 570.538 74.7979C571.779 74.7979 572.567 73.6964 572.567 72.3077C572.57 70.8707 571.856 69.7407 570.538 69.7407ZM570.538 73.8594C569.843 73.8594 569.85 72.6717 569.85 72.1155C569.85 71.5607 569.892 70.6697 570.545 70.6697C570.826 70.6697 571.026 70.7933 571.125 71.1104C571.242 71.4744 571.258 71.9335 571.258 72.3179C571.261 72.9019 571.227 73.8594 570.538 73.8594Z" fill="#FFFBF7"/>
<path d="M564.037 73.8696C563.876 73.6441 563.705 73.4621 563.705 73.0472V71.6646C563.705 71.0799 563.745 70.5421 563.314 70.1387C562.973 69.812 562.409 69.6973 561.978 69.6973C561.134 69.6973 560.191 70.0117 559.994 71.0548C559.973 71.1661 560.053 71.2245 560.126 71.2408L560.986 71.3332C561.066 71.3298 561.125 71.251 561.14 71.1709C561.213 70.8116 561.515 70.6385 561.853 70.6385C562.036 70.6385 562.243 70.7057 562.35 70.8694C562.476 71.0514 562.459 71.3013 562.459 71.5118L562.458 71.6245C561.944 71.6836 561.271 71.7209 560.79 71.9328C560.234 72.1725 559.845 72.6628 559.845 73.3827C559.845 74.3042 560.425 74.7653 561.171 74.7653C561.801 74.7653 562.148 74.6166 562.634 74.1202C562.794 74.3538 562.848 74.4679 563.142 74.7123C563.21 74.7476 563.294 74.7436 563.353 74.692L563.354 74.6933C563.531 74.5371 563.853 74.2553 564.033 74.1045C564.105 74.0455 564.094 73.949 564.037 73.8696ZM562.458 72.5284C562.458 72.874 562.467 73.162 562.291 73.4689C562.152 73.7188 561.927 73.8716 561.68 73.8716C561.338 73.8716 561.138 73.6129 561.138 73.2292C561.138 72.4734 561.816 72.3362 562.458 72.3362V72.5284Z" fill="#FFFBF7"/>
<path d="M576.645 70.275C576.396 69.8824 576.005 69.7385 575.608 69.7378C574.996 69.7378 574.646 70.0346 574.399 70.6573H574.385V69.9612C574.368 69.8899 574.303 69.8369 574.226 69.8335H573.404C573.313 69.8335 573.241 69.8987 573.232 69.9823L573.234 74.5362C573.234 74.6238 573.304 74.6951 573.394 74.7019H574.276C574.372 74.7019 574.449 74.6279 574.45 74.5362V72.0861C574.45 71.7785 574.466 71.5021 574.592 71.2236C574.69 71.0043 574.888 70.8596 575.105 70.8596C575.717 70.8596 575.658 71.5883 575.658 72.0861V74.5586C575.665 74.6354 575.735 74.6951 575.814 74.7026H576.705C576.794 74.7026 576.865 74.6381 576.877 74.5586V71.6929C576.877 71.2522 576.877 70.6403 576.645 70.275Z" fill="#FFFBF7"/>
<path d="M567.966 73.4688C567.457 73.1823 566.865 73.098 566.303 73.1123L567.816 70.9555C567.955 70.7613 568.035 70.6397 568.035 70.546V69.9885C568.035 69.8907 567.961 69.8235 567.866 69.8235H564.951C564.86 69.8235 564.787 69.8894 564.787 69.9885V70.6397C564.787 70.7369 564.86 70.8034 564.955 70.8034H566.479L564.728 73.3133C564.622 73.4743 564.621 73.6549 564.621 73.7608V74.4216C564.621 74.5167 564.729 74.626 564.83 74.5703C565.822 74.044 567.011 74.0963 567.908 74.5662C568.019 74.6233 568.122 74.5119 568.122 74.4168V73.7214C568.112 73.6284 568.082 73.5327 567.966 73.4688Z" fill="#FFFBF7"/>
<path d="M567.4 75.1181C567.218 74.8934 565.656 74.6998 564.704 75.3687C564.558 75.4713 564.582 75.6132 564.746 75.5942C565.281 75.531 566.477 75.3877 566.689 75.6594C566.901 75.9317 566.452 77.0563 566.25 77.5574C566.188 77.7095 566.32 77.7707 566.457 77.6566C567.353 76.9109 567.582 75.345 567.4 75.1181Z" fill="#FF8000"/>
<path d="M565.762 76.0608C563.896 76.8533 561.866 77.235 560.019 77.235C557.284 77.235 554.634 76.486 552.492 75.2392C552.306 75.1291 552.166 75.3213 552.322 75.4619C554.307 77.2554 556.93 78.3338 559.844 78.3338C561.924 78.3338 564.336 77.6798 566.003 76.452C566.278 76.2483 566.044 75.9427 565.762 76.0608Z" fill="#FF8000"/>
<path d="M552.408 73.8698C552.246 73.6444 552.074 73.4624 552.074 73.0474V71.6648C552.074 71.0801 552.116 70.5423 551.684 70.1389C551.343 69.8123 550.78 69.6975 550.347 69.6975C549.504 69.6975 548.563 70.0119 548.364 71.055C548.343 71.1664 548.425 71.2248 548.495 71.2411L549.358 71.3334C549.437 71.33 549.496 71.2513 549.511 71.1711C549.584 70.8119 549.887 70.6387 550.225 70.6387C550.407 70.6387 550.613 70.706 550.722 70.8696C550.846 71.0516 550.829 71.3015 550.829 71.512V71.6261C550.315 71.6859 549.643 71.7232 549.161 71.9351C548.607 72.1735 548.215 72.6638 548.215 73.3836C548.215 74.3051 548.796 74.7662 549.542 74.7662C550.174 74.7662 550.519 74.6175 551.005 74.1211C551.166 74.3547 551.219 74.4688 551.514 74.7132C551.58 74.7486 551.665 74.7445 551.724 74.6929L551.726 74.6942C551.903 74.538 552.224 74.2562 552.406 74.1055C552.478 74.0443 552.466 73.9493 552.408 73.8698ZM550.829 72.5286C550.829 72.8743 550.838 73.1622 550.663 73.4692C550.522 73.7191 550.299 73.8719 550.049 73.8719C549.709 73.8719 549.511 73.6131 549.511 73.2294C549.511 72.4736 550.188 72.3364 550.829 72.3364V72.5286Z" fill="#FFFBF7"/>
</g>
<defs>
<radialGradient id="paint0_radial" cx="0" cy="0" r="1" gradientUnits="userSpaceOnUse" gradientTransform="translate(428.807 -269) rotate(90) scale(484)">
<stop stop-color="#FF8000"/>
<stop offset="1" stop-color="#E34141"/>
</radialGradient>
</defs>
</svg>
