<svg width="1236" height="1296" viewBox="0 0 1236 1296" fill="none" xmlns="http://www.w3.org/2000/svg">
<g clip-path="url(#clip0)">
<path d="M803.122 691.486L809.797 698.162L816.473 691.486" stroke="#979797" stroke-width="2.78378" stroke-linecap="round" stroke-linejoin="round"/>
<path d="M803.122 798.662L809.797 805.337L816.473 798.662" stroke="#979797" stroke-width="2.78378" stroke-linecap="round" stroke-linejoin="round"/>
<path d="M585.19 1166.87C585.19 1167.67 585.009 1168.39 584.645 1169.06C584.282 1169.71 583.723 1170.23 582.969 1170.63C582.216 1171.04 581.281 1171.24 580.163 1171.24H578.097V1176.15H574.765V1162.47H580.163C581.254 1162.47 582.177 1162.66 582.93 1163.03C583.684 1163.41 584.25 1163.93 584.625 1164.59C585.003 1165.26 585.19 1166.02 585.19 1166.87ZM579.91 1168.59C580.547 1168.59 581.02 1168.44 581.332 1168.14C581.644 1167.84 581.8 1167.42 581.8 1166.87C581.8 1166.33 581.644 1165.91 581.332 1165.61C581.02 1165.31 580.547 1165.16 579.91 1165.16H578.097V1168.59H579.91ZM593.902 1176.15L591.057 1170.98H590.258V1176.15H586.926V1162.47H592.519C593.596 1162.47 594.512 1162.66 595.266 1163.03C596.032 1163.41 596.604 1163.93 596.981 1164.59C597.357 1165.24 597.546 1165.97 597.546 1166.78C597.546 1167.68 597.286 1168.5 596.767 1169.21C596.26 1169.93 595.506 1170.43 594.506 1170.73L597.663 1176.15H593.902ZM590.258 1168.63H592.324C592.934 1168.63 593.389 1168.48 593.688 1168.18C594 1167.88 594.156 1167.46 594.156 1166.91C594.156 1166.39 594 1165.98 593.688 1165.68C593.389 1165.39 592.934 1165.24 592.324 1165.24H590.258V1168.63ZM606.106 1176.29C604.82 1176.29 603.639 1175.99 602.56 1175.39C601.495 1174.79 600.645 1173.96 600.007 1172.89C599.384 1171.82 599.072 1170.61 599.072 1169.27C599.072 1167.93 599.384 1166.73 600.007 1165.67C600.645 1164.6 601.495 1163.77 602.56 1163.17C603.639 1162.57 604.82 1162.27 606.106 1162.27C607.392 1162.27 608.569 1162.57 609.633 1163.17C610.712 1163.77 611.557 1164.6 612.167 1165.67C612.79 1166.73 613.102 1167.93 613.102 1169.27C613.102 1170.61 612.79 1171.82 612.167 1172.89C611.543 1173.96 610.7 1174.79 609.633 1175.39C608.569 1175.99 607.392 1176.29 606.106 1176.29ZM606.106 1173.25C607.198 1173.25 608.069 1172.88 608.718 1172.15C609.38 1171.43 609.711 1170.47 609.711 1169.27C609.711 1168.06 609.38 1167.1 608.718 1166.39C608.069 1165.66 607.198 1165.29 606.106 1165.29C605.003 1165.29 604.119 1165.65 603.456 1166.37C602.808 1167.08 602.482 1168.05 602.482 1169.27C602.482 1170.48 602.808 1171.45 603.456 1172.17C604.119 1172.89 605.003 1173.25 606.106 1173.25ZM614.391 1169.29C614.391 1167.94 614.683 1166.74 615.268 1165.68C615.852 1164.62 616.665 1163.79 617.704 1163.21C618.756 1162.61 619.945 1162.31 621.27 1162.31C622.894 1162.31 624.284 1162.74 625.44 1163.6C626.596 1164.46 627.369 1165.63 627.759 1167.11H624.095C623.822 1166.54 623.433 1166.1 622.926 1165.8C622.433 1165.5 621.868 1165.35 621.231 1165.35C620.205 1165.35 619.374 1165.71 618.736 1166.43C618.1 1167.14 617.782 1168.09 617.782 1169.29C617.782 1170.49 618.1 1171.44 618.736 1172.15C619.374 1172.87 620.205 1173.23 621.231 1173.23C621.868 1173.23 622.433 1173.08 622.926 1172.78C623.433 1172.48 623.822 1172.04 624.095 1171.47H627.759C627.369 1172.95 626.596 1174.12 625.44 1174.98C624.284 1175.82 622.894 1176.25 621.27 1176.25C619.945 1176.25 618.756 1175.95 617.704 1175.37C616.665 1174.77 615.852 1173.95 615.268 1172.89C614.683 1171.84 614.391 1170.64 614.391 1169.29ZM633.131 1165.14V1167.91H637.594V1170.48H633.131V1173.48H638.178V1176.15H629.799V1162.47H638.178V1165.14H633.131ZM643.675 1165.14V1167.91H648.137V1170.48H643.675V1173.48H648.722V1176.15H640.343V1162.47H648.722V1165.14H643.675ZM656.01 1162.47C657.452 1162.47 658.712 1162.75 659.79 1163.33C660.868 1163.9 661.7 1164.7 662.285 1165.74C662.882 1166.77 663.181 1167.96 663.181 1169.31C663.181 1170.65 662.882 1171.84 662.285 1172.88C661.7 1173.91 660.862 1174.72 659.771 1175.29C658.692 1175.86 657.438 1176.15 656.01 1176.15H650.885V1162.47H656.01ZM655.796 1173.26C657.055 1173.26 658.036 1172.92 658.738 1172.23C659.44 1171.54 659.79 1170.57 659.79 1169.31C659.79 1168.05 659.44 1167.07 658.738 1166.37C658.036 1165.67 657.055 1165.31 655.796 1165.31H654.217V1173.26H655.796Z" fill="white"/>
<path d="M618 299.257C804.03 299.257 954.838 148.449 954.838 -37.5811C954.838 -223.612 804.03 -374.419 618 -374.419C431.97 -374.419 281.162 -223.612 281.162 -37.5811C281.162 148.449 431.97 299.257 618 299.257Z" fill="url(#paint0_radial)"/>
<path d="M811.966 76.554H423.135C411.604 76.554 402.257 85.9015 402.257 97.4323V354.849C402.257 366.38 411.604 375.727 423.135 375.727H811.966C823.497 375.727 832.844 366.38 832.844 354.849V97.4323C832.844 85.9015 823.497 76.554 811.966 76.554Z" fill="#150B00"/>
<path d="M569.31 298.836H560.264L558.598 303.449H555.742L563.24 282.827H566.365L573.834 303.449H570.976L569.31 298.836ZM568.536 296.634L564.788 286.16L561.038 296.634H568.536Z" fill="white"/>
<path d="M596.711 286.844C597.98 286.844 599.112 287.113 600.103 287.649C601.095 288.164 601.879 288.947 602.454 289.999C603.029 291.05 603.317 292.329 603.317 293.837V303.449H600.639V294.224C600.639 292.598 600.232 291.358 599.418 290.505C598.625 289.632 597.545 289.195 596.175 289.195C594.767 289.195 593.646 289.651 592.812 290.565C591.98 291.457 591.564 292.757 591.564 294.462V303.449H588.884V294.224C588.884 292.598 588.478 291.358 587.665 290.505C586.872 289.632 585.79 289.195 584.422 289.195C583.013 289.195 581.893 289.651 581.059 290.565C580.225 291.457 579.809 292.757 579.809 294.462V303.449H577.102V287.142H579.809V289.493C580.345 288.64 581.059 287.985 581.951 287.529C582.864 287.072 583.867 286.844 584.958 286.844C586.326 286.844 587.536 287.152 588.588 287.767C589.639 288.382 590.422 289.284 590.939 290.475C591.394 289.324 592.148 288.432 593.199 287.796C594.252 287.161 595.422 286.844 596.711 286.844Z" fill="white"/>
<path d="M606.747 295.236C606.747 293.569 607.085 292.111 607.758 290.861C608.434 289.591 609.356 288.61 610.527 287.916C611.717 287.221 613.035 286.875 614.484 286.875C615.912 286.875 617.152 287.182 618.203 287.796C619.255 288.411 620.039 289.185 620.554 290.118V287.142H623.292V303.449H620.554V300.413C620.018 301.365 619.215 302.159 618.143 302.794C617.092 303.409 615.862 303.716 614.453 303.716C613.006 303.716 611.696 303.359 610.527 302.645C609.356 301.931 608.434 300.93 607.758 299.64C607.085 298.351 606.747 296.882 606.747 295.236ZM620.554 295.266C620.554 294.036 620.306 292.964 619.811 292.052C619.314 291.139 618.64 290.445 617.787 289.969C616.953 289.473 616.032 289.225 615.02 289.225C614.008 289.225 613.085 289.463 612.251 289.939C611.419 290.415 610.754 291.11 610.258 292.022C609.763 292.935 609.515 294.005 609.515 295.236C609.515 296.486 609.763 297.577 610.258 298.509C610.754 299.421 611.419 300.125 612.251 300.622C613.085 301.098 614.008 301.336 615.02 301.336C616.032 301.336 616.953 301.098 617.787 300.622C618.64 300.125 619.314 299.421 619.811 298.509C620.306 297.577 620.554 296.495 620.554 295.266Z" fill="white"/>
<path d="M629.891 301.216H637.896V303.449H626.797V301.216L634.713 289.344H626.857V287.142H637.836V289.344L629.891 301.216Z" fill="white"/>
<path d="M648.522 303.716C646.993 303.716 645.605 303.37 644.356 302.675C643.125 301.981 642.154 300.998 641.44 299.729C640.745 298.44 640.398 296.952 640.398 295.266C640.398 293.599 640.755 292.132 641.469 290.861C642.202 289.572 643.195 288.591 644.445 287.916C645.695 287.221 647.093 286.875 648.64 286.875C650.188 286.875 651.586 287.221 652.836 287.916C654.086 288.591 655.068 289.562 655.782 290.832C656.517 292.101 656.883 293.579 656.883 295.266C656.883 296.952 656.505 298.44 655.752 299.729C655.017 300.998 654.017 301.981 652.747 302.675C651.476 303.37 650.069 303.716 648.522 303.716ZM648.522 301.336C649.493 301.336 650.406 301.108 651.259 300.651C652.113 300.195 652.796 299.511 653.312 298.598C653.848 297.685 654.116 296.575 654.116 295.266C654.116 293.956 653.858 292.846 653.342 291.933C652.827 291.021 652.152 290.346 651.318 289.909C650.485 289.454 649.582 289.225 648.611 289.225C647.618 289.225 646.706 289.454 645.873 289.909C645.06 290.346 644.404 291.021 643.909 291.933C643.413 292.846 643.165 293.956 643.165 295.266C643.165 296.594 643.403 297.716 643.88 298.628C644.375 299.541 645.029 300.226 645.844 300.681C646.656 301.118 647.549 301.336 648.522 301.336Z" fill="white"/>
<path d="M668.388 286.844C670.371 286.844 671.979 287.449 673.208 288.659C674.439 289.85 675.054 291.576 675.054 293.837V303.449H672.376V294.224C672.376 292.598 671.969 291.358 671.155 290.505C670.342 289.632 669.232 289.195 667.823 289.195C666.395 289.195 665.253 289.642 664.4 290.534C663.568 291.427 663.152 292.726 663.152 294.433V303.449H660.443V287.142H663.152V289.464C663.686 288.63 664.411 287.985 665.323 287.529C666.256 287.072 667.277 286.844 668.388 286.844Z" fill="white"/>
<path d="M656.749 247.971C655.825 246.824 647.863 245.838 643.006 249.247C642.265 249.771 642.386 250.494 643.221 250.397C645.952 250.075 652.045 249.345 653.125 250.73C654.208 252.117 651.916 257.849 650.888 260.405C650.573 261.18 651.244 261.492 651.944 260.91C656.51 257.109 657.68 249.126 656.749 247.971Z" fill="#FF8000"/>
<path d="M648.366 252.776C638.853 256.816 628.507 258.761 619.091 258.761C605.151 258.761 591.642 254.943 580.727 248.587C579.774 248.027 579.066 249.006 579.858 249.722C589.977 258.864 603.349 264.362 618.202 264.362C628.801 264.362 641.1 261.029 649.595 254.769C650.998 253.731 649.803 252.174 648.366 252.776Z" fill="#FF8000"/>
<path d="M651.738 231.133C648.883 227.169 645.862 223.968 645.862 216.67V192.354C645.862 182.071 646.59 172.611 639.006 165.517C633.01 159.772 623.097 157.754 615.489 157.754C600.656 157.754 584.102 163.284 580.603 181.628C580.245 183.588 581.677 184.615 582.92 184.902L598.088 186.526C599.474 186.466 600.512 185.08 600.786 183.671C602.066 177.353 607.392 174.307 613.34 174.307C616.54 174.307 620.171 175.49 622.082 178.368C624.257 181.569 623.957 185.964 623.957 189.666V191.673C614.928 192.724 603.104 193.381 594.625 197.107C584.879 201.299 577.987 209.922 577.987 222.583C577.987 238.79 588.211 246.899 601.336 246.899C612.444 246.899 618.511 244.284 627.063 235.553C629.894 239.661 630.825 241.669 636.008 245.968C637.179 246.589 638.66 246.516 639.698 245.609L639.747 245.633C642.852 242.886 648.501 237.93 651.702 235.278C652.969 234.204 652.753 232.531 651.738 231.133ZM623.957 207.546C623.957 213.625 624.124 218.688 621.043 224.088C618.571 228.483 614.641 231.169 610.246 231.169C604.262 231.169 600.786 226.619 600.786 219.872C600.786 206.579 612.694 204.165 623.957 204.165V207.546Z" fill="#FFFBF7"/>
<path d="M777.857 97.7616C777.511 97.2824 776.946 97.0688 776.429 97.0688C775.7 97.0688 775.022 97.4422 774.721 98.2428C774.376 97.4431 773.892 97.0688 773.119 97.0688C772.359 97.0688 771.794 97.4422 771.494 98.2428H771.473V97.4147C771.464 97.3003 771.368 97.2078 771.249 97.203H770.098C769.965 97.203 769.86 97.3042 769.86 97.4309V103.768C769.868 103.881 769.963 103.969 770.079 103.976H771.315C771.446 103.976 771.552 103.873 771.552 103.748V100.387C771.552 99.655 771.517 98.6407 772.404 98.6407C773.281 98.6407 773.167 99.6805 773.167 100.387V103.747C773.167 103.869 773.264 103.966 773.389 103.976H774.621C774.755 103.976 774.861 103.872 774.861 103.747V100.387C774.861 100.027 774.848 99.4923 774.975 99.1728C775.101 98.8534 775.415 98.6539 775.712 98.6539C776.07 98.6539 776.347 98.7739 776.439 99.1993C776.498 99.4536 776.474 100.12 776.474 100.387V103.747C776.474 103.869 776.573 103.966 776.695 103.976H777.93C778.061 103.976 778.166 103.872 778.166 103.747L778.168 99.7485C778.168 99.0689 778.247 98.2947 777.857 97.7616Z" fill="#FFFBF7"/>
<path d="M794.127 97.0715C792.341 97.0715 791.35 98.6057 791.35 100.577C791.35 102.538 792.329 104.111 794.127 104.111C795.854 104.111 796.951 102.577 796.951 100.645C796.955 98.6444 795.962 97.0715 794.127 97.0715ZM794.127 102.804C793.16 102.804 793.169 101.151 793.169 100.377C793.169 99.6048 793.228 98.3646 794.137 98.3646C794.528 98.3646 794.806 98.5366 794.944 98.978C795.107 99.4847 795.129 100.124 795.129 100.659C795.133 101.472 795.086 102.804 794.127 102.804Z" fill="#FFFBF7"/>
<path d="M785.078 102.818C784.854 102.504 784.616 102.251 784.616 101.674V99.7492C784.616 98.9354 784.672 98.1869 784.072 97.6254C783.598 97.1706 782.813 97.011 782.213 97.011C781.038 97.011 779.725 97.4486 779.451 98.9005C779.422 99.0554 779.533 99.1367 779.635 99.1594L780.832 99.288C780.943 99.2832 781.025 99.1736 781.046 99.0621C781.148 98.562 781.568 98.321 782.039 98.321C782.293 98.321 782.581 98.4146 782.73 98.6424C782.906 98.8957 782.882 99.2436 782.882 99.5366L782.881 99.6934C782.165 99.7757 781.229 99.8276 780.559 100.123C779.785 100.456 779.244 101.139 779.244 102.141C779.244 103.423 780.051 104.065 781.089 104.065C781.966 104.065 782.449 103.858 783.126 103.167C783.348 103.492 783.424 103.651 783.833 103.991C783.927 104.04 784.044 104.035 784.126 103.963L784.128 103.965C784.374 103.747 784.822 103.355 785.073 103.145C785.173 103.063 785.158 102.929 785.078 102.818ZM782.881 100.952C782.881 101.433 782.893 101.833 782.648 102.261C782.455 102.608 782.142 102.821 781.798 102.821C781.322 102.821 781.043 102.461 781.043 101.927C781.043 100.875 781.987 100.684 782.881 100.684V100.952Z" fill="#FFFBF7"/>
<path d="M802.628 97.8151C802.281 97.2687 801.737 97.0684 801.184 97.0674C800.332 97.0674 799.845 97.4805 799.501 98.3472H799.482V97.3783C799.458 97.2791 799.368 97.2053 799.261 97.2006H798.116C797.99 97.2006 797.889 97.2913 797.877 97.4077L797.88 103.746C797.88 103.868 797.977 103.967 798.102 103.977H799.33C799.464 103.977 799.571 103.874 799.572 103.746V100.336C799.572 99.9078 799.595 99.5231 799.77 99.1355C799.906 98.8302 800.182 98.6288 800.484 98.6288C801.336 98.6288 801.254 99.6431 801.254 100.336V103.777C801.263 103.884 801.361 103.967 801.471 103.978H802.711C802.835 103.978 802.934 103.888 802.95 103.777V99.7887C802.95 99.1753 802.95 98.3236 802.628 97.8151Z" fill="#FFFBF7"/>
<path d="M790.548 102.261C789.839 101.862 789.015 101.745 788.233 101.765L790.339 98.7626C790.532 98.4923 790.644 98.3231 790.644 98.1926V97.4167C790.644 97.2805 790.541 97.187 790.408 97.187H786.351C786.224 97.187 786.123 97.2787 786.123 97.4167V98.3231C786.123 98.4584 786.224 98.5509 786.357 98.5509H788.478L786.041 102.044C785.893 102.269 785.892 102.52 785.892 102.667V103.587C785.892 103.719 786.042 103.872 786.183 103.794C787.563 103.061 789.218 103.134 790.467 103.788C790.621 103.868 790.765 103.713 790.765 103.58V102.612C790.751 102.483 790.709 102.35 790.548 102.261Z" fill="#FFFBF7"/>
<path d="M789.76 104.557C789.506 104.244 787.332 103.974 786.007 104.905C785.804 105.048 785.837 105.246 786.065 105.219C786.81 105.131 788.475 104.932 788.77 105.31C789.065 105.689 788.44 107.254 788.159 107.952C788.073 108.164 788.256 108.249 788.447 108.09C789.694 107.052 790.013 104.872 789.76 104.557Z" fill="#FF8000"/>
<path d="M787.48 105.868C784.883 106.972 782.057 107.503 779.486 107.503C775.679 107.503 771.991 106.46 769.009 104.725C768.75 104.572 768.556 104.839 768.773 105.035C771.536 107.531 775.187 109.032 779.243 109.032C782.138 109.032 785.495 108.122 787.815 106.413C788.198 106.129 787.872 105.704 787.48 105.868Z" fill="#FF8000"/>
<path d="M768.892 102.818C768.667 102.505 768.427 102.251 768.427 101.674V99.7493C768.427 98.9354 768.486 98.1869 767.885 97.6254C767.41 97.1708 766.626 97.011 766.024 97.011C764.85 97.011 763.541 97.4486 763.264 98.9005C763.234 99.0555 763.348 99.1368 763.446 99.1595L764.647 99.288C764.757 99.2832 764.839 99.1737 764.86 99.0621C764.962 98.5621 765.383 98.321 765.854 98.321C766.107 98.321 766.394 98.4147 766.546 98.6424C766.718 98.8957 766.694 99.2436 766.694 99.5366V99.6954C765.979 99.7786 765.044 99.8305 764.373 100.125C763.602 100.457 763.056 101.14 763.056 102.142C763.056 103.424 763.865 104.066 764.903 104.066C765.783 104.066 766.263 103.859 766.94 103.168C767.164 103.493 767.237 103.652 767.648 103.992C767.74 104.042 767.858 104.036 767.94 103.964L767.943 103.966C768.189 103.748 768.636 103.356 768.89 103.146C768.99 103.061 768.973 102.929 768.892 102.818ZM766.694 100.952C766.694 101.433 766.707 101.833 766.464 102.261C766.267 102.609 765.957 102.821 765.609 102.821C765.136 102.821 764.86 102.461 764.86 101.927C764.86 100.875 765.802 100.684 766.694 100.684V100.952Z" fill="#FFFBF7"/>
</g>
<defs>
<radialGradient id="paint0_radial" cx="0" cy="0" r="1" gradientUnits="userSpaceOnUse" gradientTransform="translate(596.853 -374.419) rotate(90) scale(673.676)">
<stop stop-color="#FF8000"/>
<stop offset="1" stop-color="#E34141"/>
</radialGradient>
<clipPath id="clip0">
<rect width="1236" height="1295.85" fill="white"/>
</clipPath>
</defs>
</svg>
