<svg width="888" height="931" viewBox="0 0 888 931" fill="none" xmlns="http://www.w3.org/2000/svg">
<rect width="888" height="931" fill="white"/>
<mask id="mask0" mask-type="alpha" maskUnits="userSpaceOnUse" x="0" y="0" width="888" height="931">
<path d="M858 0H30C13.4315 0 0 13.4315 0 30V901C0 917.569 13.4315 931 30 931H858C874.569 931 888 917.569 888 901V30C888 13.4315 874.569 0 858 0Z" fill="url(#paint0_linear)"/>
</mask>
<g mask="url(#mask0)">
<path d="M444 215C577.653 215 686 106.653 686 -27C686 -160.653 577.653 -269 444 -269C310.347 -269 202 -160.653 202 -27C202 106.653 310.347 215 444 215Z" fill="url(#paint1_linear)"/>
<path d="M420.428 838.336C420.428 838.905 420.298 839.428 420.036 839.904C419.775 840.371 419.374 840.749 418.832 841.038C418.291 841.327 417.619 841.472 416.816 841.472H415.332V845H412.938V835.172H416.816C417.6 835.172 418.263 835.307 418.804 835.578C419.346 835.849 419.752 836.222 420.022 836.698C420.293 837.174 420.428 837.72 420.428 838.336ZM416.634 839.568C417.092 839.568 417.432 839.461 417.656 839.246C417.88 839.031 417.992 838.728 417.992 838.336C417.992 837.944 417.88 837.641 417.656 837.426C417.432 837.211 417.092 837.104 416.634 837.104H415.332V839.568H416.634ZM426.687 845L424.643 841.29H424.069V845H421.675V835.172H425.693C426.467 835.172 427.125 835.307 427.667 835.578C428.217 835.849 428.628 836.222 428.899 836.698C429.169 837.165 429.305 837.687 429.305 838.266C429.305 838.919 429.118 839.503 428.745 840.016C428.381 840.529 427.839 840.893 427.121 841.108L429.389 845H426.687ZM424.069 839.596H425.553C425.991 839.596 426.318 839.489 426.533 839.274C426.757 839.059 426.869 838.756 426.869 838.364C426.869 837.991 426.757 837.697 426.533 837.482C426.318 837.267 425.991 837.16 425.553 837.16H424.069V839.596ZM435.455 845.098C434.531 845.098 433.682 844.883 432.907 844.454C432.142 844.025 431.531 843.427 431.073 842.662C430.625 841.887 430.401 841.019 430.401 840.058C430.401 839.097 430.625 838.233 431.073 837.468C431.531 836.703 432.142 836.105 432.907 835.676C433.682 835.247 434.531 835.032 435.455 835.032C436.379 835.032 437.224 835.247 437.989 835.676C438.764 836.105 439.371 836.703 439.809 837.468C440.257 838.233 440.481 839.097 440.481 840.058C440.481 841.019 440.257 841.887 439.809 842.662C439.361 843.427 438.755 844.025 437.989 844.454C437.224 844.883 436.379 845.098 435.455 845.098ZM435.455 842.914C436.239 842.914 436.865 842.653 437.331 842.13C437.807 841.607 438.045 840.917 438.045 840.058C438.045 839.19 437.807 838.499 437.331 837.986C436.865 837.463 436.239 837.202 435.455 837.202C434.662 837.202 434.027 837.459 433.551 837.972C433.085 838.485 432.851 839.181 432.851 840.058C432.851 840.926 433.085 841.621 433.551 842.144C434.027 842.657 434.662 842.914 435.455 842.914ZM441.407 840.072C441.407 839.101 441.617 838.238 442.037 837.482C442.457 836.717 443.041 836.124 443.787 835.704C444.543 835.275 445.397 835.06 446.349 835.06C447.516 835.06 448.515 835.368 449.345 835.984C450.176 836.6 450.731 837.44 451.011 838.504H448.379C448.183 838.093 447.903 837.781 447.539 837.566C447.185 837.351 446.779 837.244 446.321 837.244C445.584 837.244 444.987 837.501 444.529 838.014C444.072 838.527 443.843 839.213 443.843 840.072C443.843 840.931 444.072 841.617 444.529 842.13C444.987 842.643 445.584 842.9 446.321 842.9C446.779 842.9 447.185 842.793 447.539 842.578C447.903 842.363 448.183 842.051 448.379 841.64H451.011C450.731 842.704 450.176 843.544 449.345 844.16C448.515 844.767 447.516 845.07 446.349 845.07C445.397 845.07 444.543 844.86 443.787 844.44C443.041 844.011 442.457 843.418 442.037 842.662C441.617 841.906 441.407 841.043 441.407 840.072ZM454.871 837.09V839.078H458.077V840.926H454.871V843.082H458.497V845H452.477V835.172H458.497V837.09H454.871ZM462.446 837.09V839.078H465.652V840.926H462.446V843.082H466.072V845H460.052V835.172H466.072V837.09H462.446ZM471.308 835.172C472.344 835.172 473.249 835.377 474.024 835.788C474.798 836.199 475.396 836.777 475.816 837.524C476.245 838.261 476.46 839.115 476.46 840.086C476.46 841.047 476.245 841.901 475.816 842.648C475.396 843.395 474.794 843.973 474.01 844.384C473.235 844.795 472.334 845 471.308 845H467.626V835.172H471.308ZM471.154 842.928C472.059 842.928 472.764 842.681 473.268 842.186C473.772 841.691 474.024 840.991 474.024 840.086C474.024 839.181 473.772 838.476 473.268 837.972C472.764 837.468 472.059 837.216 471.154 837.216H470.02V842.928H471.154Z" fill="white"/>
<path d="M585.123 55H303C294.716 55 288 61.7157 288 70V256.865C288 265.149 294.716 271.865 303 271.865H585.123C593.407 271.865 600.123 265.149 600.123 256.865V70C600.123 61.7157 593.407 55 585.123 55Z" fill="url(#paint2_linear)"/>
<path d="M471.157 141.75L459.513 135.025L443.56 146.945L459.512 158.865L471.196 152.117C473.018 151.01 474.105 149.076 474.105 146.945C474.105 144.814 473.018 142.881 471.157 141.75Z" fill="#FF9100"/>
<path d="M447.594 146.945C447.576 146.968 433.488 165.081 433.477 165.095L415.126 179.548C413.996 178.418 413.311 176.886 413.311 175.192V118.599C413.311 116.905 413.996 115.372 415.126 114.243L433.477 128.796C433.488 128.81 447.576 146.923 447.594 146.945Z" fill="#25D9F8"/>
<path d="M447.593 146.946L443.56 152.149V141.743L447.593 146.946Z" fill="#00C0F1"/>
<path d="M459.534 135.007L447.595 146.946L415.127 114.243C415.53 113.88 415.934 113.598 416.377 113.316C418.313 112.227 420.612 112.267 422.508 113.437L443.562 125.811L459.534 135.007Z" fill="#7FE881"/>
<path d="M459.532 135.007L447.593 146.945L443.56 142.912V125.811L459.532 135.007Z" fill="#5BC980"/>
<path d="M459.534 158.883L443.562 168.08L422.468 180.395C421.5 180.959 420.451 181.282 419.362 181.282C418.354 181.282 417.345 180.999 416.377 180.475C415.934 180.193 415.53 179.911 415.127 179.548L447.595 146.945L459.534 158.883Z" fill="#FF637B"/>
<path d="M459.532 158.883L443.56 168.08V150.978L447.593 146.945L459.532 158.883Z" fill="#E63950"/>
<path d="M577.7 72.9953L575.189 71.5449L571.748 74.1158L575.189 76.6867L577.709 75.2313C578.102 74.9926 578.336 74.5755 578.336 74.1159C578.336 73.6563 578.102 73.2392 577.7 72.9953Z" fill="#FF9100"/>
<path d="M572.617 74.1152C572.613 74.12 569.575 78.0267 569.572 78.0298L565.614 81.1471C565.371 80.9035 565.223 80.573 565.223 80.2075V68.0013C565.223 67.6359 565.371 67.3053 565.614 67.0618L569.572 70.2005C569.575 70.2037 572.613 74.1103 572.617 74.1152Z" fill="#25D9F8"/>
<path d="M572.618 74.1152L571.748 75.2373V72.9929L572.618 74.1152Z" fill="#00C0F1"/>
<path d="M575.192 71.5405L572.617 74.1155L565.614 67.0621C565.701 66.9838 565.788 66.9229 565.884 66.862C566.301 66.6271 566.797 66.6358 567.206 66.8881L571.747 69.5571L575.192 71.5405Z" fill="#7FE881"/>
<path d="M575.193 71.5408L572.618 74.1158L571.748 73.2458V69.5574L575.193 71.5408Z" fill="#5BC980"/>
<path d="M575.192 76.6907L571.747 78.6741L567.198 81.3303C566.989 81.4521 566.763 81.5217 566.528 81.5217C566.31 81.5217 566.093 81.4608 565.884 81.3477C565.788 81.2868 565.701 81.2259 565.614 81.1476L572.617 74.1157L575.192 76.6907Z" fill="#FF637B"/>
<path d="M575.193 76.6907L571.748 78.6741V74.9856L572.618 74.1157L575.193 76.6907Z" fill="#E63950"/>
<path d="M393.321 217.295H399.687C399.687 217.409 399.691 217.567 399.698 217.771C399.72 218.306 399.731 218.668 399.731 218.857C399.731 221.187 399.083 222.998 397.788 224.287C396.493 225.577 394.667 226.222 392.311 226.222C390.994 226.222 389.82 226.022 388.788 225.622C387.756 225.223 386.852 224.619 386.077 223.812C385.316 223.013 384.73 222.074 384.32 220.995C383.918 219.916 383.717 218.762 383.717 217.533C383.717 216.281 383.922 215.127 384.331 214.071C384.749 213.015 385.363 212.084 386.175 211.277C386.958 210.485 387.877 209.881 388.93 209.466C389.984 209.052 391.111 208.844 392.311 208.844C393.577 208.844 394.708 209.082 395.703 209.557C396.705 210.032 397.598 210.76 398.381 211.74L396.471 213.223C395.93 212.574 395.319 212.091 394.638 211.774C393.958 211.458 393.197 211.299 392.355 211.299C390.614 211.299 389.19 211.876 388.085 213.03C386.988 214.177 386.439 215.67 386.439 217.51C386.439 219.381 386.988 220.901 388.085 222.07C389.19 223.231 390.621 223.812 392.377 223.812C393.87 223.812 395.044 223.454 395.9 222.737C396.757 222.021 397.185 221.044 397.185 219.807V219.569H393.321V217.295Z" fill="#FFFBF7"/>
<path d="M410.466 220.452C410.466 219.456 410.155 218.615 409.533 217.929C408.911 217.235 408.15 216.888 407.25 216.888C406.357 216.888 405.596 217.235 404.967 217.929C404.345 218.615 404.034 219.456 404.034 220.452C404.034 221.448 404.345 222.292 404.967 222.986C405.596 223.673 406.357 224.016 407.25 224.016C408.143 224.016 408.9 223.673 409.522 222.986C410.151 222.292 410.466 221.448 410.466 220.452ZM401.52 220.429C401.52 219.645 401.663 218.906 401.948 218.212C402.241 217.51 402.658 216.888 403.2 216.345C403.734 215.81 404.348 215.399 405.044 215.112C405.739 214.825 406.467 214.682 407.228 214.682C408.011 214.682 408.746 214.825 409.434 215.112C410.129 215.399 410.751 215.821 411.3 216.379C411.849 216.93 412.266 217.552 412.551 218.246C412.837 218.94 412.979 219.668 412.979 220.429C412.979 221.221 412.837 221.964 412.551 222.658C412.273 223.352 411.863 223.967 411.322 224.502C410.751 225.068 410.118 225.494 409.423 225.781C408.728 226.075 407.996 226.222 407.228 226.222C406.474 226.222 405.75 226.075 405.055 225.781C404.359 225.494 403.741 225.075 403.2 224.525C402.651 223.967 402.234 223.341 401.948 222.647C401.663 221.953 401.52 221.214 401.52 220.429Z" fill="#FFFBF7"/>
<path d="M423.681 220.452C423.681 219.456 423.37 218.615 422.748 217.929C422.126 217.235 421.365 216.888 420.465 216.888C419.572 216.888 418.811 217.235 418.182 217.929C417.56 218.615 417.249 219.456 417.249 220.452C417.249 221.448 417.56 222.292 418.182 222.986C418.811 223.673 419.572 224.016 420.465 224.016C421.358 224.016 422.115 223.673 422.737 222.986C423.367 222.292 423.681 221.448 423.681 220.452ZM414.736 220.429C414.736 219.645 414.878 218.906 415.164 218.212C415.456 217.51 415.873 216.888 416.415 216.345C416.949 215.81 417.564 215.399 418.259 215.112C418.954 214.825 419.682 214.682 420.443 214.682C421.226 214.682 421.962 214.825 422.649 215.112C423.345 215.399 423.967 215.821 424.515 216.379C425.064 216.93 425.481 217.552 425.767 218.246C426.052 218.94 426.195 219.668 426.195 220.429C426.195 221.221 426.052 221.964 425.767 222.658C425.489 223.352 425.079 223.967 424.537 224.502C423.967 225.068 423.334 225.494 422.638 225.781C421.943 226.075 421.212 226.222 420.443 226.222C419.689 226.222 418.965 226.075 418.27 225.781C417.575 225.494 416.956 225.075 416.415 224.525C415.866 223.967 415.449 223.341 415.164 222.647C414.878 221.953 414.736 221.214 414.736 220.429Z" fill="#FFFBF7"/>
<path d="M436.194 220.384C436.194 219.275 435.942 218.412 435.437 217.793C434.939 217.175 434.24 216.866 433.34 216.866C432.44 216.866 431.73 217.186 431.211 217.827C430.699 218.461 430.443 219.343 430.443 220.475C430.443 221.613 430.691 222.492 431.189 223.111C431.687 223.729 432.389 224.038 433.296 224.038C434.152 224.038 434.848 223.703 435.382 223.031C435.923 222.36 436.194 221.478 436.194 220.384ZM438.51 225.113C438.51 227.21 438.104 228.685 437.292 229.537C436.479 230.397 435.111 230.827 433.187 230.827C431.752 230.827 430.607 230.514 429.751 229.888C428.895 229.269 428.459 228.443 428.445 227.41L431.002 227.399C431.039 227.859 431.247 228.209 431.628 228.451C432.008 228.692 432.543 228.813 433.23 228.813C434.248 228.813 434.979 228.583 435.426 228.123C435.872 227.663 436.099 226.893 436.106 225.815L436.128 224.389C435.704 225.008 435.206 225.468 434.635 225.769C434.072 226.071 433.424 226.222 432.693 226.222C431.222 226.222 430.062 225.705 429.213 224.672C428.372 223.631 427.951 222.209 427.951 220.407C427.951 218.695 428.383 217.314 429.246 216.266C430.11 215.21 431.236 214.682 432.627 214.682C433.476 214.682 434.2 214.867 434.8 215.236C435.407 215.598 435.85 216.123 436.128 216.809V215.055H438.51V225.113Z" fill="#FFFBF7"/>
<path d="M441.913 225.781V208.245H444.295V225.781H441.913Z" fill="#FFFBF7"/>
<path d="M457.729 220.78H449.409C449.468 221.783 449.757 222.568 450.277 223.133C450.796 223.691 451.488 223.971 452.351 223.971C453.119 223.971 453.76 223.805 454.272 223.473C454.784 223.141 455.23 222.605 455.611 221.866L457.62 223.02C457.034 224.099 456.31 224.902 455.446 225.43C454.583 225.958 453.569 226.222 452.406 226.222C450.738 226.222 449.409 225.698 448.422 224.649C447.434 223.601 446.94 222.202 446.94 220.452C446.94 218.77 447.448 217.39 448.465 216.311C449.49 215.225 450.803 214.682 452.406 214.682C454.082 214.682 455.388 215.176 456.324 216.164C457.261 217.152 457.729 218.536 457.729 220.316V220.78ZM455.26 219.128C455.165 218.359 454.879 217.774 454.404 217.375C453.928 216.967 453.277 216.764 452.45 216.764C451.667 216.764 451.038 216.96 450.562 217.352C450.086 217.744 449.753 218.336 449.563 219.128H455.26Z" fill="#FFFBF7"/>
<path d="M469.814 216.141H470.484C471.933 216.141 472.899 215.979 473.381 215.655C473.864 215.331 474.106 214.757 474.106 213.935C474.106 213.053 473.846 212.431 473.327 212.069C472.814 211.706 471.867 211.525 470.484 211.525H469.814V216.141ZM469.65 218.348V225.781H467.202V209.217H471.153C472.324 209.217 473.184 209.285 473.733 209.421C474.289 209.549 474.772 209.764 475.182 210.066C475.686 210.451 476.082 210.971 476.367 211.627C476.652 212.276 476.795 212.992 476.795 213.777C476.795 214.561 476.652 215.285 476.367 215.949C476.082 216.613 475.686 217.133 475.182 217.51C474.772 217.812 474.289 218.027 473.733 218.155C473.184 218.284 472.324 218.348 471.153 218.348H469.65Z" fill="#FFFBF7"/>
<path d="M479.078 225.781V208.245H481.46V225.781H479.078Z" fill="#FFFBF7"/>
<path d="M494.664 225.781H492.283V224.389C491.858 225.008 491.361 225.468 490.79 225.769C490.226 226.071 489.579 226.222 488.847 226.222C487.376 226.222 486.216 225.705 485.367 224.672C484.526 223.631 484.105 222.209 484.105 220.407C484.105 218.695 484.537 217.314 485.4 216.266C486.264 215.21 487.391 214.682 488.781 214.682C489.63 214.682 490.354 214.867 490.954 215.236C491.562 215.598 492.004 216.123 492.283 216.809V215.055H494.664V225.781ZM492.348 220.384C492.348 219.275 492.096 218.412 491.591 217.793C491.093 217.175 490.395 216.866 489.495 216.866C488.594 216.866 487.885 217.186 487.365 217.827C486.853 218.461 486.597 219.343 486.597 220.475C486.597 221.613 486.846 222.492 487.343 223.111C487.841 223.729 488.543 224.038 489.451 224.038C490.307 224.038 491.002 223.703 491.536 223.031C492.078 222.36 492.348 221.478 492.348 220.384Z" fill="#FFFBF7"/>
<path d="M499.746 230.827H497.299L500.152 224.853L496.333 215.055H498.967L500.877 220.61C500.987 220.95 501.082 221.297 501.162 221.651C501.25 221.998 501.32 222.353 501.371 222.715C501.466 222.338 501.693 221.738 502.051 220.916L502.106 220.78L504.675 215.055H507.254L499.746 230.827Z" fill="#FFFBF7"/>
</g>
<defs>
<linearGradient id="paint0_linear" x1="526.222" y1="-225.697" x2="1252.37" y2="787.207" gradientUnits="userSpaceOnUse">
<stop offset="0.104167" stop-color="#99FDD9"/>
<stop offset="1" stop-color="#1E62A2"/>
</linearGradient>
<linearGradient id="paint1_linear" x1="488.815" y1="-386.333" x2="860.26" y2="156.887" gradientUnits="userSpaceOnUse">
<stop offset="0.104167" stop-color="#99FDD9"/>
<stop offset="1" stop-color="#1E62A2"/>
</linearGradient>
<linearGradient id="paint2_linear" x1="472.962" y1="2.42673" x2="611.416" y2="293.851" gradientUnits="userSpaceOnUse">
<stop offset="0.104167" stop-color="#99FDD9"/>
<stop offset="1" stop-color="#1E62A2"/>
</linearGradient>
</defs>
</svg>
