<svg width="888" height="931" viewBox="0 0 888 931" fill="none" xmlns="http://www.w3.org/2000/svg">
<mask id="mask0" mask-type="alpha" maskUnits="userSpaceOnUse" x="0" y="0" width="888" height="931">
<path d="M858 0H30C13.4315 0 0 13.4315 0 30V901C0 917.569 13.4315 931 30 931H858C874.569 931 888 917.569 888 901V30C888 13.4315 874.569 0 858 0Z" fill="white"/>
</mask>
<g mask="url(#mask0)">
<path d="M444 215C577.653 215 686 106.653 686 -27C686 -160.653 577.653 -269 444 -269C310.347 -269 202 -160.653 202 -27C202 106.653 310.347 215 444 215Z" fill="url(#paint0_linear)"/>
<path d="M585.123 55H303C294.716 55 288 61.7157 288 70V256.865C288 265.149 294.716 271.865 303 271.865H585.123C593.407 271.865 600.123 265.149 600.123 256.865V70C600.123 61.7157 593.407 55 585.123 55Z" fill="url(#paint1_linear)"/>
<path d="M417.963 136.181C411.581 147.059 415.638 163.566 422.696 173.575C426.219 178.579 429.786 183.071 434.671 183.071C434.763 183.071 434.856 183.07 434.95 183.066C437.245 182.976 438.904 182.282 440.508 181.611C442.308 180.858 444.17 180.078 447.091 180.078C449.87 180.078 451.643 180.832 453.358 181.561C455.048 182.279 456.789 183.022 459.361 182.975C464.864 182.874 468.243 178.027 471.224 173.751C474.334 169.287 475.895 164.952 476.421 163.295L476.443 163.229C476.543 162.935 476.401 162.614 476.114 162.484C476.106 162.48 476.077 162.468 476.069 162.465C475.099 162.076 466.599 158.372 466.51 148.278C466.427 140.076 472.887 135.733 474.182 134.946L474.243 134.909C474.383 134.82 474.481 134.68 474.514 134.519C474.547 134.358 474.512 134.191 474.418 134.056C469.959 127.647 463.125 126.681 460.374 126.565C459.975 126.526 459.562 126.506 459.149 126.506C455.917 126.506 452.821 127.705 450.334 128.668C448.617 129.333 447.134 129.907 446.112 129.907C444.962 129.907 443.471 129.326 441.744 128.653C439.435 127.753 436.817 126.733 434.046 126.733C433.98 126.733 433.915 126.733 433.851 126.734C427.408 126.828 421.32 130.448 417.963 136.181Z" fill="#FEFAF6"/>
<path d="M460.378 108.925C456.476 109.081 451.795 111.44 448.998 114.658C446.62 117.363 444.298 121.873 444.91 126.419C444.948 126.704 445.184 126.923 445.475 126.945C445.738 126.966 446.007 126.976 446.275 126.976C450.09 126.976 454.206 124.903 457.016 121.565C459.975 118.041 461.47 113.518 461.018 109.466C460.982 109.149 460.698 108.913 460.378 108.925Z" fill="#FEFAF6"/>
<path d="M572.803 71.5935C571.663 73.3735 572.388 76.0747 573.648 77.7125C574.277 78.5314 574.914 79.2664 575.787 79.2664C575.803 79.2664 575.819 79.2661 575.836 79.2655C576.246 79.2508 576.542 79.1372 576.829 79.0275C577.15 78.9041 577.483 78.7766 578.004 78.7766C578.501 78.7766 578.817 78.9 579.123 79.0193C579.425 79.1368 579.736 79.2584 580.195 79.2506C581.178 79.2341 581.781 78.441 582.314 77.7413C582.869 77.0107 583.148 76.3014 583.242 76.0303L583.246 76.0195C583.264 75.9714 583.238 75.9188 583.187 75.8976C583.186 75.897 583.18 75.895 583.179 75.8945C583.006 75.8308 581.488 75.2247 581.472 73.5729C581.457 72.2308 582.611 71.5202 582.842 71.3914L582.853 71.3853C582.878 71.3708 582.895 71.3478 582.901 71.3214C582.907 71.2951 582.901 71.2678 582.884 71.2456C582.088 70.1969 580.868 70.0389 580.376 70.0199C580.305 70.0135 580.231 70.0103 580.157 70.0103C579.58 70.0103 579.028 70.2064 578.583 70.364C578.277 70.4728 578.012 70.5668 577.829 70.5668C577.624 70.5668 577.358 70.4717 577.049 70.3616C576.637 70.2142 576.17 70.0473 575.675 70.0473C575.663 70.0473 575.651 70.0474 575.64 70.0476C574.489 70.0629 573.402 70.6553 572.803 71.5935Z" fill="#FEFAF6"/>
<path d="M580.377 67.1334C579.681 67.1589 578.845 67.5449 578.345 68.0715C577.921 68.5142 577.506 69.2522 577.615 69.9961C577.622 70.0426 577.664 70.0786 577.716 70.0822C577.763 70.0855 577.811 70.0871 577.859 70.0872C578.54 70.0872 579.275 69.748 579.777 69.2018C580.306 68.6251 580.573 67.8849 580.492 67.2219C580.485 67.17 580.435 67.1314 580.377 67.1334Z" fill="#FEFAF6"/>
<path d="M352.369 217.476H345.812L344.604 220.819H342.533L347.969 205.871H350.234L355.648 220.819H353.577L352.369 217.476ZM351.808 215.88L349.09 208.287L346.373 215.88H351.808Z" fill="white"/>
<path d="M359.98 211.177C360.368 210.502 360.943 209.941 361.705 209.495C362.482 209.035 363.38 208.805 364.401 208.805C365.451 208.805 366.4 209.056 367.249 209.56C368.111 210.063 368.787 210.775 369.276 211.695C369.765 212.601 370.01 213.658 370.01 214.866C370.01 216.059 369.765 217.124 369.276 218.058C368.787 218.993 368.111 219.719 367.249 220.237C366.4 220.755 365.451 221.013 364.401 221.013C363.395 221.013 362.503 220.79 361.727 220.345C360.965 219.885 360.382 219.317 359.98 218.641V226.427H358.017V208.999H359.98V211.177ZM368.004 214.866C368.004 213.974 367.824 213.198 367.464 212.536C367.105 211.875 366.616 211.372 365.998 211.026C365.394 210.681 364.725 210.509 363.992 210.509C363.273 210.509 362.604 210.689 361.986 211.048C361.382 211.393 360.893 211.904 360.519 212.58C360.159 213.241 359.98 214.01 359.98 214.888C359.98 215.779 360.159 216.563 360.519 217.239C360.893 217.9 361.382 218.411 361.986 218.77C362.604 219.115 363.273 219.288 363.992 219.288C364.725 219.288 365.394 219.115 365.998 218.77C366.616 218.411 367.105 217.9 367.464 217.239C367.824 216.563 368.004 215.772 368.004 214.866Z" fill="white"/>
<path d="M374.556 211.177C374.944 210.502 375.52 209.941 376.282 209.495C377.058 209.035 377.957 208.805 378.978 208.805C380.028 208.805 380.977 209.056 381.825 209.56C382.688 210.063 383.364 210.775 383.853 211.695C384.342 212.601 384.586 213.658 384.586 214.866C384.586 216.059 384.342 217.124 383.853 218.058C383.364 218.993 382.688 219.719 381.825 220.237C380.977 220.755 380.028 221.013 378.978 221.013C377.971 221.013 377.08 220.79 376.303 220.345C375.541 219.885 374.959 219.317 374.556 218.641V226.427H372.593V208.999H374.556V211.177ZM382.58 214.866C382.58 213.974 382.4 213.198 382.041 212.536C381.681 211.875 381.192 211.372 380.574 211.026C379.97 210.681 379.301 210.509 378.568 210.509C377.849 210.509 377.18 210.689 376.562 211.048C375.958 211.393 375.469 211.904 375.095 212.58C374.736 213.241 374.556 214.01 374.556 214.888C374.556 215.779 374.736 216.563 375.095 217.239C375.469 217.9 375.958 218.411 376.562 218.77C377.18 219.115 377.849 219.288 378.568 219.288C379.301 219.288 379.97 219.115 380.574 218.77C381.192 218.411 381.681 217.9 382.041 217.239C382.4 216.563 382.58 215.772 382.58 214.866Z" fill="white"/>
<path d="M397.687 220.97C396.695 220.97 395.803 220.798 395.013 220.453C394.236 220.093 393.625 219.604 393.179 218.986C392.733 218.353 392.503 217.627 392.489 216.807H394.581C394.653 217.512 394.941 218.109 395.444 218.598C395.962 219.072 396.709 219.309 397.687 219.309C398.622 219.309 399.355 219.079 399.887 218.619C400.434 218.145 400.707 217.541 400.707 216.807C400.707 216.232 400.549 215.765 400.233 215.405C399.916 215.046 399.521 214.772 399.046 214.586C398.572 214.399 397.932 214.197 397.126 213.982C396.134 213.723 395.336 213.464 394.732 213.205C394.143 212.946 393.632 212.544 393.201 211.997C392.784 211.436 392.575 210.689 392.575 209.754C392.575 208.934 392.784 208.208 393.201 207.575C393.618 206.943 394.2 206.454 394.948 206.109C395.71 205.763 396.58 205.591 397.558 205.591C398.967 205.591 400.117 205.943 401.009 206.648C401.915 207.352 402.425 208.287 402.54 209.452H400.383C400.312 208.877 400.01 208.373 399.478 207.942C398.945 207.496 398.241 207.273 397.364 207.273C396.544 207.273 395.875 207.489 395.358 207.92C394.84 208.337 394.581 208.927 394.581 209.689C394.581 210.236 394.732 210.681 395.034 211.026C395.351 211.372 395.732 211.638 396.177 211.825C396.638 211.997 397.277 212.198 398.097 212.429C399.089 212.702 399.887 212.975 400.491 213.248C401.095 213.507 401.613 213.917 402.044 214.478C402.476 215.024 402.691 215.772 402.691 216.721C402.691 217.454 402.497 218.145 402.109 218.792C401.721 219.439 401.146 219.964 400.383 220.366C399.621 220.769 398.723 220.97 397.687 220.97Z" fill="white"/>
<path d="M407.974 210.617V217.584C407.974 218.159 408.096 218.569 408.341 218.813C408.585 219.043 409.01 219.158 409.614 219.158H411.059V220.819H409.29C408.197 220.819 407.377 220.568 406.831 220.064C406.285 219.561 406.011 218.734 406.011 217.584V210.617H404.48V208.999H406.011V206.022H407.974V208.999H411.059V210.617H407.974Z" fill="white"/>
<path d="M418.592 221.013C417.485 221.013 416.478 220.762 415.572 220.258C414.681 219.755 413.976 219.043 413.459 218.123C412.955 217.188 412.704 216.11 412.704 214.888C412.704 213.68 412.962 212.615 413.48 211.695C414.012 210.76 414.731 210.049 415.637 209.56C416.543 209.056 417.557 208.805 418.678 208.805C419.8 208.805 420.814 209.056 421.72 209.56C422.626 210.049 423.338 210.753 423.855 211.674C424.387 212.594 424.653 213.665 424.653 214.888C424.653 216.11 424.38 217.188 423.834 218.123C423.302 219.043 422.575 219.755 421.655 220.258C420.735 220.762 419.714 221.013 418.592 221.013ZM418.592 219.288C419.297 219.288 419.958 219.122 420.577 218.792C421.195 218.461 421.691 217.965 422.065 217.303C422.453 216.642 422.647 215.837 422.647 214.888C422.647 213.938 422.46 213.133 422.087 212.472C421.713 211.81 421.224 211.321 420.62 211.005C420.016 210.674 419.362 210.509 418.657 210.509C417.938 210.509 417.276 210.674 416.672 211.005C416.083 211.321 415.608 211.81 415.249 212.472C414.889 213.133 414.71 213.938 414.71 214.888C414.71 215.851 414.882 216.663 415.227 217.325C415.587 217.986 416.061 218.482 416.651 218.813C417.24 219.13 417.888 219.288 418.592 219.288Z" fill="white"/>
<path d="M429.197 210.919C429.542 210.243 430.031 209.718 430.664 209.344C431.311 208.97 432.095 208.783 433.015 208.783V210.811H432.497C430.297 210.811 429.197 212.004 429.197 214.391V220.819H427.234V208.999H429.197V210.919Z" fill="white"/>
<path d="M446.066 214.456C446.066 214.83 446.044 215.225 446.001 215.642H436.553C436.625 216.807 437.021 217.72 437.74 218.382C438.473 219.029 439.357 219.352 440.393 219.352C441.241 219.352 441.946 219.158 442.507 218.77C443.082 218.367 443.484 217.835 443.715 217.174H445.828C445.512 218.31 444.879 219.237 443.93 219.956C442.981 220.661 441.802 221.013 440.393 221.013C439.271 221.013 438.265 220.762 437.373 220.258C436.496 219.755 435.806 219.043 435.302 218.123C434.799 217.188 434.547 216.11 434.547 214.888C434.547 213.665 434.792 212.594 435.281 211.674C435.77 210.753 436.453 210.049 437.33 209.56C438.221 209.056 439.242 208.805 440.393 208.805C441.514 208.805 442.507 209.049 443.369 209.538C444.232 210.027 444.894 210.703 445.354 211.566C445.828 212.414 446.066 213.378 446.066 214.456ZM444.038 214.046C444.038 213.299 443.873 212.659 443.542 212.127C443.211 211.58 442.758 211.17 442.183 210.897C441.622 210.609 440.997 210.466 440.307 210.466C439.314 210.466 438.466 210.782 437.761 211.415C437.071 212.047 436.676 212.925 436.575 214.046H444.038Z" fill="white"/>
<path d="M465.947 220.819L463.984 218.835C463.251 219.597 462.467 220.165 461.633 220.539C460.799 220.898 459.857 221.078 458.807 221.078C457.772 221.078 456.852 220.891 456.046 220.517C455.256 220.143 454.637 219.611 454.191 218.921C453.76 218.231 453.544 217.426 453.544 216.505C453.544 215.456 453.839 214.535 454.429 213.744C455.033 212.939 455.917 212.306 457.082 211.846C456.622 211.3 456.291 210.796 456.09 210.336C455.888 209.876 455.788 209.373 455.788 208.826C455.788 208.194 455.946 207.626 456.262 207.122C456.593 206.605 457.06 206.202 457.664 205.914C458.268 205.627 458.966 205.483 459.756 205.483C460.533 205.483 461.209 205.634 461.784 205.936C462.359 206.238 462.791 206.662 463.078 207.209C463.366 207.741 463.495 208.337 463.467 208.999H461.504C461.518 208.409 461.353 207.949 461.008 207.618C460.662 207.273 460.217 207.101 459.67 207.101C459.095 207.101 458.628 207.266 458.268 207.597C457.923 207.913 457.75 208.323 457.75 208.826C457.75 209.258 457.866 209.675 458.096 210.077C458.34 210.48 458.743 210.976 459.304 211.566L463.79 216.074L464.178 215.47L465.645 213.011H467.759L465.99 216.074C465.746 216.505 465.458 216.958 465.127 217.433L468.514 220.819H465.947ZM458.807 219.396C459.584 219.396 460.281 219.245 460.9 218.943C461.532 218.641 462.129 218.173 462.69 217.541L458.268 213.097C456.428 213.802 455.507 214.916 455.507 216.441C455.507 217.289 455.809 217.994 456.413 218.554C457.031 219.115 457.83 219.396 458.807 219.396Z" fill="white"/>
<path d="M477.117 207.079C476.743 207.079 476.427 206.95 476.168 206.691C475.909 206.432 475.78 206.116 475.78 205.742C475.78 205.368 475.909 205.052 476.168 204.793C476.427 204.534 476.743 204.405 477.117 204.405C477.477 204.405 477.779 204.534 478.023 204.793C478.282 205.052 478.411 205.368 478.411 205.742C478.411 206.116 478.282 206.432 478.023 206.691C477.779 206.95 477.477 207.079 477.117 207.079ZM478.066 208.999V220.819H476.103V208.999H478.066Z" fill="white"/>
<path d="M490.665 205.785V207.381H486.567V220.819H484.604V207.381H480.484V205.785H490.665Z" fill="white"/>
<path d="M503.564 208.999V220.819H501.601V219.072C501.228 219.676 500.703 220.151 500.027 220.496C499.365 220.826 498.632 220.992 497.827 220.992C496.906 220.992 496.08 220.805 495.346 220.431C494.613 220.043 494.03 219.468 493.599 218.705C493.182 217.943 492.973 217.016 492.973 215.923V208.999H494.915V215.664C494.915 216.829 495.21 217.728 495.799 218.36C496.389 218.979 497.194 219.288 498.215 219.288C499.265 219.288 500.092 218.964 500.695 218.317C501.299 217.67 501.601 216.728 501.601 215.491V208.999H503.564Z" fill="white"/>
<path d="M512.638 208.783C514.076 208.783 515.24 209.222 516.132 210.099C517.023 210.962 517.469 212.213 517.469 213.852V220.819H515.528V214.133C515.528 212.953 515.233 212.055 514.644 211.436C514.054 210.804 513.249 210.487 512.228 210.487C511.192 210.487 510.366 210.811 509.747 211.458C509.143 212.105 508.841 213.047 508.841 214.284V220.819H506.878V208.999H508.841V210.681C509.23 210.077 509.754 209.61 510.416 209.279C511.092 208.949 511.832 208.783 512.638 208.783Z" fill="white"/>
<path d="M531.461 214.456C531.461 214.83 531.439 215.225 531.396 215.642H521.948C522.02 216.807 522.416 217.72 523.135 218.382C523.868 219.029 524.752 219.352 525.788 219.352C526.636 219.352 527.341 219.158 527.902 218.77C528.477 218.367 528.879 217.835 529.109 217.174H531.223C530.907 218.31 530.274 219.237 529.325 219.956C528.376 220.661 527.197 221.013 525.788 221.013C524.666 221.013 523.659 220.762 522.768 220.258C521.891 219.755 521.2 219.043 520.697 218.123C520.194 217.188 519.942 216.11 519.942 214.888C519.942 213.665 520.187 212.594 520.676 211.674C521.165 210.753 521.848 210.049 522.725 209.56C523.616 209.056 524.637 208.805 525.788 208.805C526.909 208.805 527.902 209.049 528.764 209.538C529.627 210.027 530.289 210.703 530.749 211.566C531.223 212.414 531.461 213.378 531.461 214.456ZM529.433 214.046C529.433 213.299 529.268 212.659 528.937 212.127C528.606 211.58 528.153 211.17 527.578 210.897C527.017 210.609 526.392 210.466 525.701 210.466C524.709 210.466 523.861 210.782 523.156 211.415C522.466 212.047 522.07 212.925 521.97 214.046H529.433Z" fill="white"/>
<path d="M538.236 221.013C537.33 221.013 536.518 220.862 535.799 220.56C535.08 220.244 534.512 219.813 534.095 219.266C533.678 218.705 533.447 218.065 533.404 217.346H535.432C535.489 217.936 535.763 218.418 536.252 218.792C536.755 219.166 537.409 219.352 538.214 219.352C538.962 219.352 539.552 219.187 539.983 218.856C540.415 218.526 540.63 218.109 540.63 217.605C540.63 217.088 540.4 216.707 539.94 216.462C539.48 216.203 538.768 215.952 537.805 215.707C536.927 215.477 536.208 215.247 535.648 215.017C535.101 214.772 534.627 214.42 534.224 213.96C533.836 213.485 533.642 212.867 533.642 212.105C533.642 211.501 533.821 210.947 534.181 210.444C534.54 209.941 535.051 209.545 535.712 209.258C536.374 208.956 537.129 208.805 537.977 208.805C539.286 208.805 540.343 209.136 541.148 209.797C541.953 210.458 542.385 211.364 542.442 212.515H540.479C540.436 211.896 540.184 211.4 539.724 211.026C539.279 210.653 538.675 210.466 537.912 210.466C537.208 210.466 536.647 210.617 536.23 210.919C535.813 211.221 535.604 211.616 535.604 212.105C535.604 212.493 535.727 212.817 535.971 213.076C536.23 213.32 536.546 213.521 536.92 213.68C537.309 213.823 537.841 213.989 538.516 214.176C539.365 214.406 540.055 214.636 540.587 214.866C541.119 215.082 541.572 215.412 541.946 215.858C542.334 216.304 542.536 216.886 542.55 217.605C542.55 218.252 542.37 218.835 542.011 219.352C541.651 219.87 541.141 220.28 540.479 220.582C539.832 220.87 539.084 221.013 538.236 221.013Z" fill="white"/>
</g>
<defs>
<linearGradient id="paint0_linear" x1="488.815" y1="-386.333" x2="860.26" y2="156.887" gradientUnits="userSpaceOnUse">
<stop stop-color="#00E0FF"/>
<stop offset="1" stop-color="#0047FF"/>
</linearGradient>
<linearGradient id="paint1_linear" x1="472.962" y1="2.42674" x2="611.416" y2="293.851" gradientUnits="userSpaceOnUse">
<stop stop-color="#00E0FF"/>
<stop offset="1" stop-color="#0047FF"/>
</linearGradient>
</defs>
</svg>
