<svg width="888" height="931" viewBox="0 0 888 931" fill="none" xmlns="http://www.w3.org/2000/svg">
<mask id="mask0" mask-type="alpha" maskUnits="userSpaceOnUse" x="0" y="0" width="888" height="931">
<path d="M858 0H30C13.4315 0 0 13.4315 0 30V901C0 917.569 13.4315 931 30 931H858C874.569 931 888 917.569 888 901V30C888 13.4315 874.569 0 858 0Z" fill="url(#paint0_linear)"/>
</mask>
<g mask="url(#mask0)">
<path d="M444 215C577.653 215 686 106.653 686 -27C686 -160.653 577.653 -269 444 -269C310.347 -269 202 -160.653 202 -27C202 106.653 310.347 215 444 215Z" fill="url(#paint1_linear)"/>
<path d="M585.123 55H303C294.716 55 288 61.7157 288 70V256.865C288 265.149 294.716 271.865 303 271.865H585.123C593.407 271.865 600.123 265.149 600.123 256.865V70C600.123 61.7157 593.407 55 585.123 55Z" fill="url(#paint2_linear)"/>
<path d="M415.311 216.328C415.311 218.843 414.685 220.821 413.435 222.261C412.192 223.702 410.461 224.422 408.241 224.422C405.972 224.422 404.22 223.716 402.983 222.304C401.754 220.885 401.14 218.886 401.14 216.306C401.14 213.748 401.758 211.767 402.994 210.362C404.23 208.95 405.986 208.244 408.262 208.244C410.475 208.244 412.202 208.961 413.446 210.394C414.689 211.827 415.311 213.805 415.311 216.328ZM403.036 216.328C403.036 218.456 403.479 220.072 404.364 221.176C405.256 222.272 406.548 222.82 408.241 222.82C409.948 222.82 411.237 222.272 412.108 221.176C412.979 220.079 413.414 218.463 413.414 216.328C413.414 214.214 412.979 212.612 412.108 211.523C411.244 210.426 409.962 209.878 408.262 209.878C406.555 209.878 405.256 210.43 404.364 211.534C403.479 212.63 403.036 214.228 403.036 216.328Z" fill="white"/>
<path d="M424.846 224.207H423.055V210.115H418.176V208.492H429.724V210.115H424.846V224.207Z" fill="white"/>
<path d="M445.096 224.207H443.305V216.811H435.192V224.207H433.401V208.492H435.192V215.178H443.305V208.492H445.096V224.207Z" fill="white"/>
<path d="M459.267 224.207H450.68V208.492H459.267V210.115H452.471V215.178H458.856V216.79H452.471V222.573H459.267V224.207Z" fill="white"/>
<path d="M465.831 217.671V224.207H464.04V208.492H468.265C470.154 208.492 471.548 208.861 472.448 209.599C473.354 210.337 473.807 211.448 473.807 212.931C473.807 215.009 472.774 216.414 470.709 217.145L474.892 224.207H472.774L469.044 217.671H465.831ZM465.831 216.102H468.286C469.55 216.102 470.477 215.848 471.067 215.339C471.657 214.823 471.952 214.052 471.952 213.028C471.952 211.989 471.65 211.24 471.046 210.781C470.449 210.323 469.487 210.093 468.159 210.093H465.831V216.102Z" fill="white"/>
<path d="M487.419 220.025C487.419 221.408 486.928 222.487 485.944 223.261C484.961 224.035 483.626 224.422 481.94 224.422C480.114 224.422 478.709 224.182 477.726 223.702V221.939C478.358 222.211 479.047 222.426 479.791 222.584C480.536 222.741 481.273 222.82 482.004 222.82C483.198 222.82 484.097 222.591 484.701 222.132C485.305 221.666 485.607 221.022 485.607 220.197C485.607 219.653 485.498 219.208 485.28 218.865C485.07 218.513 484.711 218.191 484.206 217.897C483.707 217.603 482.945 217.27 481.919 216.897C480.487 216.374 479.461 215.754 478.843 215.038C478.232 214.321 477.926 213.386 477.926 212.232C477.926 211.021 478.372 210.057 479.264 209.341C480.156 208.624 481.336 208.266 482.804 208.266C484.336 208.266 485.744 208.553 487.029 209.126L486.471 210.717C485.2 210.172 483.963 209.9 482.762 209.9C481.814 209.9 481.073 210.108 480.539 210.523C480.005 210.939 479.738 211.516 479.738 212.254C479.738 212.798 479.837 213.246 480.033 213.597C480.23 213.941 480.56 214.26 481.024 214.554C481.494 214.841 482.211 215.16 483.173 215.511C484.789 216.098 485.899 216.729 486.503 217.403C487.114 218.076 487.419 218.951 487.419 220.025Z" fill="white"/>
<path d="M485.211 136.451C486.185 136.451 486.975 135.661 486.975 134.687L486.976 126.46C486.976 124.789 485.622 123.434 483.95 123.434L406.458 123.429C404.787 123.429 403.433 124.783 403.432 126.454V134.681C403.432 135.655 404.222 136.445 405.196 136.446C406.171 136.446 406.96 137.236 406.96 138.21L406.959 154.423C406.959 155.398 406.169 156.188 405.195 156.188C404.22 156.188 403.43 156.978 403.43 157.952V166.179C403.43 167.85 404.784 169.204 406.455 169.205L483.948 169.21C485.618 169.21 486.973 167.856 486.973 166.185L486.974 157.958C486.974 156.983 486.184 156.193 485.209 156.193C484.235 156.193 483.445 155.403 483.445 154.428L483.446 138.215C483.446 137.241 484.236 136.451 485.211 136.451Z" fill="url(#paint3_linear)"/>
<path d="M403.43 158.527V166.18C403.43 167.85 404.784 169.204 406.454 169.205L483.947 169.21C485.618 169.21 486.973 167.856 486.973 166.185V158.528H403.43V158.527Z" fill="url(#paint4_linear)"/>
<path d="M406.829 146.833L412.384 152.387V146.833H406.829Z" fill="url(#paint5_linear)"/>
<path d="M429.399 123.599L435.414 129.613H429.399V123.599Z" fill="url(#paint6_linear)"/>
<path d="M478.469 163.614H412.689C411.593 163.614 410.705 162.726 410.705 161.63V131.011C410.705 129.915 411.593 129.027 412.689 129.027H478.469C479.564 129.027 480.452 129.915 480.452 131.011V161.63C480.452 162.726 479.564 163.614 478.469 163.614Z" fill="url(#paint7_linear)"/>
<path d="M438.136 134.35C437.003 133.078 435.119 132.587 433.439 133.337C431.796 134.072 430.216 135.032 428.772 135.835C427.898 136.321 427.182 136.811 426.543 137.299C425.852 136.979 425.083 136.8 424.272 136.8C423.42 136.8 422.615 136.997 421.898 137.346C421.267 136.876 420.559 136.405 419.703 135.939C418.251 135.15 416.663 134.204 415.013 133.485C412.708 132.481 410.042 133.796 409.445 136.237C409.016 137.989 410.963 139.723 410.945 141.465C410.945 141.465 408.995 145.403 409.497 147.374C409.704 148.189 410.143 148.874 410.721 149.389L427.088 165.756C427.192 165.875 427.305 165.986 427.422 166.09C427.748 166.458 428.137 166.762 428.567 166.988C428.632 167.023 428.698 167.056 428.765 167.086C428.768 167.088 428.771 167.089 428.773 167.09C428.838 167.119 428.903 167.148 428.969 167.174C428.974 167.176 428.979 167.178 428.984 167.179C429.047 167.204 429.111 167.228 429.176 167.25C429.184 167.252 429.192 167.255 429.2 167.257C429.261 167.278 429.324 167.296 429.386 167.314C429.397 167.317 429.408 167.32 429.419 167.322C429.479 167.339 429.539 167.354 429.6 167.367C429.613 167.37 429.627 167.373 429.64 167.376C429.699 167.388 429.758 167.399 429.816 167.409C429.832 167.411 429.848 167.414 429.864 167.416C429.921 167.425 429.978 167.432 430.035 167.439C430.053 167.44 430.072 167.442 430.09 167.444C430.145 167.45 430.2 167.453 430.255 167.456C430.276 167.458 430.296 167.459 430.317 167.46C430.37 167.462 430.423 167.463 430.477 167.463C430.499 167.463 430.522 167.463 430.545 167.462C430.596 167.462 430.648 167.459 430.699 167.456C430.724 167.455 430.749 167.454 430.774 167.452C430.823 167.448 430.872 167.443 430.922 167.437C430.949 167.434 430.975 167.432 431.001 167.428C431.05 167.422 431.098 167.414 431.146 167.405C431.174 167.401 431.202 167.397 431.229 167.391C431.276 167.382 431.324 167.372 431.371 167.361C431.4 167.354 431.428 167.349 431.456 167.342C431.504 167.329 431.551 167.315 431.598 167.301C431.625 167.294 431.654 167.287 431.681 167.278C431.732 167.262 431.782 167.243 431.832 167.225C431.856 167.217 431.881 167.209 431.904 167.201C431.978 167.172 432.052 167.142 432.126 167.109C433.152 166.65 434.154 166.103 435.115 165.561C435.306 165.452 435.497 165.344 435.685 165.237C436.062 165.023 436.432 164.812 436.793 164.611C437.301 164.328 437.756 164.044 438.174 163.76C438.195 163.746 438.214 163.732 438.234 163.718C439.107 164.321 440.166 164.674 441.307 164.674C442.484 164.674 443.572 164.298 444.461 163.661C444.884 163.944 445.346 164.227 445.862 164.507C446.044 164.606 446.227 164.707 446.414 164.811C447.527 165.427 448.712 166.105 449.936 166.682C450.14 166.778 450.346 166.872 450.552 166.961C450.626 166.994 450.7 167.023 450.774 167.051C450.798 167.06 450.821 167.067 450.845 167.075C450.847 167.075 450.849 167.076 450.851 167.077C450.874 167.085 450.897 167.093 450.921 167.1C450.947 167.109 450.972 167.118 450.998 167.126C451.025 167.134 451.053 167.141 451.08 167.149C451.126 167.162 451.172 167.175 451.219 167.186C451.223 167.188 451.226 167.188 451.231 167.19C451.256 167.195 451.282 167.2 451.308 167.206C451.355 167.216 451.403 167.227 451.451 167.236C451.477 167.241 451.503 167.244 451.529 167.248C451.551 167.252 451.572 167.255 451.593 167.259C451.622 167.262 451.651 167.267 451.679 167.27C451.705 167.273 451.731 167.276 451.757 167.278C451.803 167.283 451.849 167.288 451.895 167.291C451.902 167.292 451.909 167.292 451.917 167.292C451.939 167.294 451.96 167.294 451.981 167.295C452.033 167.298 452.084 167.299 452.136 167.3C452.159 167.3 452.181 167.3 452.204 167.299H452.211C452.229 167.299 452.246 167.299 452.264 167.299C452.297 167.298 452.33 167.297 452.364 167.296C452.384 167.294 452.405 167.293 452.425 167.292C452.473 167.289 452.519 167.285 452.567 167.281C452.577 167.28 452.588 167.278 452.598 167.277C452.614 167.276 452.63 167.274 452.645 167.271C452.702 167.265 452.759 167.257 452.816 167.248C452.832 167.245 452.847 167.243 452.863 167.24C452.872 167.238 452.882 167.237 452.891 167.235C452.9 167.234 452.91 167.232 452.92 167.23C452.96 167.223 453 167.214 453.04 167.205C453.053 167.202 453.066 167.199 453.079 167.196C453.127 167.185 453.175 167.174 453.222 167.161C453.233 167.158 453.245 167.155 453.256 167.151C453.258 167.151 453.259 167.15 453.261 167.15C453.272 167.147 453.282 167.144 453.292 167.141C453.355 167.123 453.418 167.104 453.48 167.082C453.487 167.08 453.495 167.077 453.502 167.075C453.566 167.052 453.63 167.028 453.694 167.003C453.699 167.001 453.704 166.999 453.709 166.996C453.757 166.977 453.803 166.957 453.849 166.936C453.857 166.933 453.864 166.929 453.872 166.926C453.883 166.921 453.893 166.916 453.904 166.911C453.907 166.91 453.909 166.909 453.912 166.908C454.092 166.822 454.266 166.724 454.432 166.613C454.436 166.61 454.44 166.608 454.444 166.605C454.625 166.484 454.797 166.347 454.957 166.198C454.958 166.197 454.959 166.196 454.961 166.194C455.51 165.679 455.925 165.005 456.12 164.21C456.603 162.235 454.617 158.314 454.617 158.314C454.582 156.572 456.513 154.82 456.068 153.073C455.859 152.255 455.418 151.567 454.838 151.051L438.136 134.35Z" fill="url(#paint8_linear)"/>
<path d="M403.38 145.201V138.212C403.38 137.31 404.111 136.58 405.013 136.58H485.386C486.288 136.58 487.019 137.31 487.019 138.212V145.201C487.019 146.103 486.288 146.834 485.386 146.834H405.013C404.111 146.834 403.38 146.103 403.38 145.201Z" fill="url(#paint9_linear)"/>
<path d="M432.867 146.834H449.276L439.021 136.58H432.867V146.834Z" fill="url(#paint10_linear)"/>
<path d="M427.771 170.675H420.782C419.88 170.675 419.149 169.944 419.149 169.043V123.598C419.149 122.696 419.88 121.965 420.782 121.965H427.771C428.673 121.965 429.404 122.695 429.404 123.598V169.043C429.404 169.944 428.673 170.675 427.771 170.675Z" fill="url(#paint11_linear)"/>
<path d="M419.149 147.871L429.405 158.126V143.415H419.149V147.871Z" fill="url(#paint12_linear)"/>
<path d="M422.95 138.177C422.052 137.434 421.065 136.679 419.703 135.939C418.251 135.149 416.662 134.203 415.012 133.484C412.708 132.48 410.042 133.795 409.445 136.237C409.016 137.988 410.963 139.722 410.945 141.464C410.945 141.464 408.995 145.403 409.497 147.373C410.117 149.809 412.795 151.099 415.09 150.074C416.733 149.339 418.312 148.379 419.757 147.575C421.112 146.822 422.092 146.058 422.984 145.307C425.2 143.441 425.184 140.021 422.95 138.177Z" fill="url(#paint13_linear)"/>
<path d="M437.584 141.278C437.549 139.536 439.48 137.784 439.035 136.036C438.415 133.601 435.736 132.31 433.442 133.336C431.799 134.07 430.219 135.031 428.775 135.834C427.42 136.588 426.44 137.352 425.548 138.102C423.332 139.969 423.349 143.388 425.581 145.233C426.48 145.975 427.467 146.73 428.829 147.471C430.282 148.261 431.869 149.206 433.52 149.925C435.824 150.929 438.49 149.614 439.087 147.173C439.571 145.198 437.584 141.278 437.584 141.278Z" fill="url(#paint14_linear)"/>
<path d="M422.985 145.308C423.691 144.714 424.169 143.961 424.422 143.153C420.324 143.54 413.926 144.959 411.532 149.953C412.591 150.514 413.893 150.61 415.091 150.074C416.734 149.34 418.313 148.38 419.758 147.577C421.114 146.823 422.093 146.059 422.985 145.308Z" fill="url(#paint15_linear)"/>
<path d="M412.643 141.467C412.65 143.107 412.866 147.618 417.39 148.911C418.21 148.459 419.003 147.996 419.759 147.576C421.114 146.823 422.094 146.058 422.986 145.308C424.228 144.262 424.768 142.728 424.61 141.256C424.61 141.256 422.236 139.988 421.182 139.484C415.487 136.758 412.632 139.16 412.643 141.467Z" fill="url(#paint16_linear)"/>
<path d="M425.581 145.234C424.869 144.646 424.384 143.899 424.123 143.092C428.224 143.441 434.636 144.8 437.076 149.772C436.022 150.342 434.722 150.45 433.519 149.927C431.869 149.207 430.28 148.262 428.829 147.472C427.466 146.731 426.479 145.977 425.581 145.234Z" fill="url(#paint17_linear)"/>
<path d="M435.888 141.297C435.895 142.937 435.723 147.45 431.211 148.785C430.387 148.341 429.59 147.886 428.829 147.472C427.467 146.732 426.48 145.977 425.582 145.234C424.33 144.2 423.775 142.671 423.919 141.198C423.919 141.198 426.281 139.908 427.331 139.394C433 136.615 435.877 138.99 435.888 141.297Z" fill="url(#paint18_linear)"/>
<path d="M438.377 148.662L428.234 138.52C427.759 138.011 427.185 137.595 426.545 137.298C426.194 137.568 425.865 137.836 425.548 138.103C423.332 139.969 423.348 143.389 425.582 145.234C426.48 145.976 427.467 146.731 428.83 147.472C430.282 148.261 431.87 149.207 433.52 149.926C435.295 150.699 437.283 150.096 438.377 148.662Z" fill="url(#paint19_linear)"/>
<path d="M429.688 142.22C429.688 145.213 427.262 147.64 424.269 147.64C421.275 147.64 418.849 145.213 418.849 142.22C418.849 139.227 421.275 136.801 424.269 136.801C427.262 136.801 429.688 139.227 429.688 142.22Z" fill="url(#paint20_linear)"/>
<path d="M431.237 152.346C431.237 152.2 431.323 152.073 431.494 151.967C431.666 151.861 431.85 151.808 432.046 151.808C432.291 151.808 432.441 151.898 432.499 152.077L434.519 159.056L436.527 152.077C436.583 151.898 436.73 151.808 436.965 151.808C437.16 151.808 437.344 151.861 437.519 151.967C437.693 152.072 437.781 152.198 437.781 152.345C437.781 152.369 437.772 152.406 437.756 152.454L435.333 160.389C435.293 160.528 435.195 160.637 435.041 160.715C434.887 160.793 434.713 160.832 434.519 160.832C434.07 160.832 433.797 160.685 433.699 160.391L431.249 152.457C431.242 152.432 431.237 152.396 431.237 152.346Z" fill="url(#paint21_linear)"/>
<path d="M438.673 158.102V154.538C438.673 153.6 438.922 152.91 439.419 152.469C439.917 152.028 440.583 151.808 441.415 151.808C442.248 151.808 442.915 152.028 443.417 152.469C443.919 152.91 444.17 153.6 444.17 154.538V158.102C444.17 159.04 443.919 159.73 443.417 160.17C442.915 160.611 442.248 160.832 441.415 160.832C440.583 160.832 439.917 160.611 439.419 160.17C438.921 159.73 438.673 159.04 438.673 158.102ZM439.97 158.102C439.97 159.154 440.452 159.681 441.415 159.681C441.881 159.681 442.24 159.55 442.493 159.289C442.745 159.028 442.872 158.632 442.872 158.102V154.538C442.872 154.007 442.746 153.612 442.493 153.351C442.24 153.089 441.881 152.959 441.415 152.959C440.452 152.959 439.97 153.485 439.97 154.538V158.102Z" fill="url(#paint22_linear)"/>
<path d="M445.653 158.102V152.225C445.653 152.086 445.716 151.981 445.843 151.913C445.969 151.843 446.122 151.808 446.302 151.808C446.482 151.808 446.635 151.843 446.761 151.913C446.888 151.981 446.951 152.086 446.951 152.225V158.102C446.951 158.633 447.081 159.029 447.343 159.29C447.604 159.551 447.972 159.682 448.445 159.682C449.449 159.682 449.951 159.155 449.951 158.102V152.225C449.951 152.085 450.014 151.981 450.141 151.912C450.268 151.843 450.42 151.808 450.6 151.808C450.779 151.808 450.932 151.843 451.059 151.912C451.186 151.981 451.249 152.085 451.249 152.225V158.102C451.249 159.041 450.994 159.73 450.484 160.171C449.973 160.612 449.294 160.832 448.445 160.832C447.604 160.832 446.929 160.612 446.418 160.171C445.908 159.731 445.653 159.041 445.653 158.102Z" fill="url(#paint23_linear)"/>
<path d="M452.741 158.102V154.538C452.741 153.6 452.992 152.91 453.494 152.469C453.996 152.028 454.651 151.808 455.46 151.808C456.292 151.808 456.964 152.014 457.473 152.426C457.984 152.838 458.239 153.371 458.239 154.023C458.239 154.285 458.19 154.462 458.092 154.556C457.994 154.65 457.826 154.697 457.59 154.697C457.165 154.697 456.949 154.554 456.941 154.268C456.892 153.395 456.414 152.958 455.508 152.958C454.529 152.958 454.039 153.485 454.039 154.538V158.102C454.039 159.154 454.537 159.681 455.533 159.681C455.827 159.681 456.072 159.638 456.267 159.553C456.463 159.467 456.604 159.342 456.69 159.179C456.775 159.016 456.835 158.873 456.867 158.751C456.9 158.628 456.925 158.477 456.941 158.298C456.966 158.012 457.177 157.869 457.577 157.869C457.814 157.869 457.984 157.916 458.086 158.01C458.188 158.104 458.239 158.281 458.239 158.543C458.239 159.22 457.981 159.771 457.468 160.195C456.953 160.62 456.28 160.832 455.447 160.832C454.639 160.832 453.986 160.611 453.488 160.17C452.99 159.73 452.741 159.04 452.741 158.102Z" fill="url(#paint24_linear)"/>
<path d="M459.45 160.33V152.224C459.45 152.085 459.513 151.981 459.64 151.912C459.766 151.843 459.919 151.808 460.099 151.808C460.278 151.808 460.432 151.842 460.558 151.912C460.684 151.981 460.748 152.085 460.748 152.224V155.603H463.797V152.224C463.797 152.085 463.86 151.981 463.987 151.912C464.113 151.843 464.266 151.808 464.446 151.808C464.625 151.808 464.778 151.842 464.905 151.912C465.031 151.981 465.094 152.085 465.094 152.224V160.33C465.094 160.461 465.031 160.565 464.905 160.642C464.778 160.72 464.625 160.759 464.446 160.759C464.274 160.759 464.123 160.72 463.993 160.642C463.862 160.565 463.797 160.461 463.797 160.33V156.632H460.748V160.33C460.748 160.461 460.684 160.565 460.558 160.642C460.432 160.72 460.278 160.759 460.099 160.759C459.928 160.759 459.776 160.72 459.646 160.642C459.515 160.565 459.45 160.461 459.45 160.33Z" fill="url(#paint25_linear)"/>
<path d="M466.713 160.33V152.236C466.713 152.106 466.77 152.002 466.885 151.924C466.999 151.846 467.133 151.808 467.288 151.808H471.647C471.787 151.808 471.892 151.865 471.966 151.979C472.039 152.093 472.076 152.224 472.076 152.371C472.076 152.534 472.037 152.673 471.96 152.787C471.882 152.902 471.778 152.958 471.647 152.958H468.011V155.763H469.896C470.027 155.763 470.131 155.814 470.209 155.915C470.286 156.018 470.325 156.142 470.325 156.289C470.325 156.42 470.288 156.536 470.215 156.638C470.141 156.741 470.036 156.791 469.896 156.791H468.011V159.608H471.647C471.778 159.608 471.882 159.664 471.96 159.779C472.037 159.893 472.076 160.032 472.076 160.195C472.076 160.342 472.039 160.473 471.966 160.587C471.892 160.701 471.787 160.758 471.647 160.758H467.288C467.133 160.758 466.999 160.72 466.885 160.642C466.77 160.565 466.713 160.461 466.713 160.33Z" fill="url(#paint26_linear)"/>
<path d="M473.116 160.33V152.224C473.116 152.11 473.156 152.012 473.239 151.93C473.32 151.849 473.423 151.808 473.544 151.808H475.871C477.748 151.808 478.687 152.641 478.687 154.305C478.687 154.997 478.532 155.539 478.222 155.933C477.912 156.328 477.491 156.59 476.961 156.72L478.675 159.948C478.707 160.005 478.724 160.066 478.724 160.132C478.724 160.295 478.64 160.447 478.473 160.586C478.305 160.726 478.128 160.795 477.94 160.795C477.728 160.795 477.557 160.668 477.426 160.415L475.638 156.901H474.401V160.329C474.401 160.459 474.338 160.564 474.212 160.642C474.086 160.72 473.932 160.759 473.752 160.759C473.581 160.759 473.432 160.72 473.306 160.642C473.179 160.565 473.116 160.461 473.116 160.33ZM474.402 155.873H475.871C476.883 155.873 477.39 155.388 477.39 154.416C477.39 153.445 476.883 152.958 475.871 152.958H474.402V155.873Z" fill="url(#paint27_linear)"/>
<path d="M582.679 73.9963C582.898 73.9963 583.076 73.8186 583.076 73.5993V71.7476C583.076 71.3716 582.771 71.0667 582.395 71.0667L564.954 71.0654C564.578 71.0654 564.273 71.3703 564.273 71.7463V73.5979C564.273 73.8172 564.451 73.995 564.67 73.9952C564.889 73.9952 565.067 74.173 565.067 74.3923V78.0414C565.067 78.2607 564.889 78.4385 564.67 78.4385C564.45 78.4385 564.273 78.6163 564.273 78.8356L564.272 80.6873C564.272 81.0633 564.577 81.3681 564.953 81.3682L582.395 81.3694C582.771 81.3694 583.076 81.0646 583.076 80.6886V78.8369C583.076 78.6176 582.898 78.4398 582.679 78.4398C582.459 78.4398 582.282 78.262 582.282 78.0425V74.3934C582.282 74.1741 582.46 73.9963 582.679 73.9963Z" fill="url(#paint28_linear)"/>
<path d="M564.273 78.9658L564.272 80.6881C564.272 81.0641 564.577 81.3689 564.953 81.369L582.395 81.3702C582.771 81.3702 583.075 81.0654 583.075 80.6894L583.076 78.966H564.273V78.9658Z" fill="url(#paint29_linear)"/>
<path d="M565.038 76.3328L566.288 77.583V76.3328H565.038Z" fill="url(#paint30_linear)"/>
<path d="M570.117 71.1038L571.471 72.4574H570.117V71.1038Z" fill="url(#paint31_linear)"/>
<path d="M581.162 80.11H566.357C566.11 80.11 565.91 79.9102 565.91 79.6635V72.7721C565.91 72.5254 566.11 72.3254 566.357 72.3254H581.162C581.408 72.3254 581.608 72.5254 581.608 72.7721V79.6635C581.608 79.9101 581.408 80.11 581.162 80.11Z" fill="url(#paint32_linear)"/>
<path d="M572.084 73.5242C571.829 73.2379 571.405 73.1273 571.027 73.2962C570.657 73.4617 570.301 73.6778 569.976 73.8585C569.78 73.9678 569.618 74.0781 569.475 74.188C569.319 74.116 569.146 74.0757 568.963 74.0757C568.772 74.0757 568.591 74.1199 568.429 74.1986C568.287 74.0928 568.128 73.9868 567.935 73.8819C567.608 73.7043 567.251 73.4914 566.879 73.3296C566.361 73.1035 565.761 73.3995 565.626 73.949C565.53 74.3432 565.968 74.7335 565.964 75.1255C565.964 75.1255 565.525 76.012 565.638 76.4556C565.685 76.639 565.783 76.7933 565.913 76.909L569.597 80.5928C569.621 80.6195 569.646 80.6445 569.672 80.668C569.746 80.7509 569.833 80.8191 569.93 80.8701C569.945 80.878 569.96 80.8853 569.975 80.8922C569.975 80.8925 569.976 80.8928 569.976 80.8929C569.991 80.8997 570.006 80.906 570.021 80.9119C570.022 80.9123 570.023 80.9127 570.024 80.9132C570.038 80.9188 570.053 80.9241 570.067 80.929C570.069 80.9296 570.071 80.9301 570.073 80.9307C570.086 80.9353 570.1 80.9395 570.114 80.9435C570.117 80.9441 570.119 80.9448 570.122 80.9453C570.135 80.9491 570.149 80.9524 570.163 80.9554C570.166 80.9561 570.169 80.9567 570.172 80.9574C570.185 80.9601 570.198 80.9626 570.211 80.9647C570.215 80.9653 570.218 80.9659 570.222 80.9665C570.235 80.9685 570.248 80.9701 570.261 80.9715C570.265 80.9719 570.269 80.9723 570.273 80.9728C570.285 80.9741 570.298 80.9748 570.31 80.9755C570.315 80.9758 570.319 80.9761 570.324 80.9762C570.336 80.9768 570.348 80.9769 570.36 80.9769C570.365 80.9769 570.37 80.9769 570.375 80.9768C570.387 80.9767 570.398 80.9761 570.41 80.9755C570.416 80.9751 570.421 80.9749 570.427 80.9745C570.438 80.9736 570.449 80.9725 570.46 80.9712C570.466 80.9705 570.472 80.9699 570.478 80.9692C570.489 80.9678 570.5 80.9659 570.511 80.964C570.517 80.963 570.523 80.9622 570.529 80.9609C570.54 80.9588 570.551 80.9564 570.561 80.954C570.568 80.9525 570.574 80.9512 570.58 80.9497C570.591 80.9469 570.602 80.9438 570.612 80.9406C570.618 80.9389 570.625 80.9373 570.631 80.9353C570.642 80.9317 570.654 80.9275 570.665 80.9235C570.67 80.9217 570.676 80.9199 570.681 80.9179C570.698 80.9116 570.715 80.9047 570.731 80.8974C570.962 80.7941 571.188 80.6709 571.404 80.5488C571.447 80.5244 571.49 80.5001 571.532 80.476C571.617 80.4277 571.7 80.3803 571.781 80.3351C571.896 80.2715 571.998 80.2076 572.092 80.1437C572.097 80.1405 572.101 80.1373 572.106 80.1342C572.302 80.2698 572.541 80.3493 572.797 80.3493C573.062 80.3493 573.307 80.2646 573.507 80.1213C573.603 80.185 573.707 80.2486 573.823 80.3117C573.864 80.334 573.905 80.3568 573.947 80.3801C574.197 80.5188 574.464 80.6713 574.74 80.8012C574.786 80.8228 574.832 80.844 574.878 80.8641C574.895 80.8714 574.912 80.878 574.928 80.8842C574.934 80.8862 574.939 80.8878 574.944 80.8896C574.945 80.8898 574.945 80.8899 574.945 80.8901C574.951 80.8919 574.956 80.8936 574.961 80.8954C574.967 80.8972 574.973 80.8994 574.979 80.9011C574.985 80.903 574.991 80.9046 574.997 80.9063C575.008 80.9092 575.018 80.9122 575.028 80.9148C575.029 80.915 575.03 80.9152 575.031 80.9155C575.037 80.9168 575.043 80.9178 575.048 80.9191C575.059 80.9215 575.07 80.9238 575.081 80.9258C575.087 80.927 575.092 80.9277 575.098 80.9287C575.103 80.9294 575.108 80.9303 575.113 80.931C575.119 80.9318 575.126 80.9329 575.132 80.9336C575.138 80.9343 575.144 80.9349 575.15 80.9354C575.16 80.9364 575.17 80.9376 575.18 80.9383C575.182 80.9385 575.184 80.9386 575.185 80.9386C575.19 80.9389 575.195 80.939 575.2 80.9392C575.212 80.9397 575.223 80.9402 575.235 80.9403C575.24 80.9403 575.245 80.9403 575.25 80.9402H575.252C575.256 80.9402 575.26 80.9402 575.264 80.94C575.271 80.9399 575.279 80.9396 575.286 80.9393C575.291 80.939 575.295 80.9387 575.3 80.9385C575.311 80.9377 575.321 80.937 575.332 80.936C575.334 80.9357 575.336 80.9354 575.339 80.9352C575.342 80.9349 575.346 80.9344 575.349 80.9339C575.362 80.9324 575.375 80.9307 575.388 80.9285C575.391 80.928 575.395 80.9274 575.398 80.9268C575.4 80.9264 575.403 80.9261 575.405 80.9257C575.407 80.9254 575.409 80.925 575.411 80.9245C575.42 80.9229 575.429 80.9209 575.438 80.9189C575.441 80.9183 575.444 80.9176 575.447 80.9169C575.458 80.9145 575.469 80.9119 575.479 80.909C575.482 80.9083 575.484 80.9076 575.487 80.9069C575.487 80.9067 575.488 80.9066 575.488 80.9066C575.49 80.9059 575.493 80.9051 575.495 80.9046C575.509 80.9005 575.523 80.8961 575.537 80.8913C575.539 80.8908 575.541 80.8902 575.542 80.8896C575.557 80.8846 575.571 80.8791 575.585 80.8734C575.587 80.873 575.588 80.8725 575.589 80.872C575.6 80.8677 575.61 80.8632 575.62 80.8585C575.622 80.8576 575.624 80.8569 575.626 80.8562C575.628 80.855 575.63 80.8539 575.633 80.8527C575.633 80.8524 575.634 80.8523 575.634 80.852C575.675 80.8328 575.714 80.8106 575.752 80.7856C575.752 80.7851 575.753 80.7845 575.754 80.7839C575.795 80.7566 575.834 80.7259 575.87 80.6923C575.87 80.692 575.87 80.6917 575.871 80.6914C575.994 80.5755 576.088 80.4237 576.131 80.2448C576.24 79.8003 575.793 78.9179 575.793 78.9179C575.785 78.5258 576.22 78.1315 576.12 77.7383C576.073 77.554 575.973 77.3992 575.843 77.2832L572.084 73.5242Z" fill="url(#paint33_linear)"/>
<path d="M564.262 75.9668V74.3937C564.262 74.1908 564.426 74.0264 564.629 74.0264H582.719C582.922 74.0264 583.086 74.1908 583.086 74.3937V75.9668C583.086 76.1698 582.922 76.3344 582.719 76.3344H564.629C564.426 76.3344 564.262 76.1698 564.262 75.9668Z" fill="url(#paint34_linear)"/>
<path d="M570.899 76.3344H574.592L572.284 74.0264H570.899V76.3344Z" fill="url(#paint35_linear)"/>
<path d="M569.752 81.6996H568.179C567.976 81.6996 567.812 81.535 567.812 81.3321V71.1039C567.812 70.9009 567.976 70.7363 568.179 70.7363H569.752C569.955 70.7363 570.12 70.9008 570.12 71.1039V81.3321C570.12 81.535 569.955 81.6996 569.752 81.6996Z" fill="url(#paint36_linear)"/>
<path d="M567.812 76.5669L570.12 78.875V75.564H567.812V76.5669Z" fill="url(#paint37_linear)"/>
<path d="M568.666 74.3847C568.464 74.2175 568.242 74.0476 567.935 73.881C567.608 73.7032 567.251 73.4904 566.879 73.3285C566.361 73.1026 565.761 73.3986 565.626 73.9481C565.53 74.3423 565.968 74.7326 565.964 75.1246C565.964 75.1246 565.525 76.0111 565.638 76.4546C565.778 77.0028 566.38 77.2932 566.897 77.0624C567.267 76.8971 567.622 76.6809 567.947 76.5001C568.252 76.3305 568.473 76.1586 568.674 75.9895C569.172 75.5696 569.169 74.7999 568.666 74.3847Z" fill="url(#paint38_linear)"/>
<path d="M571.96 75.0826C571.953 74.6905 572.387 74.2962 572.287 73.9029C572.147 73.3547 571.545 73.0643 571.028 73.2951C570.658 73.4604 570.303 73.6766 569.978 73.8574C569.673 74.027 569.452 74.1989 569.252 74.3678C568.753 74.7879 568.757 75.5576 569.259 75.9728C569.461 76.1398 569.684 76.3097 569.99 76.4765C570.317 76.6543 570.674 76.867 571.046 77.0288C571.564 77.2549 572.164 76.9589 572.299 76.4094C572.408 75.9649 571.96 75.0826 571.96 75.0826Z" fill="url(#paint39_linear)"/>
<path d="M568.674 75.99C568.833 75.8562 568.941 75.6869 568.998 75.5049C568.075 75.5919 566.635 75.9113 566.097 77.0355C566.335 77.1615 566.628 77.1832 566.898 77.0627C567.267 76.8974 567.623 76.6813 567.948 76.5006C568.253 76.331 568.474 76.1589 568.674 75.99Z" fill="url(#paint40_linear)"/>
<path d="M566.347 75.126C566.348 75.4951 566.397 76.5104 567.415 76.8015C567.6 76.6998 567.778 76.5955 567.948 76.5009C568.253 76.3314 568.474 76.1593 568.675 75.9904C568.954 75.7551 569.076 75.4098 569.04 75.0786C569.04 75.0786 568.506 74.7932 568.269 74.6798C566.987 74.0662 566.344 74.6067 566.347 75.126Z" fill="url(#paint41_linear)"/>
<path d="M569.258 75.9738C569.098 75.8414 568.988 75.6732 568.93 75.4917C569.853 75.5701 571.296 75.876 571.845 76.9951C571.608 77.1234 571.315 77.1478 571.044 77.0299C570.673 76.868 570.315 76.6552 569.989 76.4775C569.682 76.3108 569.46 76.1409 569.258 75.9738Z" fill="url(#paint42_linear)"/>
<path d="M571.579 75.0874C571.58 75.4565 571.542 76.4722 570.526 76.7728C570.341 76.6728 570.161 76.5702 569.99 76.4772C569.684 76.3106 569.461 76.1407 569.259 75.9735C568.977 75.7408 568.853 75.3967 568.885 75.0651C568.885 75.0651 569.417 74.7748 569.653 74.6591C570.929 74.0336 571.576 74.5682 571.579 75.0874Z" fill="url(#paint43_linear)"/>
<path d="M572.139 76.7446L569.856 74.462C569.749 74.3474 569.62 74.2538 569.476 74.187C569.397 74.2476 569.323 74.3081 569.252 74.3681C568.753 74.7881 568.757 75.5577 569.259 75.9731C569.461 76.1401 569.684 76.31 569.99 76.4768C570.317 76.6544 570.674 76.8673 571.046 77.0291C571.445 77.2032 571.893 77.0673 572.139 76.7446Z" fill="url(#paint44_linear)"/>
<path d="M570.182 75.2947C570.182 75.9683 569.636 76.5145 568.962 76.5145C568.288 76.5145 567.742 75.9683 567.742 75.2947C567.742 74.621 568.288 74.075 568.962 74.075C569.636 74.075 570.182 74.621 570.182 75.2947Z" fill="url(#paint45_linear)"/>
<path d="M570.531 77.5743C570.531 77.5413 570.551 77.5129 570.589 77.4889C570.628 77.465 570.669 77.4531 570.713 77.4531C570.768 77.4531 570.802 77.4734 570.815 77.5137L571.27 79.0845L571.722 77.5137C571.735 77.4734 571.767 77.4531 571.82 77.4531C571.864 77.4531 571.906 77.465 571.945 77.4889C571.984 77.5126 572.004 77.541 572.004 77.5739C572.004 77.5794 572.002 77.5877 571.998 77.5986L571.453 79.3845C571.444 79.4158 571.422 79.4404 571.387 79.4579C571.353 79.4755 571.314 79.4842 571.27 79.4842C571.169 79.4842 571.107 79.451 571.085 79.385L570.534 77.5992C570.532 77.5936 570.531 77.5854 570.531 77.5743Z" fill="url(#paint46_linear)"/>
<path d="M572.206 78.8697V78.0677C572.206 77.8564 572.262 77.7012 572.374 77.6019C572.486 77.5027 572.636 77.4531 572.823 77.4531C573.011 77.4531 573.161 77.5027 573.274 77.6019C573.387 77.7012 573.443 77.8564 573.443 78.0677V78.8697C573.443 79.0809 573.387 79.2362 573.274 79.3353C573.161 79.4345 573.011 79.4842 572.823 79.4842C572.636 79.4842 572.486 79.4345 572.374 79.3353C572.262 79.2362 572.206 79.0809 572.206 78.8697ZM572.498 78.8697C572.498 79.1066 572.606 79.2251 572.823 79.2251C572.928 79.2251 573.009 79.1957 573.066 79.1369C573.123 79.0782 573.151 78.989 573.151 78.8697V78.0677C573.151 77.9482 573.123 77.8591 573.066 77.8004C573.009 77.7415 572.928 77.7122 572.823 77.7122C572.606 77.7122 572.498 77.8307 572.498 78.0677V78.8697Z" fill="url(#paint47_linear)"/>
<path d="M573.777 78.8698V77.5469C573.777 77.5157 573.792 77.4922 573.82 77.4767C573.848 77.461 573.883 77.4533 573.923 77.4533C573.964 77.4533 573.998 77.461 574.027 77.4767C574.055 77.4922 574.069 77.5157 574.069 77.5469V78.8698C574.069 78.9892 574.099 79.0783 574.158 79.1371C574.216 79.1958 574.299 79.2253 574.406 79.2253C574.632 79.2253 574.745 79.1068 574.745 78.8697V77.5469C574.745 77.5156 574.759 77.4922 574.787 77.4765C574.816 77.461 574.85 77.4531 574.891 77.4531C574.931 77.4531 574.966 77.461 574.994 77.4765C575.023 77.4922 575.037 77.5156 575.037 77.5469V78.8697C575.037 79.0811 574.979 79.2362 574.865 79.3354C574.75 79.4347 574.597 79.4842 574.406 79.4842C574.216 79.4842 574.064 79.4347 573.95 79.3354C573.835 79.2363 573.777 79.0811 573.777 78.8698Z" fill="url(#paint48_linear)"/>
<path d="M575.37 78.8697V78.0677C575.37 77.8564 575.427 77.7012 575.54 77.6019C575.653 77.5027 575.8 77.4531 575.982 77.4531C576.169 77.4531 576.32 77.4995 576.435 77.5922C576.55 77.6851 576.607 77.8049 576.607 77.9518C576.607 78.0107 576.596 78.0506 576.574 78.0717C576.552 78.0928 576.515 78.1034 576.461 78.1034C576.366 78.1034 576.317 78.0713 576.315 78.0069C576.304 77.8105 576.197 77.7121 575.993 77.7121C575.772 77.7121 575.662 77.8306 575.662 78.0677V78.8697C575.662 79.1066 575.774 79.2251 575.998 79.2251C576.065 79.2251 576.12 79.2155 576.164 79.1963C576.208 79.1769 576.24 79.1489 576.259 79.1121C576.278 79.0755 576.291 79.0433 576.299 79.0157C576.306 78.9881 576.312 78.9541 576.315 78.9138C576.321 78.8494 576.369 78.8172 576.459 78.8172C576.512 78.8172 576.55 78.8279 576.573 78.849C576.596 78.8701 576.607 78.91 576.607 78.9689C576.607 79.1214 576.55 79.2454 576.434 79.3409C576.318 79.4364 576.166 79.4842 575.979 79.4842C575.797 79.4842 575.65 79.4345 575.538 79.3353C575.426 79.2362 575.37 79.0809 575.37 78.8697Z" fill="url(#paint49_linear)"/>
<path d="M576.882 79.3712V77.5468C576.882 77.5156 576.896 77.4922 576.924 77.4765C576.953 77.461 576.987 77.4531 577.028 77.4531C577.068 77.4531 577.103 77.4609 577.131 77.4765C577.16 77.4922 577.174 77.5156 577.174 77.5468V78.3074H577.86V77.5468C577.86 77.5156 577.874 77.4922 577.903 77.4765C577.931 77.461 577.966 77.4531 578.006 77.4531C578.047 77.4531 578.081 77.4609 578.11 77.4765C578.138 77.4922 578.152 77.5156 578.152 77.5468V79.3712C578.152 79.4006 578.138 79.424 578.11 79.4414C578.081 79.4589 578.047 79.4677 578.006 79.4677C577.968 79.4677 577.934 79.4589 577.904 79.4414C577.875 79.424 577.86 79.4006 577.86 79.3712V78.5389H577.174V79.3712C577.174 79.4006 577.16 79.424 577.131 79.4414C577.103 79.4589 577.068 79.4677 577.028 79.4677C576.989 79.4677 576.955 79.4589 576.926 79.4414C576.896 79.424 576.882 79.4006 576.882 79.3712Z" fill="url(#paint50_linear)"/>
<path d="M578.517 79.3712V77.5495C578.517 77.5202 578.53 77.4968 578.555 77.4793C578.581 77.4617 578.611 77.4531 578.646 77.4531H579.627C579.659 77.4531 579.682 77.4659 579.699 77.4916C579.715 77.5173 579.724 77.5468 579.724 77.5798C579.724 77.6166 579.715 77.6479 579.698 77.6736C579.68 77.6993 579.657 77.7121 579.627 77.7121H578.809V78.3433H579.233C579.263 78.3433 579.286 78.3548 579.304 78.3776C579.321 78.4007 579.33 78.4286 579.33 78.4618C579.33 78.4911 579.321 78.5174 579.305 78.5403C579.288 78.5633 579.264 78.5747 579.233 78.5747H578.809V79.2086H579.627C579.657 79.2086 579.68 79.2214 579.698 79.2471C579.715 79.2729 579.724 79.3041 579.724 79.3409C579.724 79.3739 579.715 79.4034 579.699 79.4291C579.682 79.4548 579.659 79.4676 579.627 79.4676H578.646C578.611 79.4676 578.581 79.4589 578.555 79.4414C578.53 79.424 578.517 79.4006 578.517 79.3712Z" fill="url(#paint51_linear)"/>
<path d="M579.957 79.3712V77.5468C579.957 77.5211 579.966 77.4991 579.985 77.4807C580.003 77.4623 580.026 77.4531 580.053 77.4531H580.577C581 77.4531 581.211 77.6406 581.211 78.0153C581.211 78.1708 581.176 78.2929 581.106 78.3816C581.036 78.4704 580.942 78.5294 580.822 78.5587L581.208 79.2852C581.215 79.2981 581.219 79.3119 581.219 79.3267C581.219 79.3634 581.2 79.3975 581.163 79.4289C581.125 79.4602 581.085 79.4759 581.043 79.4759C580.995 79.4759 580.956 79.4473 580.927 79.3903L580.525 78.5995H580.246V79.3709C580.246 79.4003 580.232 79.4239 580.204 79.4414C580.175 79.4589 580.141 79.4677 580.1 79.4677C580.062 79.4677 580.028 79.4589 580 79.4414C579.971 79.424 579.957 79.4006 579.957 79.3712ZM580.246 78.368H580.577C580.805 78.368 580.919 78.2588 580.919 78.0401C580.919 77.8215 580.805 77.7121 580.577 77.7121H580.246V78.368Z" fill="url(#paint52_linear)"/>
</g>
<defs>
<linearGradient id="paint0_linear" x1="526.222" y1="-225.697" x2="1252.37" y2="787.207" gradientUnits="userSpaceOnUse">
<stop offset="0.104167" stop-color="#99FDD9"/>
<stop offset="1" stop-color="#1E62A2"/>
</linearGradient>
<linearGradient id="paint1_linear" x1="468.2" y1="-345.185" x2="495.506" y2="512.21" gradientUnits="userSpaceOnUse">
<stop stop-color="#FD749B"/>
<stop offset="1" stop-color="#281AC8"/>
</linearGradient>
<linearGradient id="paint2_linear" x1="459.668" y1="20.8639" x2="468.173" y2="405.237" gradientUnits="userSpaceOnUse">
<stop stop-color="#FD749B"/>
<stop offset="1" stop-color="#281AC8"/>
</linearGradient>
<linearGradient id="paint3_linear" x1="423.536" y1="124.653" x2="480.081" y2="181.198" gradientUnits="userSpaceOnUse">
<stop stop-color="#FFD459"/>
<stop offset="0.2296" stop-color="#FFD355"/>
<stop offset="0.4362" stop-color="#FFCF4A"/>
<stop offset="0.634" stop-color="#FFC838"/>
<stop offset="0.825" stop-color="#FFBF1F"/>
<stop offset="1" stop-color="#FFB400"/>
</linearGradient>
<linearGradient id="paint4_linear" x1="445.202" y1="163.249" x2="445.202" y2="171.644" gradientUnits="userSpaceOnUse">
<stop stop-color="#E58200" stop-opacity="0"/>
<stop offset="0.0396" stop-color="#E27F04" stop-opacity="0.039216"/>
<stop offset="0.4671" stop-color="#C15D2F" stop-opacity="0.466667"/>
<stop offset="0.8016" stop-color="#AD4949" stop-opacity="0.8"/>
<stop offset="1" stop-color="#A64153"/>
</linearGradient>
<linearGradient id="paint5_linear" x1="411.16" y1="150.383" x2="408.949" y2="145.33" gradientUnits="userSpaceOnUse">
<stop stop-color="#E58200" stop-opacity="0"/>
<stop offset="0.0396" stop-color="#E27F04" stop-opacity="0.039216"/>
<stop offset="0.4671" stop-color="#C15D2F" stop-opacity="0.466667"/>
<stop offset="0.8016" stop-color="#AD4949" stop-opacity="0.8"/>
<stop offset="1" stop-color="#A64153"/>
</linearGradient>
<linearGradient id="paint6_linear" x1="433.585" y1="129.563" x2="420.766" y2="120.504" gradientUnits="userSpaceOnUse">
<stop stop-color="#E58200" stop-opacity="0"/>
<stop offset="0.0396" stop-color="#E27F04" stop-opacity="0.039216"/>
<stop offset="0.4671" stop-color="#C15D2F" stop-opacity="0.466667"/>
<stop offset="0.8016" stop-color="#AD4949" stop-opacity="0.8"/>
<stop offset="1" stop-color="#A64153"/>
</linearGradient>
<linearGradient id="paint7_linear" x1="428.008" y1="128.747" x2="473.864" y2="174.609" gradientUnits="userSpaceOnUse">
<stop stop-color="#FFFCF8"/>
<stop offset="0.1875" stop-color="#FAF8F6"/>
<stop offset="0.4041" stop-color="#ECEEF2"/>
<stop offset="0.6353" stop-color="#D5DCEA"/>
<stop offset="0.875" stop-color="#B5C4DF"/>
<stop offset="1" stop-color="#A1B5D8"/>
</linearGradient>
<linearGradient id="paint8_linear" x1="436.246" y1="158.142" x2="421.889" y2="125.325" gradientUnits="userSpaceOnUse">
<stop stop-color="#A1B5D8" stop-opacity="0"/>
<stop offset="0.0343" stop-color="#9FB3D5" stop-opacity="0.035294"/>
<stop offset="0.4515" stop-color="#8898AF" stop-opacity="0.45098"/>
<stop offset="0.788" stop-color="#798898" stop-opacity="0.788235"/>
<stop offset="1" stop-color="#748290"/>
</linearGradient>
<linearGradient id="paint9_linear" x1="445.2" y1="139.655" x2="445.2" y2="150.765" gradientUnits="userSpaceOnUse">
<stop stop-color="#FF6E3A"/>
<stop offset="0.1596" stop-color="#FF6440"/>
<stop offset="0.4266" stop-color="#FF4B52"/>
<stop offset="0.7662" stop-color="#FF216E"/>
<stop offset="1" stop-color="#FF0084"/>
</linearGradient>
<linearGradient id="paint10_linear" x1="442.781" y1="148.543" x2="430.759" y2="136.522" gradientUnits="userSpaceOnUse">
<stop stop-color="#E58200" stop-opacity="0"/>
<stop offset="0.4384" stop-color="#C4602C" stop-opacity="0.439216"/>
<stop offset="0.7953" stop-color="#AE4948" stop-opacity="0.796078"/>
<stop offset="1" stop-color="#A64153"/>
</linearGradient>
<linearGradient id="paint11_linear" x1="424.276" y1="143.494" x2="424.276" y2="181.773" gradientUnits="userSpaceOnUse">
<stop stop-color="#FF6E3A"/>
<stop offset="0.1596" stop-color="#FF6440"/>
<stop offset="0.4266" stop-color="#FF4B52"/>
<stop offset="0.7662" stop-color="#FF216E"/>
<stop offset="1" stop-color="#FF0084"/>
</linearGradient>
<linearGradient id="paint12_linear" x1="430.842" y1="152.208" x2="419.585" y2="140.951" gradientUnits="userSpaceOnUse">
<stop stop-color="#E58200" stop-opacity="0"/>
<stop offset="0.4384" stop-color="#C4602C" stop-opacity="0.439216"/>
<stop offset="0.7953" stop-color="#AE4948" stop-opacity="0.796078"/>
<stop offset="1" stop-color="#A64153"/>
</linearGradient>
<linearGradient id="paint13_linear" x1="419.018" y1="151.638" x2="414.447" y2="134.359" gradientUnits="userSpaceOnUse">
<stop stop-color="#FF0084"/>
<stop offset="0.2338" stop-color="#FF216E"/>
<stop offset="0.5734" stop-color="#FF4B52"/>
<stop offset="0.8404" stop-color="#FF6440"/>
<stop offset="1" stop-color="#FF6E3A"/>
</linearGradient>
<linearGradient id="paint14_linear" x1="430.91" y1="152.458" x2="432.47" y2="131.277" gradientUnits="userSpaceOnUse">
<stop stop-color="#FF0084"/>
<stop offset="0.2338" stop-color="#FF216E"/>
<stop offset="0.5734" stop-color="#FF4B52"/>
<stop offset="0.8404" stop-color="#FF6440"/>
<stop offset="1" stop-color="#FF6E3A"/>
</linearGradient>
<linearGradient id="paint15_linear" x1="418.063" y1="148.571" x2="417.741" y2="142.016" gradientUnits="userSpaceOnUse">
<stop stop-color="#E58200" stop-opacity="0"/>
<stop offset="0.4384" stop-color="#C4602C" stop-opacity="0.439216"/>
<stop offset="0.7953" stop-color="#AE4948" stop-opacity="0.796078"/>
<stop offset="1" stop-color="#A64153"/>
</linearGradient>
<linearGradient id="paint16_linear" x1="416.527" y1="143.705" x2="427.495" y2="134.846" gradientUnits="userSpaceOnUse">
<stop stop-color="#E58200" stop-opacity="0"/>
<stop offset="0.4384" stop-color="#C4602C" stop-opacity="0.439216"/>
<stop offset="0.7953" stop-color="#AE4948" stop-opacity="0.796078"/>
<stop offset="1" stop-color="#A64153"/>
</linearGradient>
<linearGradient id="paint17_linear" x1="430.502" y1="148.45" x2="430.763" y2="141.891" gradientUnits="userSpaceOnUse">
<stop stop-color="#E58200" stop-opacity="0"/>
<stop offset="0.4384" stop-color="#C4602C" stop-opacity="0.439216"/>
<stop offset="0.7953" stop-color="#AE4948" stop-opacity="0.796078"/>
<stop offset="1" stop-color="#A64153"/>
</linearGradient>
<linearGradient id="paint18_linear" x1="431.994" y1="143.571" x2="420.943" y2="134.815" gradientUnits="userSpaceOnUse">
<stop stop-color="#E58200" stop-opacity="0"/>
<stop offset="0.4384" stop-color="#C4602C" stop-opacity="0.439216"/>
<stop offset="0.7953" stop-color="#AE4948" stop-opacity="0.796078"/>
<stop offset="1" stop-color="#A64153"/>
</linearGradient>
<linearGradient id="paint19_linear" x1="433.076" y1="148.058" x2="424.633" y2="139.615" gradientUnits="userSpaceOnUse">
<stop stop-color="#E58200" stop-opacity="0"/>
<stop offset="0.4384" stop-color="#C4602C" stop-opacity="0.439216"/>
<stop offset="0.7953" stop-color="#AE4948" stop-opacity="0.796078"/>
<stop offset="1" stop-color="#A64153"/>
</linearGradient>
<linearGradient id="paint20_linear" x1="421.135" y1="139.086" x2="428.898" y2="146.849" gradientUnits="userSpaceOnUse">
<stop stop-color="#FF6E3A"/>
<stop offset="0.1596" stop-color="#FF6440"/>
<stop offset="0.4266" stop-color="#FF4B52"/>
<stop offset="0.7662" stop-color="#FF216E"/>
<stop offset="1" stop-color="#FF0084"/>
</linearGradient>
<linearGradient id="paint21_linear" x1="434.509" y1="154.485" x2="434.509" y2="162.825" gradientUnits="userSpaceOnUse">
<stop stop-color="#45425A"/>
<stop offset="1" stop-color="#2D3251"/>
</linearGradient>
<linearGradient id="paint22_linear" x1="441.421" y1="154.485" x2="441.421" y2="162.825" gradientUnits="userSpaceOnUse">
<stop stop-color="#45425A"/>
<stop offset="1" stop-color="#2D3251"/>
</linearGradient>
<linearGradient id="paint23_linear" x1="448.451" y1="154.485" x2="448.451" y2="162.826" gradientUnits="userSpaceOnUse">
<stop stop-color="#45425A"/>
<stop offset="1" stop-color="#2D3251"/>
</linearGradient>
<linearGradient id="paint24_linear" x1="455.49" y1="154.485" x2="455.49" y2="162.825" gradientUnits="userSpaceOnUse">
<stop stop-color="#45425A"/>
<stop offset="1" stop-color="#2D3251"/>
</linearGradient>
<linearGradient id="paint25_linear" x1="462.272" y1="154.485" x2="462.272" y2="162.825" gradientUnits="userSpaceOnUse">
<stop stop-color="#45425A"/>
<stop offset="1" stop-color="#2D3251"/>
</linearGradient>
<linearGradient id="paint26_linear" x1="469.395" y1="154.485" x2="469.395" y2="162.825" gradientUnits="userSpaceOnUse">
<stop stop-color="#45425A"/>
<stop offset="1" stop-color="#2D3251"/>
</linearGradient>
<linearGradient id="paint27_linear" x1="475.92" y1="154.485" x2="475.92" y2="162.825" gradientUnits="userSpaceOnUse">
<stop stop-color="#45425A"/>
<stop offset="1" stop-color="#2D3251"/>
</linearGradient>
<linearGradient id="paint28_linear" x1="568.798" y1="71.3409" x2="581.524" y2="84.0675" gradientUnits="userSpaceOnUse">
<stop stop-color="#FFD459"/>
<stop offset="0.2296" stop-color="#FFD355"/>
<stop offset="0.4362" stop-color="#FFCF4A"/>
<stop offset="0.634" stop-color="#FFC838"/>
<stop offset="0.825" stop-color="#FFBF1F"/>
<stop offset="1" stop-color="#FFB400"/>
</linearGradient>
<linearGradient id="paint29_linear" x1="573.674" y1="80.0285" x2="573.674" y2="81.918" gradientUnits="userSpaceOnUse">
<stop stop-color="#E58200" stop-opacity="0"/>
<stop offset="0.0396" stop-color="#E27F04" stop-opacity="0.039216"/>
<stop offset="0.4671" stop-color="#C15D2F" stop-opacity="0.466667"/>
<stop offset="0.8016" stop-color="#AD4949" stop-opacity="0.8"/>
<stop offset="1" stop-color="#A64153"/>
</linearGradient>
<linearGradient id="paint30_linear" x1="566.013" y1="77.1319" x2="565.515" y2="75.9946" gradientUnits="userSpaceOnUse">
<stop stop-color="#E58200" stop-opacity="0"/>
<stop offset="0.0396" stop-color="#E27F04" stop-opacity="0.039216"/>
<stop offset="0.4671" stop-color="#C15D2F" stop-opacity="0.466667"/>
<stop offset="0.8016" stop-color="#AD4949" stop-opacity="0.8"/>
<stop offset="1" stop-color="#A64153"/>
</linearGradient>
<linearGradient id="paint31_linear" x1="571.059" y1="72.4462" x2="568.174" y2="70.4074" gradientUnits="userSpaceOnUse">
<stop stop-color="#E58200" stop-opacity="0"/>
<stop offset="0.0396" stop-color="#E27F04" stop-opacity="0.039216"/>
<stop offset="0.4671" stop-color="#C15D2F" stop-opacity="0.466667"/>
<stop offset="0.8016" stop-color="#AD4949" stop-opacity="0.8"/>
<stop offset="1" stop-color="#A64153"/>
</linearGradient>
<linearGradient id="paint32_linear" x1="569.804" y1="72.2625" x2="580.125" y2="82.5848" gradientUnits="userSpaceOnUse">
<stop stop-color="#FFFCF8"/>
<stop offset="0.1875" stop-color="#FAF8F6"/>
<stop offset="0.4041" stop-color="#ECEEF2"/>
<stop offset="0.6353" stop-color="#D5DCEA"/>
<stop offset="0.875" stop-color="#B5C4DF"/>
<stop offset="1" stop-color="#A1B5D8"/>
</linearGradient>
<linearGradient id="paint33_linear" x1="571.658" y1="78.879" x2="568.427" y2="71.4929" gradientUnits="userSpaceOnUse">
<stop stop-color="#A1B5D8" stop-opacity="0"/>
<stop offset="0.0343" stop-color="#9FB3D5" stop-opacity="0.035294"/>
<stop offset="0.4515" stop-color="#8898AF" stop-opacity="0.45098"/>
<stop offset="0.788" stop-color="#798898" stop-opacity="0.788235"/>
<stop offset="1" stop-color="#748290"/>
</linearGradient>
<linearGradient id="paint34_linear" x1="573.674" y1="74.7186" x2="573.674" y2="77.2192" gradientUnits="userSpaceOnUse">
<stop stop-color="#FF6E3A"/>
<stop offset="0.1596" stop-color="#FF6440"/>
<stop offset="0.4266" stop-color="#FF4B52"/>
<stop offset="0.7662" stop-color="#FF216E"/>
<stop offset="1" stop-color="#FF0084"/>
</linearGradient>
<linearGradient id="paint35_linear" x1="573.131" y1="76.719" x2="570.425" y2="74.0133" gradientUnits="userSpaceOnUse">
<stop stop-color="#E58200" stop-opacity="0"/>
<stop offset="0.4384" stop-color="#C4602C" stop-opacity="0.439216"/>
<stop offset="0.7953" stop-color="#AE4948" stop-opacity="0.796078"/>
<stop offset="1" stop-color="#A64153"/>
</linearGradient>
<linearGradient id="paint36_linear" x1="568.965" y1="75.5818" x2="568.965" y2="84.1974" gradientUnits="userSpaceOnUse">
<stop stop-color="#FF6E3A"/>
<stop offset="0.1596" stop-color="#FF6440"/>
<stop offset="0.4266" stop-color="#FF4B52"/>
<stop offset="0.7662" stop-color="#FF216E"/>
<stop offset="1" stop-color="#FF0084"/>
</linearGradient>
<linearGradient id="paint37_linear" x1="570.443" y1="77.5429" x2="567.91" y2="75.0095" gradientUnits="userSpaceOnUse">
<stop stop-color="#E58200" stop-opacity="0"/>
<stop offset="0.4384" stop-color="#C4602C" stop-opacity="0.439216"/>
<stop offset="0.7953" stop-color="#AE4948" stop-opacity="0.796078"/>
<stop offset="1" stop-color="#A64153"/>
</linearGradient>
<linearGradient id="paint38_linear" x1="567.781" y1="77.4145" x2="566.752" y2="73.5256" gradientUnits="userSpaceOnUse">
<stop stop-color="#FF0084"/>
<stop offset="0.2338" stop-color="#FF216E"/>
<stop offset="0.5734" stop-color="#FF4B52"/>
<stop offset="0.8404" stop-color="#FF6440"/>
<stop offset="1" stop-color="#FF6E3A"/>
</linearGradient>
<linearGradient id="paint39_linear" x1="570.458" y1="77.5989" x2="570.81" y2="72.8318" gradientUnits="userSpaceOnUse">
<stop stop-color="#FF0084"/>
<stop offset="0.2338" stop-color="#FF216E"/>
<stop offset="0.5734" stop-color="#FF4B52"/>
<stop offset="0.8404" stop-color="#FF6440"/>
<stop offset="1" stop-color="#FF6E3A"/>
</linearGradient>
<linearGradient id="paint40_linear" x1="567.567" y1="76.7243" x2="567.494" y2="75.2489" gradientUnits="userSpaceOnUse">
<stop stop-color="#E58200" stop-opacity="0"/>
<stop offset="0.4384" stop-color="#C4602C" stop-opacity="0.439216"/>
<stop offset="0.7953" stop-color="#AE4948" stop-opacity="0.796078"/>
<stop offset="1" stop-color="#A64153"/>
</linearGradient>
<linearGradient id="paint41_linear" x1="567.221" y1="75.6298" x2="569.69" y2="73.6358" gradientUnits="userSpaceOnUse">
<stop stop-color="#E58200" stop-opacity="0"/>
<stop offset="0.4384" stop-color="#C4602C" stop-opacity="0.439216"/>
<stop offset="0.7953" stop-color="#AE4948" stop-opacity="0.796078"/>
<stop offset="1" stop-color="#A64153"/>
</linearGradient>
<linearGradient id="paint42_linear" x1="570.366" y1="76.6975" x2="570.424" y2="75.2213" gradientUnits="userSpaceOnUse">
<stop stop-color="#E58200" stop-opacity="0"/>
<stop offset="0.4384" stop-color="#C4602C" stop-opacity="0.439216"/>
<stop offset="0.7953" stop-color="#AE4948" stop-opacity="0.796078"/>
<stop offset="1" stop-color="#A64153"/>
</linearGradient>
<linearGradient id="paint43_linear" x1="570.702" y1="75.5991" x2="568.215" y2="73.6284" gradientUnits="userSpaceOnUse">
<stop stop-color="#E58200" stop-opacity="0"/>
<stop offset="0.4384" stop-color="#C4602C" stop-opacity="0.439216"/>
<stop offset="0.7953" stop-color="#AE4948" stop-opacity="0.796078"/>
<stop offset="1" stop-color="#A64153"/>
</linearGradient>
<linearGradient id="paint44_linear" x1="570.946" y1="76.6087" x2="569.046" y2="74.7084" gradientUnits="userSpaceOnUse">
<stop stop-color="#E58200" stop-opacity="0"/>
<stop offset="0.4384" stop-color="#C4602C" stop-opacity="0.439216"/>
<stop offset="0.7953" stop-color="#AE4948" stop-opacity="0.796078"/>
<stop offset="1" stop-color="#A64153"/>
</linearGradient>
<linearGradient id="paint45_linear" x1="568.257" y1="74.5894" x2="570.004" y2="76.3365" gradientUnits="userSpaceOnUse">
<stop stop-color="#FF6E3A"/>
<stop offset="0.1596" stop-color="#FF6440"/>
<stop offset="0.4266" stop-color="#FF4B52"/>
<stop offset="0.7662" stop-color="#FF216E"/>
<stop offset="1" stop-color="#FF0084"/>
</linearGradient>
<linearGradient id="paint46_linear" x1="571.268" y1="78.0556" x2="571.268" y2="79.9327" gradientUnits="userSpaceOnUse">
<stop stop-color="#45425A"/>
<stop offset="1" stop-color="#2D3251"/>
</linearGradient>
<linearGradient id="paint47_linear" x1="572.825" y1="78.0556" x2="572.825" y2="79.9327" gradientUnits="userSpaceOnUse">
<stop stop-color="#45425A"/>
<stop offset="1" stop-color="#2D3251"/>
</linearGradient>
<linearGradient id="paint48_linear" x1="574.407" y1="78.0557" x2="574.407" y2="79.9329" gradientUnits="userSpaceOnUse">
<stop stop-color="#45425A"/>
<stop offset="1" stop-color="#2D3251"/>
</linearGradient>
<linearGradient id="paint49_linear" x1="575.989" y1="78.0556" x2="575.989" y2="79.9327" gradientUnits="userSpaceOnUse">
<stop stop-color="#45425A"/>
<stop offset="1" stop-color="#2D3251"/>
</linearGradient>
<linearGradient id="paint50_linear" x1="577.517" y1="78.0556" x2="577.517" y2="79.9327" gradientUnits="userSpaceOnUse">
<stop stop-color="#45425A"/>
<stop offset="1" stop-color="#2D3251"/>
</linearGradient>
<linearGradient id="paint51_linear" x1="579.12" y1="78.0556" x2="579.12" y2="79.9327" gradientUnits="userSpaceOnUse">
<stop stop-color="#45425A"/>
<stop offset="1" stop-color="#2D3251"/>
</linearGradient>
<linearGradient id="paint52_linear" x1="580.588" y1="78.0556" x2="580.588" y2="79.9327" gradientUnits="userSpaceOnUse">
<stop stop-color="#45425A"/>
<stop offset="1" stop-color="#2D3251"/>
</linearGradient>
</defs>
</svg>
