<svg width="888" height="931" viewBox="0 0 888 931" fill="none" xmlns="http://www.w3.org/2000/svg">
<mask id="mask0" mask-type="alpha" maskUnits="userSpaceOnUse" x="0" y="0" width="888" height="931">
<path d="M858 0H30C13.4315 0 0 13.4315 0 30V901C0 917.569 13.4315 931 30 931H858C874.569 931 888 917.569 888 901V30C888 13.4315 874.569 0 858 0Z" fill="white"/>
</mask>
<g mask="url(#mask0)">
<path d="M444 215C577.653 215 686 106.653 686 -27C686 -160.653 577.653 -269 444 -269C310.347 -269 202 -160.653 202 -27C202 106.653 310.347 215 444 215Z" fill="url(#paint0_linear)"/>
<path d="M585.123 55H303C294.716 55 288 61.7157 288 70V256.865C288 265.149 294.716 271.865 303 271.865H585.123C593.407 271.865 600.123 265.149 600.123 256.865V70C600.123 61.7157 593.407 55 585.123 55Z" fill="black"/>
<path fill-rule="evenodd" clip-rule="evenodd" d="M443.465 179.88C461.57 179.88 476.246 165.203 476.246 147.099C476.246 128.994 461.57 114.317 443.465 114.317C425.36 114.317 410.684 128.994 410.684 147.099C410.684 149.311 410.903 151.472 411.321 153.562L430.426 154.118C431.67 151.75 433.803 149.852 436.535 148.949L436.739 139.723C436.719 139.668 436.698 139.614 436.677 139.56C436.636 139.452 436.595 139.344 436.561 139.232C434.623 132.899 438.208 126.188 444.566 124.243C450.924 122.299 457.65 125.855 459.587 132.188C461.122 137.205 459.185 142.449 455.159 145.383L449.438 154.343C449.683 154.844 449.903 155.361 450.071 155.91C451.788 161.522 448.612 167.47 442.98 169.193C438.121 170.679 433.027 168.534 430.614 164.318L415.294 163.872C421.015 173.459 431.49 179.88 443.465 179.88ZM450.002 142.16C453.53 141.081 455.519 137.355 454.443 133.84C453.368 130.325 449.636 128.35 446.108 129.43C442.577 130.51 440.589 134.234 441.664 137.749C442.74 141.265 446.47 143.241 450.002 142.16ZM450.769 144.656C445.831 146.166 440.608 143.403 439.104 138.484C437.598 133.563 440.382 128.351 445.32 126.84C450.257 125.33 455.483 128.092 456.988 133.013C458.493 137.932 455.708 143.145 450.769 144.656ZM436.478 153.604C440.237 152.455 444.214 154.559 445.36 158.304C446.505 162.048 444.386 166.018 440.627 167.167C437.566 168.103 434.361 166.883 432.658 164.376L437.182 164.508C439.987 165.057 442.715 163.237 443.271 160.435C443.829 157.638 442.007 154.923 439.2 154.372L435.003 154.25C435.461 153.988 435.95 153.766 436.478 153.604Z" fill="white"/>
<path fill-rule="evenodd" clip-rule="evenodd" d="M577.783 77.918C581.27 77.918 584.097 75.0911 584.097 71.6039C584.097 68.1167 581.27 65.2898 577.783 65.2898C574.296 65.2898 571.469 68.1167 571.469 71.6039C571.469 72.0301 571.511 72.4464 571.591 72.8489L575.27 72.956C575.51 72.4999 575.921 72.1343 576.447 71.9604L576.486 70.1832C576.482 70.1727 576.478 70.1623 576.474 70.1518C576.466 70.131 576.458 70.1102 576.452 70.0887C576.079 68.8689 576.769 67.5764 577.994 67.2017C579.218 66.8272 580.514 67.5122 580.887 68.732C581.183 69.6983 580.809 70.7083 580.034 71.2735L578.932 72.9993C578.979 73.0957 579.022 73.1954 579.054 73.301C579.385 74.382 578.773 75.5277 577.688 75.8595C576.752 76.1458 575.771 75.7327 575.306 74.9206L572.357 74.8347C573.459 76.6812 575.476 77.918 577.783 77.918ZM579.041 70.6528C579.72 70.4449 580.103 69.7273 579.896 69.0502C579.689 68.3732 578.97 67.9928 578.291 68.2007C577.611 68.4087 577.228 69.1261 577.435 69.8032C577.642 70.4802 578.36 70.8609 579.041 70.6528ZM579.189 71.1334C578.237 71.4243 577.231 70.8921 576.942 69.9447C576.652 68.9968 577.188 67.9929 578.139 67.7019C579.09 67.411 580.096 67.943 580.386 68.8909C580.676 69.8384 580.14 70.8424 579.189 71.1334ZM576.436 72.857C577.16 72.6355 577.926 73.041 578.147 73.7622C578.367 74.4834 577.959 75.248 577.235 75.4693C576.645 75.6496 576.028 75.4146 575.7 74.9318L576.571 74.9573C577.112 75.063 577.637 74.7124 577.744 74.1727C577.852 73.6339 577.501 73.111 576.96 73.0049L576.152 72.9814C576.24 72.9308 576.334 72.8881 576.436 72.857Z" fill="white"/>
<path d="M375.603 226.211C381.606 226.211 384.518 223.232 384.518 219.746C384.518 212.089 372.301 214.741 372.301 210.898C372.301 209.587 373.412 208.514 376.294 208.514C378.154 208.514 380.165 209.05 382.116 210.153L383.617 206.488C381.666 205.267 378.965 204.641 376.324 204.641C370.351 204.641 367.469 207.591 367.469 211.136C367.469 218.882 379.685 216.201 379.685 220.104C379.685 221.385 378.515 222.338 375.633 222.338C373.112 222.338 370.471 221.444 368.7 220.163L367.049 223.798C368.91 225.228 372.271 226.211 375.603 226.211Z" fill="white"/>
<path d="M398.465 225.854H403.328V208.931H410.051V204.999H391.742V208.931H398.465V225.854Z" fill="white"/>
<path d="M424.066 221.981V217.154H433.821V213.4H424.066V208.872H435.111V204.999H419.233V225.854H435.501V221.981H424.066Z" fill="white"/>
<path d="M461.634 225.854H466.737L457.342 204.999H452.54L443.175 225.854H448.157L450.018 221.385H459.773L461.634 225.854ZM451.579 217.72L454.911 209.736L458.242 217.72H451.579Z" fill="white"/>
<path d="M499.164 225.854L499.104 204.999H495.112L487.368 217.958L479.504 204.999H475.482V225.854H480.045V213.609L486.198 223.649H488.389L494.572 213.341L494.602 225.854H499.164Z" fill="white"/>
<path d="M517.222 214.036C519.355 214.036 521.084 212.307 521.084 210.174C521.084 208.041 519.355 206.312 517.222 206.312C515.089 206.312 513.36 208.041 513.36 210.174C513.36 212.307 515.089 214.036 517.222 214.036Z" stroke="white" stroke-width="0.7"/>
<path d="M517.236 210.569H516.265V212.242H515.717V208.106H517.086C517.552 208.106 517.909 208.212 518.159 208.424C518.411 208.636 518.537 208.945 518.537 209.35C518.537 209.608 518.467 209.832 518.327 210.023C518.189 210.215 517.996 210.358 517.748 210.452L518.719 212.207V212.242H518.134L517.236 210.569ZM516.265 210.123H517.103C517.374 210.123 517.589 210.053 517.748 209.913C517.909 209.772 517.989 209.585 517.989 209.35C517.989 209.095 517.912 208.899 517.759 208.762C517.607 208.626 517.388 208.557 517.1 208.555H516.265V210.123Z" fill="white"/>
</g>
<defs>
<linearGradient id="paint0_linear" x1="468.2" y1="-345.185" x2="495.506" y2="512.21" gradientUnits="userSpaceOnUse">
<stop stop-color="#FD749B"/>
<stop offset="1" stop-color="#281AC8"/>
</linearGradient>
</defs>
</svg>
