<svg width="888" height="784" viewBox="0 0 888 784" fill="none" xmlns="http://www.w3.org/2000/svg">
<rect width="888" height="784" fill="white"/>
<mask id="mask0" mask-type="alpha" maskUnits="userSpaceOnUse" x="0" y="0" width="888" height="784">
<path d="M858 0H30C13.4315 0 0 13.4315 0 30V754C0 770.569 13.4315 784 30 784H858C874.569 784 888 770.569 888 754V30C888 13.4315 874.569 0 858 0Z" fill="white"/>
</mask>
<g mask="url(#mask0)">
<path d="M444 215C577.653 215 686 106.653 686 -27C686 -160.653 577.653 -269 444 -269C310.347 -269 202 -160.653 202 -27C202 106.653 310.347 215 444 215Z" fill="url(#paint0_radial)"/>
<path d="M583 55H305C296.716 55 290 61.7157 290 70V254C290 262.284 296.716 269 305 269H583C591.284 269 598 262.284 598 254V70C598 61.7157 591.284 55 583 55Z" fill="url(#paint1_radial)"/>
<path d="M444.232 122.785C431.962 122.775 422.01 132.713 422 144.982C421.99 157.252 431.928 167.204 444.197 167.214C456.465 167.204 466.41 157.267 466.429 145C466.429 132.737 456.494 122.795 444.232 122.785ZM444.197 163.517C433.97 163.517 425.68 155.226 425.68 145C425.68 134.773 433.97 126.482 444.197 126.482C454.421 126.492 462.705 134.776 462.715 145C462.715 155.226 454.424 163.517 444.197 163.517Z" fill="white"/>
<path d="M450.197 143.917C451.682 143.079 452.485 141.403 452.208 139.721C451.864 137.125 448.77 136.145 446.328 135.939V132.036H443.921V135.904H442.305V132.036H439.898V135.904H435.049V138.397H436.854C437.662 138.397 438.058 138.638 438.058 139.291V150.003C438.058 150.897 437.611 151.172 437.129 151.172H435.29V153.717H439.966V157.672H442.391V153.717H444.007V157.672H446.362V153.717H446.878C451.83 153.717 453.481 151.293 453.481 147.992C453.441 146.045 452.091 144.37 450.197 143.917ZM442.305 138.552H444.024C445.228 138.552 447.6 138.758 447.6 140.719C447.683 141.998 446.756 143.119 445.485 143.28H442.305V138.552ZM444.97 150.932V150.914H442.305V145.756H445.4C446.122 145.756 448.838 145.997 448.838 147.923C448.838 149.848 447.549 150.932 444.97 150.932Z" fill="white"/>
<path d="M424.816 203.256C425.221 203.32 425.589 203.485 425.92 203.752C426.261 204.019 426.528 204.349 426.72 204.744C426.923 205.139 427.024 205.56 427.024 206.008C427.024 206.573 426.88 207.085 426.592 207.544C426.304 207.992 425.883 208.349 425.328 208.616C424.784 208.872 424.139 209 423.392 209H419.232V197.848H423.232C423.989 197.848 424.635 197.976 425.168 198.232C425.701 198.477 426.101 198.813 426.368 199.24C426.635 199.667 426.768 200.147 426.768 200.68C426.768 201.341 426.587 201.891 426.224 202.328C425.872 202.755 425.403 203.064 424.816 203.256ZM420.688 202.664H423.136C423.819 202.664 424.347 202.504 424.72 202.184C425.093 201.864 425.28 201.421 425.28 200.856C425.28 200.291 425.093 199.848 424.72 199.528C424.347 199.208 423.808 199.048 423.104 199.048H420.688V202.664ZM423.264 207.8C423.989 207.8 424.555 207.629 424.96 207.288C425.365 206.947 425.568 206.472 425.568 205.864C425.568 205.245 425.355 204.76 424.928 204.408C424.501 204.045 423.931 203.864 423.216 203.864H420.688V207.8H423.264ZM429.797 198.808C429.519 198.808 429.285 198.712 429.093 198.52C428.901 198.328 428.805 198.093 428.805 197.816C428.805 197.539 428.901 197.304 429.093 197.112C429.285 196.92 429.519 196.824 429.797 196.824C430.063 196.824 430.287 196.92 430.469 197.112C430.661 197.304 430.757 197.539 430.757 197.816C430.757 198.093 430.661 198.328 430.469 198.52C430.287 198.712 430.063 198.808 429.797 198.808ZM430.501 200.232V209H429.045V200.232H430.501ZM434.758 201.432V206.6C434.758 207.027 434.849 207.331 435.03 207.512C435.211 207.683 435.526 207.768 435.974 207.768H437.046V209H435.734C434.923 209 434.315 208.813 433.91 208.44C433.505 208.067 433.302 207.453 433.302 206.6V201.432H432.166V200.232H433.302V198.024H434.758V200.232H437.046V201.432H434.758ZM438.266 204.6C438.266 203.693 438.447 202.904 438.81 202.232C439.173 201.549 439.674 201.021 440.314 200.648C440.965 200.275 441.706 200.088 442.538 200.088C443.615 200.088 444.501 200.349 445.194 200.872C445.898 201.395 446.362 202.12 446.586 203.048H445.018C444.869 202.515 444.575 202.093 444.138 201.784C443.711 201.475 443.178 201.32 442.538 201.32C441.706 201.32 441.034 201.608 440.522 202.184C440.01 202.749 439.754 203.555 439.754 204.6C439.754 205.656 440.01 206.472 440.522 207.048C441.034 207.624 441.706 207.912 442.538 207.912C443.178 207.912 443.711 207.763 444.138 207.464C444.565 207.165 444.858 206.739 445.018 206.184H446.586C446.351 207.08 445.882 207.8 445.178 208.344C444.474 208.877 443.594 209.144 442.538 209.144C441.706 209.144 440.965 208.957 440.314 208.584C439.674 208.211 439.173 207.683 438.81 207C438.447 206.317 438.266 205.517 438.266 204.6ZM452.353 209.144C451.532 209.144 450.785 208.957 450.113 208.584C449.452 208.211 448.929 207.683 448.545 207C448.172 206.307 447.985 205.507 447.985 204.6C447.985 203.704 448.177 202.915 448.561 202.232C448.956 201.539 449.489 201.011 450.161 200.648C450.833 200.275 451.585 200.088 452.417 200.088C453.249 200.088 454.001 200.275 454.673 200.648C455.345 201.011 455.873 201.533 456.257 202.216C456.652 202.899 456.849 203.693 456.849 204.6C456.849 205.507 456.646 206.307 456.241 207C455.846 207.683 455.308 208.211 454.625 208.584C453.942 208.957 453.185 209.144 452.353 209.144ZM452.353 207.864C452.876 207.864 453.366 207.741 453.825 207.496C454.284 207.251 454.652 206.883 454.929 206.392C455.217 205.901 455.361 205.304 455.361 204.6C455.361 203.896 455.222 203.299 454.945 202.808C454.668 202.317 454.305 201.955 453.857 201.72C453.409 201.475 452.924 201.352 452.401 201.352C451.868 201.352 451.377 201.475 450.929 201.72C450.492 201.955 450.14 202.317 449.873 202.808C449.606 203.299 449.473 203.896 449.473 204.6C449.473 205.315 449.601 205.917 449.857 206.408C450.124 206.899 450.476 207.267 450.913 207.512C451.35 207.747 451.83 207.864 452.353 207.864ZM459.515 198.808C459.238 198.808 459.003 198.712 458.811 198.52C458.619 198.328 458.523 198.093 458.523 197.816C458.523 197.539 458.619 197.304 458.811 197.112C459.003 196.92 459.238 196.824 459.515 196.824C459.782 196.824 460.006 196.92 460.187 197.112C460.379 197.304 460.475 197.539 460.475 197.816C460.475 198.093 460.379 198.328 460.187 198.52C460.006 198.712 459.782 198.808 459.515 198.808ZM460.219 200.232V209H458.763V200.232H460.219ZM466.973 200.072C468.039 200.072 468.903 200.397 469.565 201.048C470.226 201.688 470.557 202.616 470.557 203.832V209H469.117V204.04C469.117 203.165 468.898 202.499 468.461 202.04C468.023 201.571 467.426 201.336 466.669 201.336C465.901 201.336 465.287 201.576 464.829 202.056C464.381 202.536 464.157 203.235 464.157 204.152V209H462.701V200.232H464.157V201.48C464.445 201.032 464.834 200.685 465.325 200.44C465.826 200.195 466.375 200.072 466.973 200.072Z" fill="white"/>
<path d="M420.428 690.336C420.428 690.905 420.298 691.428 420.036 691.904C419.775 692.371 419.374 692.749 418.832 693.038C418.291 693.327 417.619 693.472 416.816 693.472H415.332V697H412.938V687.172H416.816C417.6 687.172 418.263 687.307 418.804 687.578C419.346 687.849 419.752 688.222 420.022 688.698C420.293 689.174 420.428 689.72 420.428 690.336ZM416.634 691.568C417.092 691.568 417.432 691.461 417.656 691.246C417.88 691.031 417.992 690.728 417.992 690.336C417.992 689.944 417.88 689.641 417.656 689.426C417.432 689.211 417.092 689.104 416.634 689.104H415.332V691.568H416.634ZM426.687 697L424.643 693.29H424.069V697H421.675V687.172H425.693C426.467 687.172 427.125 687.307 427.667 687.578C428.217 687.849 428.628 688.222 428.899 688.698C429.169 689.165 429.305 689.687 429.305 690.266C429.305 690.919 429.118 691.503 428.745 692.016C428.381 692.529 427.839 692.893 427.121 693.108L429.389 697H426.687ZM424.069 691.596H425.553C425.991 691.596 426.318 691.489 426.533 691.274C426.757 691.059 426.869 690.756 426.869 690.364C426.869 689.991 426.757 689.697 426.533 689.482C426.318 689.267 425.991 689.16 425.553 689.16H424.069V691.596ZM435.455 697.098C434.531 697.098 433.682 696.883 432.907 696.454C432.142 696.025 431.531 695.427 431.073 694.662C430.625 693.887 430.401 693.019 430.401 692.058C430.401 691.097 430.625 690.233 431.073 689.468C431.531 688.703 432.142 688.105 432.907 687.676C433.682 687.247 434.531 687.032 435.455 687.032C436.379 687.032 437.224 687.247 437.989 687.676C438.764 688.105 439.371 688.703 439.809 689.468C440.257 690.233 440.481 691.097 440.481 692.058C440.481 693.019 440.257 693.887 439.809 694.662C439.361 695.427 438.755 696.025 437.989 696.454C437.224 696.883 436.379 697.098 435.455 697.098ZM435.455 694.914C436.239 694.914 436.865 694.653 437.331 694.13C437.807 693.607 438.045 692.917 438.045 692.058C438.045 691.19 437.807 690.499 437.331 689.986C436.865 689.463 436.239 689.202 435.455 689.202C434.662 689.202 434.027 689.459 433.551 689.972C433.085 690.485 432.851 691.181 432.851 692.058C432.851 692.926 433.085 693.621 433.551 694.144C434.027 694.657 434.662 694.914 435.455 694.914ZM441.407 692.072C441.407 691.101 441.617 690.238 442.037 689.482C442.457 688.717 443.041 688.124 443.787 687.704C444.543 687.275 445.397 687.06 446.349 687.06C447.516 687.06 448.515 687.368 449.345 687.984C450.176 688.6 450.731 689.44 451.011 690.504H448.379C448.183 690.093 447.903 689.781 447.539 689.566C447.185 689.351 446.779 689.244 446.321 689.244C445.584 689.244 444.987 689.501 444.529 690.014C444.072 690.527 443.843 691.213 443.843 692.072C443.843 692.931 444.072 693.617 444.529 694.13C444.987 694.643 445.584 694.9 446.321 694.9C446.779 694.9 447.185 694.793 447.539 694.578C447.903 694.363 448.183 694.051 448.379 693.64H451.011C450.731 694.704 450.176 695.544 449.345 696.16C448.515 696.767 447.516 697.07 446.349 697.07C445.397 697.07 444.543 696.86 443.787 696.44C443.041 696.011 442.457 695.418 442.037 694.662C441.617 693.906 441.407 693.043 441.407 692.072ZM454.871 689.09V691.078H458.077V692.926H454.871V695.082H458.497V697H452.477V687.172H458.497V689.09H454.871ZM462.446 689.09V691.078H465.652V692.926H462.446V695.082H466.072V697H460.052V687.172H466.072V689.09H462.446ZM471.308 687.172C472.344 687.172 473.249 687.377 474.024 687.788C474.798 688.199 475.396 688.777 475.816 689.524C476.245 690.261 476.46 691.115 476.46 692.086C476.46 693.047 476.245 693.901 475.816 694.648C475.396 695.395 474.794 695.973 474.01 696.384C473.235 696.795 472.334 697 471.308 697H467.626V687.172H471.308ZM471.154 694.928C472.059 694.928 472.764 694.681 473.268 694.186C473.772 693.691 474.024 692.991 474.024 692.086C474.024 691.181 473.772 690.476 473.268 689.972C472.764 689.468 472.059 689.216 471.154 689.216H470.02V694.928H471.154Z" fill="white"/>
</g>
<defs>
<radialGradient id="paint0_radial" cx="0" cy="0" r="1" gradientUnits="userSpaceOnUse" gradientTransform="translate(428.807 -269) rotate(90) scale(484)">
<stop stop-color="#FF8000"/>
<stop offset="1" stop-color="#E34141"/>
</radialGradient>
<radialGradient id="paint1_radial" cx="0" cy="0" r="1" gradientUnits="userSpaceOnUse" gradientTransform="translate(434.332 55) rotate(90) scale(214 308)">
<stop stop-color="#FF8000"/>
<stop offset="1" stop-color="#E34141"/>
</radialGradient>
</defs>
</svg>
