<svg width="888" height="784" viewBox="0 0 888 784" fill="none" xmlns="http://www.w3.org/2000/svg">
<mask id="mask0" mask-type="alpha" maskUnits="userSpaceOnUse" x="0" y="0" width="888" height="784">
<path d="M858 0H30C13.4315 0 0 13.4315 0 30V754C0 770.569 13.4315 784 30 784H858C874.569 784 888 770.569 888 754V30C888 13.4315 874.569 0 858 0Z" fill="white"/>
</mask>
<g mask="url(#mask0)">
<path d="M444 215C577.653 215 686 106.653 686 -27C686 -160.653 577.653 -269 444 -269C310.347 -269 202 -160.653 202 -27C202 106.653 310.347 215 444 215Z" fill="url(#paint0_linear)"/>
<path d="M420.428 690.336C420.428 690.905 420.298 691.428 420.036 691.904C419.775 692.371 419.374 692.749 418.832 693.038C418.291 693.327 417.619 693.472 416.816 693.472H415.332V697H412.938V687.172H416.816C417.6 687.172 418.263 687.307 418.804 687.578C419.346 687.849 419.752 688.222 420.022 688.698C420.293 689.174 420.428 689.72 420.428 690.336ZM416.634 691.568C417.092 691.568 417.432 691.461 417.656 691.246C417.88 691.031 417.992 690.728 417.992 690.336C417.992 689.944 417.88 689.641 417.656 689.426C417.432 689.211 417.092 689.104 416.634 689.104H415.332V691.568H416.634ZM426.687 697L424.643 693.29H424.069V697H421.675V687.172H425.693C426.467 687.172 427.125 687.307 427.667 687.578C428.217 687.849 428.628 688.222 428.899 688.698C429.169 689.165 429.305 689.687 429.305 690.266C429.305 690.919 429.118 691.503 428.745 692.016C428.381 692.529 427.839 692.893 427.121 693.108L429.389 697H426.687ZM424.069 691.596H425.553C425.991 691.596 426.318 691.489 426.533 691.274C426.757 691.059 426.869 690.756 426.869 690.364C426.869 689.991 426.757 689.697 426.533 689.482C426.318 689.267 425.991 689.16 425.553 689.16H424.069V691.596ZM435.455 697.098C434.531 697.098 433.682 696.883 432.907 696.454C432.142 696.025 431.531 695.427 431.073 694.662C430.625 693.887 430.401 693.019 430.401 692.058C430.401 691.097 430.625 690.233 431.073 689.468C431.531 688.703 432.142 688.105 432.907 687.676C433.682 687.247 434.531 687.032 435.455 687.032C436.379 687.032 437.224 687.247 437.989 687.676C438.764 688.105 439.371 688.703 439.809 689.468C440.257 690.233 440.481 691.097 440.481 692.058C440.481 693.019 440.257 693.887 439.809 694.662C439.361 695.427 438.755 696.025 437.989 696.454C437.224 696.883 436.379 697.098 435.455 697.098ZM435.455 694.914C436.239 694.914 436.865 694.653 437.331 694.13C437.807 693.607 438.045 692.917 438.045 692.058C438.045 691.19 437.807 690.499 437.331 689.986C436.865 689.463 436.239 689.202 435.455 689.202C434.662 689.202 434.027 689.459 433.551 689.972C433.085 690.485 432.851 691.181 432.851 692.058C432.851 692.926 433.085 693.621 433.551 694.144C434.027 694.657 434.662 694.914 435.455 694.914ZM441.407 692.072C441.407 691.101 441.617 690.238 442.037 689.482C442.457 688.717 443.041 688.124 443.787 687.704C444.543 687.275 445.397 687.06 446.349 687.06C447.516 687.06 448.515 687.368 449.345 687.984C450.176 688.6 450.731 689.44 451.011 690.504H448.379C448.183 690.093 447.903 689.781 447.539 689.566C447.185 689.351 446.779 689.244 446.321 689.244C445.584 689.244 444.987 689.501 444.529 690.014C444.072 690.527 443.843 691.213 443.843 692.072C443.843 692.931 444.072 693.617 444.529 694.13C444.987 694.643 445.584 694.9 446.321 694.9C446.779 694.9 447.185 694.793 447.539 694.578C447.903 694.363 448.183 694.051 448.379 693.64H451.011C450.731 694.704 450.176 695.544 449.345 696.16C448.515 696.767 447.516 697.07 446.349 697.07C445.397 697.07 444.543 696.86 443.787 696.44C443.041 696.011 442.457 695.418 442.037 694.662C441.617 693.906 441.407 693.043 441.407 692.072ZM454.871 689.09V691.078H458.077V692.926H454.871V695.082H458.497V697H452.477V687.172H458.497V689.09H454.871ZM462.446 689.09V691.078H465.652V692.926H462.446V695.082H466.072V697H460.052V687.172H466.072V689.09H462.446ZM471.308 687.172C472.344 687.172 473.249 687.377 474.024 687.788C474.798 688.199 475.396 688.777 475.816 689.524C476.245 690.261 476.46 691.115 476.46 692.086C476.46 693.047 476.245 693.901 475.816 694.648C475.396 695.395 474.794 695.973 474.01 696.384C473.235 696.795 472.334 697 471.308 697H467.626V687.172H471.308ZM471.154 694.928C472.059 694.928 472.764 694.681 473.268 694.186C473.772 693.691 474.024 692.991 474.024 692.086C474.024 691.181 473.772 690.476 473.268 689.972C472.764 689.468 472.059 689.216 471.154 689.216H470.02V694.928H471.154Z" fill="white"/>
<path d="M583 55H305C296.716 55 290 61.7157 290 70V254C290 262.284 296.716 269 305 269H583C591.284 269 598 262.284 598 254V70C598 61.7157 591.284 55 583 55Z" fill="url(#paint1_linear)"/>
<path d="M444.173 151.733L432 145.942L444.173 167.215L456.346 145.942L444.173 151.733Z" fill="white"/>
<path d="M455.021 141.626L444.173 122.786L433.313 141.648L444.173 136.497L455.021 141.626Z" fill="white"/>
<path d="M434.255 144.093L444.173 148.791L454.108 144.085L444.173 139.387L434.255 144.093Z" fill="white"/>
<path d="M407.688 203.032V206.76H411.752V207.96H407.688V211.8H412.232V213H406.232V201.832H412.232V203.032H407.688ZM416.211 205.432V210.6C416.211 211.027 416.302 211.331 416.483 211.512C416.664 211.683 416.979 211.768 417.427 211.768H418.499V213H417.187C416.376 213 415.768 212.813 415.363 212.44C414.958 212.067 414.755 211.453 414.755 210.6V205.432H413.619V204.232H414.755V202.024H416.211V204.232H418.499V205.432H416.211ZM424.615 204.072C425.277 204.072 425.874 204.216 426.407 204.504C426.941 204.781 427.357 205.203 427.655 205.768C427.965 206.333 428.119 207.021 428.119 207.832V213H426.679V208.04C426.679 207.165 426.461 206.499 426.023 206.04C425.586 205.571 424.989 205.336 424.231 205.336C423.463 205.336 422.85 205.576 422.391 206.056C421.943 206.536 421.719 207.235 421.719 208.152V213H420.263V201.16H421.719V205.48C422.007 205.032 422.402 204.685 422.903 204.44C423.415 204.195 423.986 204.072 424.615 204.072ZM438.498 208.28C438.498 208.557 438.482 208.851 438.45 209.16H431.442C431.495 210.024 431.788 210.701 432.322 211.192C432.866 211.672 433.522 211.912 434.29 211.912C434.919 211.912 435.442 211.768 435.858 211.48C436.284 211.181 436.583 210.787 436.754 210.296H438.322C438.087 211.139 437.618 211.827 436.914 212.36C436.21 212.883 435.335 213.144 434.29 213.144C433.458 213.144 432.711 212.957 432.05 212.584C431.399 212.211 430.887 211.683 430.514 211C430.14 210.307 429.954 209.507 429.954 208.6C429.954 207.693 430.135 206.899 430.498 206.216C430.86 205.533 431.367 205.011 432.018 204.648C432.679 204.275 433.436 204.088 434.29 204.088C435.122 204.088 435.858 204.269 436.498 204.632C437.138 204.995 437.628 205.496 437.97 206.136C438.322 206.765 438.498 207.48 438.498 208.28ZM436.994 207.976C436.994 207.421 436.871 206.947 436.626 206.552C436.38 206.147 436.044 205.843 435.618 205.64C435.202 205.427 434.738 205.32 434.226 205.32C433.49 205.32 432.86 205.555 432.338 206.024C431.826 206.493 431.532 207.144 431.458 207.976H436.994ZM441.876 205.656C442.132 205.155 442.494 204.765 442.964 204.488C443.444 204.211 444.025 204.072 444.708 204.072V205.576H444.324C442.692 205.576 441.876 206.461 441.876 208.232V213H440.42V204.232H441.876V205.656ZM454.388 208.28C454.388 208.557 454.372 208.851 454.34 209.16H447.332C447.386 210.024 447.679 210.701 448.212 211.192C448.756 211.672 449.412 211.912 450.18 211.912C450.81 211.912 451.332 211.768 451.748 211.48C452.175 211.181 452.474 210.787 452.644 210.296H454.212C453.978 211.139 453.508 211.827 452.804 212.36C452.1 212.883 451.226 213.144 450.18 213.144C449.348 213.144 448.602 212.957 447.94 212.584C447.29 212.211 446.778 211.683 446.404 211C446.031 210.307 445.844 209.507 445.844 208.6C445.844 207.693 446.026 206.899 446.388 206.216C446.751 205.533 447.258 205.011 447.908 204.648C448.57 204.275 449.327 204.088 450.18 204.088C451.012 204.088 451.748 204.269 452.388 204.632C453.028 204.995 453.519 205.496 453.86 206.136C454.212 206.765 454.388 207.48 454.388 208.28ZM452.884 207.976C452.884 207.421 452.762 206.947 452.516 206.552C452.271 206.147 451.935 205.843 451.508 205.64C451.092 205.427 450.628 205.32 450.116 205.32C449.38 205.32 448.751 205.555 448.228 206.024C447.716 206.493 447.423 207.144 447.348 207.976H452.884ZM464.086 204.232V213H462.63V211.704C462.353 212.152 461.963 212.504 461.462 212.76C460.971 213.005 460.427 213.128 459.83 213.128C459.147 213.128 458.534 212.989 457.99 212.712C457.446 212.424 457.014 211.997 456.694 211.432C456.385 210.867 456.23 210.179 456.23 209.368V204.232H457.67V209.176C457.67 210.04 457.889 210.707 458.326 211.176C458.763 211.635 459.361 211.864 460.118 211.864C460.897 211.864 461.51 211.624 461.958 211.144C462.406 210.664 462.63 209.965 462.63 209.048V204.232H464.086ZM477.089 204.072C477.771 204.072 478.379 204.216 478.913 204.504C479.446 204.781 479.867 205.203 480.177 205.768C480.486 206.333 480.641 207.021 480.641 207.832V213H479.201V208.04C479.201 207.165 478.982 206.499 478.545 206.04C478.118 205.571 477.537 205.336 476.801 205.336C476.043 205.336 475.441 205.581 474.993 206.072C474.545 206.552 474.321 207.251 474.321 208.168V213H472.881V208.04C472.881 207.165 472.662 206.499 472.225 206.04C471.798 205.571 471.217 205.336 470.481 205.336C469.723 205.336 469.121 205.581 468.673 206.072C468.225 206.552 468.001 207.251 468.001 208.168V213H466.545V204.232H468.001V205.496C468.289 205.037 468.673 204.685 469.153 204.44C469.643 204.195 470.182 204.072 470.769 204.072C471.505 204.072 472.155 204.237 472.721 204.568C473.286 204.899 473.707 205.384 473.985 206.024C474.23 205.405 474.635 204.925 475.201 204.584C475.766 204.243 476.395 204.072 477.089 204.072Z" fill="white"/>
</g>
<defs>
<linearGradient id="paint0_linear" x1="488.815" y1="-386.333" x2="860.26" y2="156.887" gradientUnits="userSpaceOnUse">
<stop stop-color="#00E0FF"/>
<stop offset="1" stop-color="#0047FF"/>
</linearGradient>
<linearGradient id="paint1_linear" x1="472.519" y1="3.12122" x2="609.144" y2="290.696" gradientUnits="userSpaceOnUse">
<stop stop-color="#00E0FF"/>
<stop offset="1" stop-color="#0047FF"/>
</linearGradient>
</defs>
</svg>
