<svg width="232" height="162" viewBox="0 0 232 162" fill="none" xmlns="http://www.w3.org/2000/svg">
<rect x="0.0761719" y="0.327148" width="231.525" height="160.865" rx="15" fill="url(#paint0_linear)"/>
<path d="M94.5117 119.996C94.5117 121.862 94.048 123.329 93.1205 124.397C92.1983 125.466 90.914 126 89.2676 126C87.5846 126 86.2847 125.476 85.3677 124.429C84.4559 123.377 84 121.894 84 119.98C84 118.082 84.4585 116.613 85.3755 115.571C86.2925 114.524 87.5951 114 89.2832 114C90.9244 114 92.2061 114.532 93.1283 115.595C94.0506 116.658 94.5117 118.125 94.5117 119.996ZM85.4068 119.996C85.4068 121.575 85.735 122.773 86.3915 123.592C87.0532 124.405 88.0119 124.812 89.2676 124.812C90.5336 124.812 91.4897 124.405 92.1358 123.592C92.7819 122.779 93.1049 121.58 93.1049 119.996C93.1049 118.428 92.7819 117.24 92.1358 116.432C91.4949 115.619 90.5441 115.212 89.2832 115.212C88.0171 115.212 87.0532 115.621 86.3915 116.44C85.735 117.253 85.4068 118.439 85.4068 119.996Z" fill="white"/>
<path d="M101.585 125.841H100.256V115.387H96.6374V114.183H105.203V115.387H101.585V125.841Z" fill="white"/>
<path d="M116.606 125.841H115.277V120.355H109.259V125.841H107.931V114.183H109.259V119.143H115.277V114.183H116.606V125.841Z" fill="white"/>
<path d="M127.117 125.841H120.748V114.183H127.117V115.387H122.076V119.143H126.813V120.339H122.076V124.629H127.117V125.841Z" fill="white"/>
<path d="M131.986 120.993V125.841H130.658V114.183H133.792C135.193 114.183 136.227 114.457 136.894 115.005C137.566 115.552 137.903 116.376 137.903 117.476C137.903 119.018 137.137 120.06 135.605 120.602L138.708 125.841H137.137L134.37 120.993H131.986ZM131.986 119.829H133.807C134.745 119.829 135.433 119.64 135.871 119.262C136.308 118.88 136.527 118.308 136.527 117.548C136.527 116.777 136.303 116.222 135.855 115.882C135.412 115.542 134.698 115.371 133.714 115.371H131.986V119.829Z" fill="white"/>
<path d="M148 122.739C148 123.765 147.635 124.565 146.906 125.139C146.176 125.713 145.186 126 143.936 126C142.581 126 141.539 125.822 140.81 125.466V124.158C141.279 124.36 141.789 124.52 142.342 124.637C142.894 124.753 143.441 124.812 143.983 124.812C144.869 124.812 145.536 124.642 145.984 124.302C146.432 123.956 146.656 123.478 146.656 122.866C146.656 122.462 146.575 122.133 146.413 121.878C146.257 121.617 145.991 121.378 145.616 121.16C145.246 120.942 144.681 120.695 143.92 120.419C142.857 120.031 142.097 119.571 141.638 119.039C141.185 118.508 140.958 117.814 140.958 116.958C140.958 116.06 141.289 115.345 141.951 114.813C142.613 114.282 143.488 114.016 144.577 114.016C145.713 114.016 146.757 114.229 147.711 114.654L147.297 115.834C146.354 115.43 145.437 115.228 144.546 115.228C143.842 115.228 143.293 115.382 142.897 115.69C142.501 115.999 142.303 116.427 142.303 116.974C142.303 117.378 142.376 117.71 142.521 117.971C142.667 118.226 142.912 118.462 143.256 118.68C143.605 118.893 144.137 119.13 144.85 119.39C146.049 119.826 146.872 120.294 147.32 120.793C147.773 121.293 148 121.942 148 122.739Z" fill="white"/>
<path d="M146.362 60.7456C147.085 60.7456 147.671 60.1601 147.671 59.4373L147.672 53.3345C147.672 52.0953 146.667 51.0904 145.427 51.0904L87.9457 51.0862C86.706 51.0862 85.7016 52.0911 85.7011 53.3303V59.4326C85.7011 60.1553 86.2866 60.7413 87.0094 60.7418C87.7327 60.7418 88.3182 61.3278 88.3182 62.0506L88.3173 74.0772C88.3173 74.8 87.7313 75.386 87.0085 75.386C86.2857 75.386 85.6997 75.972 85.6997 76.6947L85.6992 82.7975C85.6992 84.0367 86.7041 85.0411 87.9433 85.0416L145.426 85.0454C146.665 85.0454 147.67 84.041 147.67 82.8018L147.67 76.699C147.67 75.9762 147.084 75.3902 146.361 75.3902C145.639 75.3902 145.053 74.8042 145.053 74.081L145.054 62.0544C145.054 61.3316 145.64 60.7456 146.362 60.7456Z" fill="url(#paint1_linear)"/>
<path d="M85.6997 77.1213L85.6992 82.7976C85.6992 84.0368 86.7036 85.0412 87.9428 85.0417L145.425 85.0455C146.665 85.0455 147.669 84.0411 147.669 82.8019L147.67 77.1218H85.6997V77.1213Z" fill="url(#paint2_linear)"/>
<path d="M88.2197 68.4465L92.3401 72.5669V68.4465H88.2197Z" fill="url(#paint3_linear)"/>
<path d="M104.963 51.2119L109.424 55.6731H104.963V51.2119Z" fill="url(#paint4_linear)"/>
<path d="M141.361 80.8944H92.5673C91.7546 80.8944 91.0957 80.236 91.0957 79.4228V56.7106C91.0957 55.8974 91.7546 55.2385 92.5673 55.2385H141.361C142.174 55.2385 142.833 55.8974 142.833 56.7106V79.4228C142.833 80.2355 142.174 80.8944 141.361 80.8944Z" fill="url(#paint5_linear)"/>
<path d="M111.445 59.1869C110.604 58.2436 109.207 57.8791 107.96 58.4357C106.742 58.981 105.57 59.6934 104.498 60.2888C103.85 60.6491 103.319 61.0126 102.846 61.3747C102.333 61.1375 101.762 61.0045 101.16 61.0045C100.529 61.0045 99.9317 61.1503 99.3997 61.4097C98.9315 61.0609 98.4066 60.7115 97.7714 60.366C96.694 59.7805 95.5164 59.079 94.2923 58.5455C92.5831 57.8005 90.6055 58.7761 90.162 60.5871C89.8439 61.8864 91.2885 63.1724 91.2748 64.4646C91.2748 64.4646 89.8283 67.3861 90.2008 68.8482C90.3546 69.4527 90.6803 69.961 91.1087 70.3426L103.249 82.4832C103.327 82.5713 103.41 82.6536 103.497 82.7312C103.739 83.0044 104.028 83.2292 104.347 83.3972C104.395 83.4233 104.444 83.4474 104.494 83.4701C104.496 83.4711 104.498 83.472 104.499 83.4725C104.547 83.4947 104.595 83.5156 104.645 83.535C104.649 83.5364 104.652 83.5378 104.656 83.5392C104.703 83.5577 104.75 83.5752 104.798 83.5913C104.804 83.5932 104.81 83.5951 104.816 83.597C104.862 83.6121 104.908 83.6259 104.954 83.6391C104.962 83.641 104.97 83.6434 104.978 83.6453C105.023 83.6576 105.068 83.6685 105.113 83.6784C105.123 83.6808 105.133 83.6827 105.143 83.685C105.186 83.694 105.23 83.7021 105.273 83.7092C105.285 83.7111 105.297 83.713 105.309 83.7148C105.351 83.7215 105.393 83.7267 105.436 83.7314C105.449 83.7328 105.463 83.7343 105.476 83.7357C105.517 83.7399 105.558 83.7423 105.599 83.7447C105.614 83.7456 105.629 83.7466 105.645 83.747C105.684 83.7489 105.723 83.7494 105.763 83.7494C105.78 83.7494 105.797 83.7494 105.814 83.7489C105.852 83.7485 105.89 83.7466 105.928 83.7447C105.946 83.7432 105.965 83.7428 105.983 83.7414C106.02 83.7385 106.057 83.7347 106.094 83.7305C106.113 83.7281 106.133 83.7262 106.152 83.7238C106.188 83.7191 106.224 83.713 106.26 83.7068C106.281 83.7035 106.301 83.7006 106.321 83.6964C106.356 83.6898 106.391 83.6817 106.427 83.6737C106.448 83.6689 106.468 83.6647 106.489 83.6595C106.525 83.6505 106.56 83.6401 106.595 83.6296C106.615 83.624 106.636 83.6188 106.656 83.6121C106.694 83.6003 106.732 83.5866 106.769 83.5733C106.787 83.5672 106.805 83.5615 106.822 83.5549C106.877 83.534 106.932 83.5113 106.986 83.4872C107.748 83.1468 108.491 82.7407 109.203 82.3384C109.345 82.2579 109.487 82.1779 109.627 82.0984C109.906 81.9394 110.18 81.7832 110.448 81.6341C110.825 81.4244 111.163 81.2137 111.473 81.0031C111.488 80.9927 111.502 80.9823 111.518 80.9718C112.165 81.4187 112.95 81.6809 113.797 81.6809C114.67 81.6809 115.477 81.4016 116.136 80.9292C116.45 81.1394 116.793 81.3491 117.175 81.5569C117.31 81.6303 117.447 81.7055 117.585 81.7822C118.411 82.2395 119.289 82.7421 120.198 83.17C120.349 83.2415 120.502 83.3111 120.654 83.3774C120.709 83.4015 120.764 83.4233 120.819 83.4436C120.837 83.4503 120.854 83.4555 120.872 83.4616C120.873 83.4621 120.875 83.4626 120.876 83.463C120.893 83.4692 120.911 83.4749 120.928 83.4805C120.947 83.4867 120.966 83.4938 120.985 83.4995C121.006 83.5056 121.026 83.5108 121.046 83.5165C121.08 83.526 121.115 83.5359 121.149 83.5444C121.152 83.5454 121.155 83.5459 121.158 83.5468C121.177 83.5511 121.196 83.5544 121.215 83.5586C121.25 83.5667 121.286 83.5743 121.321 83.5809C121.341 83.5847 121.36 83.587 121.379 83.5904C121.395 83.5927 121.411 83.5956 121.427 83.5979C121.448 83.6008 121.47 83.6041 121.49 83.6065C121.51 83.6088 121.529 83.6107 121.549 83.6126C121.583 83.6159 121.617 83.6197 121.65 83.6221C121.656 83.6225 121.661 83.623 121.667 83.623C121.683 83.624 121.699 83.6244 121.715 83.6249C121.753 83.6268 121.791 83.6282 121.829 83.6287C121.846 83.6287 121.863 83.6287 121.88 83.6282H121.885C121.898 83.6282 121.911 83.6282 121.924 83.6278C121.949 83.6273 121.974 83.6263 121.998 83.6254C122.013 83.6244 122.029 83.6235 122.044 83.6225C122.079 83.6202 122.114 83.6178 122.149 83.6145C122.156 83.6136 122.164 83.6126 122.172 83.6117C122.184 83.6107 122.196 83.6093 122.207 83.6074C122.25 83.6027 122.292 83.597 122.334 83.5899C122.346 83.588 122.357 83.5861 122.369 83.5842C122.376 83.5828 122.383 83.5818 122.389 83.5804C122.396 83.5795 122.404 83.5781 122.411 83.5766C122.441 83.5714 122.47 83.5648 122.5 83.5582C122.509 83.5563 122.519 83.5539 122.529 83.5515C122.564 83.5435 122.6 83.535 122.635 83.5255C122.643 83.5231 122.652 83.5208 122.66 83.5184C122.661 83.5179 122.663 83.5175 122.664 83.5175C122.672 83.5151 122.679 83.5127 122.687 83.5108C122.734 83.4976 122.78 83.4829 122.826 83.4673C122.832 83.4654 122.837 83.4635 122.843 83.4616C122.89 83.445 122.938 83.4271 122.985 83.4081C122.989 83.4067 122.993 83.4053 122.997 83.4034C123.032 83.3892 123.066 83.3745 123.1 83.3589C123.106 83.3561 123.112 83.3537 123.117 83.3513C123.125 83.3475 123.133 83.3438 123.141 83.34C123.143 83.339 123.145 83.3385 123.147 83.3376C123.281 83.2742 123.409 83.2013 123.533 83.1189C123.536 83.117 123.538 83.1151 123.541 83.1132C123.676 83.0233 123.803 82.922 123.922 82.8112C123.923 82.8103 123.924 82.8094 123.925 82.8084C124.332 82.4264 124.64 81.9261 124.784 81.3363C125.143 79.8713 123.67 76.9631 123.67 76.9631C123.644 75.6709 125.076 74.3716 124.746 73.0756C124.591 72.4683 124.264 71.9581 123.833 71.5756L111.445 59.1869Z" fill="url(#paint6_linear)"/>
<path d="M85.6621 67.2359V62.0514C85.6621 61.3825 86.2041 60.8406 86.8734 60.8406H146.492C147.161 60.8406 147.704 61.3825 147.704 62.0514V67.2359C147.704 67.9047 147.162 68.4471 146.492 68.4471H86.8734C86.2041 68.4471 85.6621 67.9047 85.6621 67.2359V67.2359Z" fill="url(#paint7_linear)"/>
<path d="M107.536 68.4471H119.708L112.101 60.8406H107.536V68.4471Z" fill="url(#paint8_linear)"/>
<path d="M103.754 86.1323H98.5692C97.9004 86.1323 97.3584 85.5899 97.3584 84.921V51.2113C97.3584 50.5424 97.9004 50 98.5692 50H103.754C104.423 50 104.965 50.542 104.965 51.2113V84.921C104.965 85.5899 104.423 86.1323 103.754 86.1323Z" fill="url(#paint9_linear)"/>
<path d="M97.3584 69.2169L104.965 76.824V65.9116H97.3584V69.2169Z" fill="url(#paint10_linear)"/>
<path d="M100.18 62.0252C99.5137 61.4742 98.7815 60.9143 97.7714 60.3652C96.6941 59.7792 95.5159 59.0777 94.2919 58.5443C92.5826 57.7997 90.6055 58.7752 90.162 60.5862C89.8439 61.8856 91.2885 63.1716 91.2748 64.4638C91.2748 64.4638 89.8283 67.3853 90.2008 68.8469C90.6609 70.6537 92.6475 71.6108 94.3496 70.8501C95.5685 70.3053 96.74 69.5929 97.8116 68.997C98.8165 68.438 99.5435 67.8714 100.205 67.3143C101.849 65.9302 101.837 63.3936 100.18 62.0252Z" fill="url(#paint11_linear)"/>
<path d="M111.034 64.3265C111.008 63.0343 112.441 61.7345 112.11 60.4385C111.65 58.6317 109.663 57.6746 107.961 58.4353C106.742 58.9801 105.571 59.6925 104.499 60.2884C103.494 60.8474 102.767 61.414 102.106 61.9707C100.462 63.3552 100.475 65.8918 102.131 67.2602C102.797 67.8107 103.529 68.3707 104.54 68.9202C105.617 69.5062 106.795 70.2072 108.019 70.7407C109.728 71.4857 111.706 70.5102 112.149 68.6992C112.508 67.2342 111.034 64.3265 111.034 64.3265Z" fill="url(#paint12_linear)"/>
<path d="M100.204 67.3152C100.728 66.8741 101.083 66.316 101.27 65.7163C98.2306 66.0032 93.4845 67.0559 91.709 70.7607C92.4947 71.1763 93.4603 71.2477 94.3488 70.8506C95.5676 70.3058 96.7392 69.5934 97.8108 68.998C98.8162 68.439 99.5427 67.8719 100.204 67.3152Z" fill="url(#paint13_linear)"/>
<path d="M92.5332 64.4664C92.5389 65.6829 92.6989 69.0289 96.0544 69.9884C96.6626 69.6533 97.251 69.3096 97.8119 68.9977C98.8173 68.4392 99.5438 67.8721 100.206 67.3155C101.127 66.5397 101.528 65.4018 101.411 64.3102C101.411 64.3102 99.6494 63.3697 98.8674 62.9958C94.6429 60.9737 92.5252 62.7548 92.5332 64.4664Z" fill="url(#paint14_linear)"/>
<path d="M102.13 67.2609C101.602 66.8245 101.242 66.2702 101.049 65.6719C104.091 65.9303 108.847 66.9385 110.657 70.6268C109.875 71.0495 108.911 71.1299 108.018 70.7413C106.794 70.2079 105.616 69.5064 104.539 68.9209C103.529 68.3713 102.796 67.8114 102.13 67.2609Z" fill="url(#paint15_linear)"/>
<path d="M109.776 64.34C109.781 65.5565 109.653 68.9039 106.307 69.8946C105.696 69.5652 105.104 69.2272 104.54 68.9205C103.53 68.3714 102.797 67.8115 102.131 67.2605C101.202 66.4937 100.791 65.3596 100.897 64.2666C100.897 64.2666 102.65 63.31 103.428 62.9285C107.634 60.8671 109.768 62.6289 109.776 64.34Z" fill="url(#paint16_linear)"/>
<path d="M111.622 69.8032L104.099 62.2805C103.746 61.9027 103.32 61.5941 102.846 61.374C102.585 61.5738 102.341 61.773 102.106 61.9709C100.462 63.3549 100.474 65.8916 102.131 67.2605C102.797 67.811 103.53 68.3709 104.54 68.9205C105.617 69.506 106.795 70.2075 108.019 70.7409C109.336 71.3146 110.811 70.8668 111.622 69.8032Z" fill="url(#paint17_linear)"/>
<path d="M105.178 65.0247C105.178 67.2447 103.378 69.0448 101.158 69.0448C98.9378 69.0448 97.1377 67.2447 97.1377 65.0247C97.1377 62.8043 98.9378 61.0046 101.158 61.0046C103.378 61.0046 105.178 62.8043 105.178 65.0247Z" fill="url(#paint18_linear)"/>
<path d="M106.326 72.536C106.326 72.4271 106.39 72.3334 106.517 72.2543C106.644 72.1758 106.781 72.1365 106.926 72.1365C107.108 72.1365 107.219 72.2032 107.262 72.3362L108.761 77.5131L110.25 72.3362C110.292 72.2032 110.4 72.1365 110.575 72.1365C110.719 72.1365 110.856 72.1758 110.986 72.2543C111.115 72.3324 111.18 72.4262 111.18 72.5346C111.18 72.5525 111.174 72.58 111.162 72.616L109.365 78.5019C109.334 78.6051 109.262 78.6861 109.148 78.7438C109.034 78.8016 108.904 78.8304 108.761 78.8304C108.427 78.8304 108.225 78.7211 108.152 78.5034L106.335 72.6179C106.329 72.5994 106.326 72.5724 106.326 72.536Z" fill="url(#paint19_linear)"/>
<path d="M111.842 76.805V74.1619C111.842 73.4656 112.026 72.9539 112.396 72.6269C112.765 72.2998 113.258 72.1365 113.876 72.1365C114.494 72.1365 114.989 72.2998 115.361 72.6269C115.734 72.9539 115.92 73.4656 115.92 74.1619V76.805C115.92 77.5013 115.734 78.013 115.361 78.3396C114.989 78.6667 114.494 78.8304 113.876 78.8304C113.258 78.8304 112.765 78.6667 112.396 78.3396C112.026 78.013 111.842 77.5013 111.842 76.805ZM112.804 76.805C112.804 77.586 113.161 77.9765 113.876 77.9765C114.221 77.9765 114.488 77.8795 114.675 77.6859C114.863 77.4923 114.957 77.1984 114.957 76.805V74.1619C114.957 73.7681 114.863 73.4746 114.675 73.281C114.488 73.0869 114.221 72.9904 113.876 72.9904C113.161 72.9904 112.804 73.3809 112.804 74.1619V76.805Z" fill="url(#paint20_linear)"/>
<path d="M117.02 76.8055V72.4456C117.02 72.3429 117.066 72.2652 117.16 72.2141C117.254 72.1625 117.367 72.1369 117.501 72.1369C117.634 72.1369 117.748 72.1625 117.841 72.2141C117.935 72.2652 117.982 72.3429 117.982 72.4456V76.8055C117.982 77.1988 118.079 77.4928 118.273 77.6864C118.467 77.88 118.739 77.977 119.09 77.977C119.835 77.977 120.207 77.5865 120.207 76.805V72.4456C120.207 72.3424 120.254 72.2652 120.349 72.2136C120.442 72.1625 120.555 72.1365 120.689 72.1365C120.822 72.1365 120.935 72.1625 121.03 72.2136C121.123 72.2652 121.17 72.3424 121.17 72.4456V76.805C121.17 77.5018 120.981 78.013 120.603 78.3401C120.224 78.6671 119.72 78.8304 119.09 78.8304C118.467 78.8304 117.966 78.6671 117.587 78.3401C117.208 78.0134 117.02 77.5018 117.02 76.8055Z" fill="url(#paint21_linear)"/>
<path d="M122.277 76.805V74.1619C122.277 73.4656 122.463 72.9539 122.836 72.6269C123.208 72.2998 123.694 72.1365 124.294 72.1365C124.911 72.1365 125.409 72.2894 125.788 72.5947C126.166 72.9009 126.355 73.2957 126.355 73.7799C126.355 73.974 126.319 74.1056 126.246 74.1751C126.174 74.2447 126.049 74.2798 125.874 74.2798C125.559 74.2798 125.399 74.1737 125.392 73.9617C125.356 73.3141 125.002 72.9899 124.33 72.9899C123.603 72.9899 123.24 73.3804 123.24 74.1619V76.805C123.24 77.586 123.609 77.9765 124.348 77.9765C124.566 77.9765 124.748 77.9448 124.893 77.8814C125.038 77.8175 125.143 77.7252 125.206 77.604C125.27 77.4833 125.314 77.3773 125.338 77.2864C125.362 77.1955 125.381 77.0833 125.392 76.9503C125.411 76.7383 125.568 76.6322 125.865 76.6322C126.04 76.6322 126.166 76.6673 126.242 76.7369C126.317 76.8064 126.355 76.938 126.355 77.1321C126.355 77.6348 126.164 78.0433 125.783 78.358C125.402 78.6728 124.902 78.8304 124.285 78.8304C123.685 78.8304 123.201 78.6667 122.832 78.3396C122.462 78.013 122.277 77.5013 122.277 76.805Z" fill="url(#paint22_linear)"/>
<path d="M127.254 78.4579V72.4451C127.254 72.3424 127.301 72.2652 127.394 72.2136C127.488 72.1625 127.602 72.1365 127.735 72.1365C127.868 72.1365 127.982 72.162 128.076 72.2136C128.169 72.2652 128.217 72.3424 128.217 72.4451V74.9519H130.478V72.4451C130.478 72.3424 130.525 72.2652 130.619 72.2136C130.713 72.1625 130.826 72.1365 130.96 72.1365C131.093 72.1365 131.206 72.162 131.3 72.2136C131.394 72.2652 131.441 72.3424 131.441 72.4451V78.4579C131.441 78.5549 131.394 78.6321 131.3 78.6894C131.206 78.7471 131.093 78.776 130.96 78.776C130.832 78.776 130.72 78.7471 130.624 78.6894C130.527 78.6321 130.478 78.5549 130.478 78.4579V75.7149H128.217V78.4579C128.217 78.5549 128.169 78.6321 128.076 78.6894C127.982 78.7471 127.868 78.776 127.735 78.776C127.608 78.776 127.496 78.7471 127.399 78.6894C127.302 78.6321 127.254 78.5549 127.254 78.4579Z" fill="url(#paint23_linear)"/>
<path d="M132.641 78.4579V72.4541C132.641 72.3575 132.683 72.2804 132.768 72.2226C132.853 72.1649 132.953 72.1365 133.068 72.1365H136.301C136.404 72.1365 136.483 72.1786 136.537 72.2633C136.592 72.3481 136.619 72.4451 136.619 72.554C136.619 72.6751 136.59 72.7783 136.533 72.863C136.475 72.9478 136.398 72.9899 136.301 72.9899H133.603V75.0702H135.002C135.099 75.0702 135.176 75.1081 135.234 75.1834C135.291 75.2596 135.32 75.3514 135.32 75.4607C135.32 75.5573 135.293 75.6439 135.238 75.7196C135.184 75.7954 135.105 75.8328 135.002 75.8328H133.603V77.9221H136.301C136.398 77.9221 136.475 77.9642 136.533 78.0489C136.59 78.1341 136.619 78.2369 136.619 78.358C136.619 78.4669 136.592 78.5639 136.537 78.6487C136.483 78.7334 136.404 78.7755 136.301 78.7755H133.068C132.953 78.7755 132.853 78.7471 132.768 78.6894C132.683 78.6321 132.641 78.5549 132.641 78.4579Z" fill="url(#paint24_linear)"/>
<path d="M137.391 78.4579V72.4451C137.391 72.3604 137.42 72.2879 137.482 72.2274C137.542 72.1668 137.618 72.1365 137.708 72.1365H139.434C140.827 72.1365 141.523 72.7542 141.523 73.9891C141.523 74.5017 141.408 74.9041 141.178 75.1966C140.948 75.4891 140.636 75.6837 140.242 75.7802L141.514 78.1744C141.538 78.217 141.55 78.2624 141.55 78.3112C141.55 78.4324 141.488 78.5445 141.364 78.6482C141.24 78.7514 141.108 78.803 140.969 78.803C140.811 78.803 140.685 78.7088 140.588 78.5209L139.261 75.9147H138.344V78.457C138.344 78.554 138.297 78.6316 138.203 78.6894C138.11 78.7471 137.996 78.776 137.863 78.776C137.736 78.776 137.625 78.7471 137.531 78.6894C137.437 78.6321 137.391 78.5549 137.391 78.4579ZM138.344 75.1516H139.434C140.185 75.1516 140.561 74.7919 140.561 74.071C140.561 73.3506 140.185 72.9899 139.434 72.9899H138.344V75.1516Z" fill="url(#paint25_linear)"/>
<path d="M218.662 14.4184C218.825 14.4184 218.957 14.2866 218.957 14.124L218.957 12.7504C218.957 12.4715 218.731 12.2453 218.452 12.2453L205.514 12.2444C205.235 12.2444 205.009 12.4706 205.009 12.7495V14.1229C205.009 14.2856 205.141 14.4175 205.304 14.4176C205.466 14.4176 205.598 14.5495 205.598 14.7121L205.598 17.419C205.598 17.5816 205.466 17.7135 205.303 17.7135C205.141 17.7135 205.009 17.8454 205.009 18.0081L205.009 19.3817C205.009 19.6606 205.235 19.8866 205.514 19.8867L218.451 19.8876C218.73 19.8876 218.956 19.6615 218.956 19.3826L218.957 18.0091C218.957 17.8464 218.825 17.7145 218.662 17.7145C218.499 17.7145 218.367 17.5826 218.367 17.4198L218.368 14.713C218.368 14.5503 218.5 14.4184 218.662 14.4184Z" fill="url(#paint26_linear)"/>
<path d="M205.009 18.1042L205.009 19.3818C205.009 19.6607 205.235 19.8868 205.514 19.8869L218.451 19.8877C218.73 19.8877 218.956 19.6617 218.956 19.3828L218.956 18.1044H205.009V18.1042Z" fill="url(#paint27_linear)"/>
<path d="M205.576 16.1516L206.504 17.079V16.1516H205.576Z" fill="url(#paint28_linear)"/>
<path d="M209.344 12.2727L210.348 13.2768H209.344V12.2727Z" fill="url(#paint29_linear)"/>
<path d="M217.536 18.9533H206.554C206.371 18.9533 206.223 18.8051 206.223 18.6221V13.5103C206.223 13.3273 206.371 13.179 206.554 13.179H217.536C217.719 13.179 217.867 13.3273 217.867 13.5103V18.6221C217.867 18.805 217.719 18.9533 217.536 18.9533Z" fill="url(#paint30_linear)"/>
<path d="M210.802 14.0675C210.613 13.8552 210.299 13.7732 210.018 13.8985C209.744 14.0212 209.48 14.1815 209.239 14.3155C209.093 14.3966 208.974 14.4784 208.867 14.5599C208.752 14.5066 208.623 14.4766 208.488 14.4766C208.345 14.4766 208.211 14.5094 208.091 14.5678C207.986 14.4893 207.868 14.4107 207.725 14.3329C207.482 14.2011 207.217 14.0432 206.942 13.9232C206.557 13.7555 206.112 13.9751 206.012 14.3827C205.941 14.6751 206.266 14.9646 206.263 15.2554C206.263 15.2554 205.937 15.9129 206.021 16.242C206.056 16.3781 206.129 16.4925 206.225 16.5783L208.958 19.3108C208.975 19.3307 208.994 19.3492 209.014 19.3667C209.068 19.4281 209.133 19.4787 209.205 19.5166C209.216 19.5224 209.227 19.5278 209.238 19.533C209.238 19.5332 209.239 19.5334 209.239 19.5335C209.25 19.5385 209.261 19.5432 209.272 19.5476C209.273 19.5479 209.274 19.5482 209.274 19.5485C209.285 19.5527 209.296 19.5566 209.306 19.5602C209.308 19.5607 209.309 19.5611 209.31 19.5615C209.321 19.5649 209.331 19.568 209.342 19.571C209.343 19.5714 209.345 19.572 209.347 19.5724C209.357 19.5752 209.367 19.5776 209.377 19.5798C209.379 19.5804 209.382 19.5808 209.384 19.5813C209.394 19.5834 209.404 19.5852 209.413 19.5868C209.416 19.5872 209.419 19.5876 209.421 19.588C209.431 19.5895 209.44 19.5907 209.45 19.5918C209.453 19.5921 209.456 19.5924 209.459 19.5927C209.468 19.5937 209.477 19.5942 209.487 19.5948C209.49 19.595 209.493 19.5952 209.497 19.5953C209.506 19.5957 209.515 19.5958 209.524 19.5958C209.527 19.5958 209.531 19.5958 209.535 19.5957C209.544 19.5956 209.552 19.5952 209.561 19.5948C209.565 19.5944 209.569 19.5943 209.573 19.594C209.581 19.5934 209.59 19.5925 209.598 19.5916C209.602 19.591 209.607 19.5906 209.611 19.5901C209.619 19.589 209.627 19.5876 209.635 19.5862C209.64 19.5855 209.645 19.5848 209.649 19.5839C209.657 19.5824 209.665 19.5806 209.673 19.5788C209.678 19.5777 209.682 19.5767 209.687 19.5756C209.695 19.5736 209.703 19.5712 209.711 19.5689C209.715 19.5676 209.72 19.5664 209.725 19.5649C209.733 19.5623 209.742 19.5592 209.75 19.5562C209.754 19.5548 209.758 19.5535 209.762 19.552C209.774 19.5473 209.787 19.5422 209.799 19.5368C209.97 19.4602 210.138 19.3688 210.298 19.2782C210.33 19.2601 210.362 19.2421 210.393 19.2242C210.456 19.1884 210.518 19.1533 210.578 19.1197C210.663 19.0725 210.739 19.0251 210.809 18.9777C210.812 18.9754 210.815 18.973 210.819 18.9707C210.965 19.0712 211.141 19.1303 211.332 19.1303C211.528 19.1303 211.71 19.0674 211.858 18.9611C211.929 19.0084 212.006 19.0556 212.092 19.1024C212.123 19.1189 212.153 19.1358 212.184 19.1531C212.37 19.256 212.568 19.3691 212.772 19.4654C212.806 19.4815 212.841 19.4972 212.875 19.5121C212.888 19.5175 212.9 19.5224 212.912 19.527C212.916 19.5285 212.92 19.5297 212.924 19.531C212.924 19.5312 212.925 19.5313 212.925 19.5314C212.929 19.5327 212.933 19.534 212.937 19.5353C212.941 19.5367 212.945 19.5383 212.95 19.5396C212.954 19.541 212.959 19.5421 212.963 19.5434C212.971 19.5455 212.979 19.5478 212.987 19.5497C212.987 19.5499 212.988 19.55 212.989 19.5502C212.993 19.5512 212.997 19.5519 213.001 19.5529C213.009 19.5547 213.017 19.5564 213.025 19.5579C213.03 19.5587 213.034 19.5593 213.038 19.56C213.042 19.5606 213.045 19.5612 213.049 19.5617C213.054 19.5624 213.059 19.5631 213.063 19.5636C213.068 19.5642 213.072 19.5646 213.076 19.565C213.084 19.5658 213.092 19.5666 213.099 19.5672C213.101 19.5673 213.102 19.5674 213.103 19.5674C213.107 19.5676 213.11 19.5677 213.114 19.5678C213.122 19.5682 213.131 19.5685 213.14 19.5687C213.143 19.5687 213.147 19.5687 213.151 19.5685H213.152C213.155 19.5685 213.158 19.5685 213.161 19.5684C213.167 19.5683 213.172 19.5681 213.178 19.5679C213.181 19.5677 213.185 19.5675 213.188 19.5673C213.196 19.5667 213.204 19.5662 213.212 19.5655C213.213 19.5652 213.215 19.565 213.217 19.5648C213.219 19.5646 213.222 19.5643 213.225 19.5639C213.234 19.5628 213.244 19.5615 213.253 19.5599C213.256 19.5595 213.258 19.5591 213.261 19.5586C213.263 19.5583 213.264 19.5581 213.266 19.5578C213.267 19.5576 213.269 19.5573 213.271 19.5569C213.277 19.5558 213.284 19.5543 213.291 19.5528C213.293 19.5524 213.295 19.5518 213.297 19.5513C213.305 19.5495 213.313 19.5476 213.321 19.5454C213.323 19.5449 213.325 19.5444 213.327 19.5438C213.327 19.5437 213.327 19.5436 213.327 19.5436C213.329 19.5431 213.331 19.5426 213.333 19.5421C213.343 19.5391 213.354 19.5358 213.364 19.5323C213.365 19.5319 213.367 19.5315 213.368 19.531C213.378 19.5273 213.389 19.5233 213.4 19.519C213.401 19.5187 213.401 19.5184 213.402 19.5179C213.41 19.5147 213.418 19.5114 213.426 19.5079C213.427 19.5073 213.428 19.5068 213.429 19.5062C213.431 19.5054 213.433 19.5045 213.435 19.5037C213.435 19.5035 213.436 19.5033 213.436 19.5031C213.466 19.4889 213.495 19.4725 213.523 19.4539C213.524 19.4535 213.524 19.4531 213.525 19.4526C213.555 19.4324 213.584 19.4096 213.611 19.3847C213.611 19.3845 213.611 19.3842 213.611 19.384C213.703 19.2981 213.772 19.1854 213.805 19.0527C213.885 18.723 213.554 18.0684 213.554 18.0684C213.548 17.7776 213.87 17.4852 213.796 17.1935C213.761 17.0568 213.688 16.9419 213.591 16.8559L210.802 14.0675Z" fill="url(#paint31_linear)"/>
<path d="M205 15.8793V14.7125C205 14.5619 205.122 14.4399 205.273 14.4399H218.691C218.842 14.4399 218.964 14.5619 218.964 14.7125V15.8793C218.964 16.0299 218.842 16.1519 218.691 16.1519H205.273C205.122 16.1519 205 16.0299 205 15.8793V15.8793Z" fill="url(#paint32_linear)"/>
<path d="M209.923 16.1519H212.662L210.95 14.4399H209.923V16.1519Z" fill="url(#paint33_linear)"/>
<path d="M209.072 20.1323H207.905C207.755 20.1323 207.633 20.0102 207.633 19.8597V12.2726C207.633 12.1221 207.755 12 207.905 12H209.072C209.223 12 209.345 12.122 209.345 12.2726V19.8597C209.345 20.0102 209.223 20.1323 209.072 20.1323Z" fill="url(#paint34_linear)"/>
<path d="M207.633 16.325L209.345 18.0371V15.5811H207.633V16.325Z" fill="url(#paint35_linear)"/>
<path d="M208.267 14.7065C208.117 14.5825 207.952 14.4565 207.725 14.3329C207.482 14.201 207.217 14.0431 206.942 13.9231C206.557 13.7555 206.112 13.9751 206.012 14.3827C205.941 14.6751 206.266 14.9645 206.263 15.2554C206.263 15.2554 205.937 15.9129 206.021 16.2419C206.125 16.6485 206.572 16.8639 206.955 16.6927C207.229 16.5701 207.493 16.4098 207.734 16.2757C207.96 16.1498 208.124 16.0223 208.273 15.8969C208.643 15.5854 208.64 15.0145 208.267 14.7065Z" fill="url(#paint36_linear)"/>
<path d="M210.71 15.2245C210.704 14.9336 211.027 14.6411 210.952 14.3494C210.849 13.9427 210.402 13.7273 210.018 13.8985C209.744 14.0212 209.48 14.1815 209.239 14.3156C209.013 14.4414 208.849 14.569 208.701 14.6942C208.331 15.0059 208.333 15.5768 208.706 15.8848C208.856 16.0087 209.021 16.1347 209.248 16.2584C209.491 16.3903 209.756 16.548 210.031 16.6681C210.416 16.8358 210.861 16.6162 210.961 16.2086C211.042 15.8789 210.71 15.2245 210.71 15.2245Z" fill="url(#paint37_linear)"/>
<path d="M208.273 15.8972C208.391 15.7979 208.471 15.6723 208.513 15.5374C207.829 15.6019 206.761 15.8388 206.361 16.6727C206.538 16.7662 206.756 16.7823 206.955 16.6929C207.23 16.5703 207.493 16.41 207.735 16.276C207.961 16.1501 208.124 16.0225 208.273 15.8972Z" fill="url(#paint38_linear)"/>
<path d="M206.547 15.2559C206.548 15.5297 206.584 16.2828 207.339 16.4988C207.476 16.4233 207.609 16.346 207.735 16.2758C207.961 16.1501 208.125 16.0225 208.274 15.8972C208.481 15.7226 208.571 15.4665 208.545 15.2208C208.545 15.2208 208.149 15.0091 207.973 14.9249C207.022 14.4698 206.545 14.8707 206.547 15.2559Z" fill="url(#paint39_linear)"/>
<path d="M208.706 15.885C208.587 15.7868 208.506 15.662 208.463 15.5273C209.148 15.5855 210.218 15.8124 210.625 16.6425C210.449 16.7377 210.232 16.7558 210.032 16.6683C209.756 16.5483 209.491 16.3904 209.248 16.2586C209.021 16.1349 208.856 16.0089 208.706 15.885Z" fill="url(#paint40_linear)"/>
<path d="M210.427 15.2275C210.428 15.5013 210.399 16.2547 209.646 16.4777C209.508 16.4036 209.375 16.3275 209.248 16.2585C209.021 16.1349 208.856 16.0088 208.706 15.8848C208.497 15.7122 208.405 15.457 208.429 15.211C208.429 15.211 208.823 14.9957 208.998 14.9098C209.945 14.4459 210.425 14.8424 210.427 15.2275Z" fill="url(#paint41_linear)"/>
<path d="M210.842 16.4572L209.149 14.7641C209.07 14.6791 208.974 14.6096 208.867 14.5601C208.808 14.605 208.753 14.6499 208.701 14.6944C208.331 15.0059 208.333 15.5768 208.706 15.8849C208.856 16.0088 209.021 16.1348 209.248 16.2585C209.491 16.3903 209.756 16.5482 210.031 16.6683C210.328 16.7974 210.66 16.6966 210.842 16.4572Z" fill="url(#paint42_linear)"/>
<path d="M209.393 15.3816C209.393 15.8812 208.988 16.2864 208.488 16.2864C207.988 16.2864 207.583 15.8812 207.583 15.3816C207.583 14.8819 207.988 14.4768 208.488 14.4768C208.988 14.4768 209.393 14.8819 209.393 15.3816Z" fill="url(#paint43_linear)"/>
<path d="M209.65 17.0723C209.65 17.0478 209.665 17.0267 209.693 17.0089C209.722 16.9913 209.753 16.9824 209.785 16.9824C209.826 16.9824 209.851 16.9974 209.861 17.0274L210.198 18.1925L210.534 17.0274C210.543 16.9974 210.567 16.9824 210.607 16.9824C210.639 16.9824 210.67 16.9913 210.699 17.0089C210.728 17.0265 210.743 17.0476 210.743 17.072C210.743 17.0761 210.741 17.0822 210.739 17.0903L210.334 18.4151C210.327 18.4383 210.311 18.4565 210.285 18.4695C210.26 18.4825 210.231 18.489 210.198 18.489C210.123 18.489 210.078 18.4644 210.061 18.4154L209.652 17.0908C209.651 17.0866 209.65 17.0805 209.65 17.0723Z" fill="url(#paint44_linear)"/>
<path d="M210.893 18.0332V17.4383C210.893 17.2816 210.934 17.1664 211.017 17.0928C211.1 17.0192 211.211 16.9824 211.35 16.9824C211.489 16.9824 211.601 17.0192 211.685 17.0928C211.769 17.1664 211.81 17.2816 211.81 17.4383V18.0332C211.81 18.1899 211.769 18.305 211.685 18.3786C211.601 18.4522 211.489 18.489 211.35 18.489C211.211 18.489 211.1 18.4522 211.017 18.3786C210.934 18.305 210.893 18.1899 210.893 18.0332ZM211.109 18.0332C211.109 18.209 211.19 18.2968 211.35 18.2968C211.428 18.2968 211.488 18.275 211.53 18.2314C211.572 18.1879 211.594 18.1217 211.594 18.0332V17.4383C211.594 17.3496 211.573 17.2836 211.53 17.24C211.488 17.1963 211.428 17.1746 211.35 17.1746C211.19 17.1746 211.109 17.2625 211.109 17.4383V18.0332Z" fill="url(#paint45_linear)"/>
<path d="M212.058 18.0333V17.052C212.058 17.0289 212.068 17.0114 212.089 16.9999C212.11 16.9883 212.136 16.9825 212.166 16.9825C212.196 16.9825 212.221 16.9883 212.243 16.9999C212.264 17.0114 212.274 17.0289 212.274 17.052V18.0333C212.274 18.1218 212.296 18.188 212.34 18.2315C212.383 18.2751 212.445 18.2969 212.524 18.2969C212.691 18.2969 212.775 18.2091 212.775 18.0332V17.052C212.775 17.0288 212.786 17.0114 212.807 16.9998C212.828 16.9883 212.853 16.9824 212.883 16.9824C212.913 16.9824 212.939 16.9883 212.96 16.9998C212.981 17.0114 212.992 17.0288 212.992 17.052V18.0332C212.992 18.19 212.949 18.305 212.864 18.3787C212.779 18.4523 212.665 18.489 212.524 18.489C212.383 18.489 212.271 18.4523 212.185 18.3787C212.1 18.3052 212.058 18.19 212.058 18.0333Z" fill="url(#paint46_linear)"/>
<path d="M213.241 18.0332V17.4383C213.241 17.2816 213.283 17.1664 213.367 17.0928C213.451 17.0192 213.56 16.9824 213.695 16.9824C213.834 16.9824 213.946 17.0168 214.031 17.0855C214.116 17.1545 214.159 17.2433 214.159 17.3523C214.159 17.396 214.151 17.4256 214.135 17.4413C214.118 17.4569 214.09 17.4648 214.051 17.4648C213.98 17.4648 213.944 17.4409 213.942 17.3932C213.934 17.2475 213.854 17.1745 213.703 17.1745C213.54 17.1745 213.458 17.2624 213.458 17.4383V18.0332C213.458 18.209 213.541 18.2968 213.707 18.2968C213.756 18.2968 213.797 18.2897 213.83 18.2754C213.863 18.261 213.886 18.2403 213.9 18.213C213.915 18.1858 213.925 18.162 213.93 18.1415C213.935 18.1211 213.94 18.0958 213.942 18.0659C213.946 18.0181 213.982 17.9943 214.049 17.9943C214.088 17.9943 214.116 18.0022 214.134 18.0178C214.15 18.0335 214.159 18.0631 214.159 18.1068C214.159 18.2199 214.116 18.3119 214.03 18.3827C213.944 18.4536 213.832 18.489 213.693 18.489C213.558 18.489 213.449 18.4522 213.366 18.3786C213.283 18.305 213.241 18.1899 213.241 18.0332Z" fill="url(#paint47_linear)"/>
<path d="M214.361 18.4052V17.0519C214.361 17.0288 214.372 17.0114 214.393 16.9998C214.414 16.9883 214.44 16.9824 214.47 16.9824C214.5 16.9824 214.525 16.9882 214.546 16.9998C214.567 17.0114 214.578 17.0288 214.578 17.0519V17.6161H215.087V17.0519C215.087 17.0288 215.098 17.0114 215.119 16.9998C215.14 16.9883 215.165 16.9824 215.195 16.9824C215.225 16.9824 215.251 16.9882 215.272 16.9998C215.293 17.0114 215.304 17.0288 215.304 17.0519V18.4052C215.304 18.427 215.293 18.4444 215.272 18.4573C215.251 18.4703 215.225 18.4768 215.195 18.4768C215.167 18.4768 215.141 18.4703 215.12 18.4573C215.098 18.4444 215.087 18.427 215.087 18.4052V17.7878H214.578V18.4052C214.578 18.427 214.567 18.4444 214.546 18.4573C214.525 18.4703 214.5 18.4768 214.47 18.4768C214.441 18.4768 214.416 18.4703 214.394 18.4573C214.372 18.4444 214.361 18.427 214.361 18.4052Z" fill="url(#paint48_linear)"/>
<path d="M215.573 18.4052V17.0539C215.573 17.0322 215.583 17.0148 215.602 17.0018C215.621 16.9888 215.643 16.9824 215.669 16.9824H216.397C216.42 16.9824 216.438 16.9919 216.45 17.011C216.462 17.03 216.469 17.0519 216.469 17.0764C216.469 17.1037 216.462 17.1269 216.449 17.146C216.436 17.165 216.419 17.1745 216.397 17.1745H215.79V17.6427H216.105C216.127 17.6427 216.144 17.6512 216.157 17.6682C216.17 17.6853 216.176 17.706 216.176 17.7306C216.176 17.7523 216.17 17.7718 216.158 17.7889C216.146 17.8059 216.128 17.8143 216.105 17.8143H215.79V18.2846H216.397C216.419 18.2846 216.436 18.2941 216.449 18.3131C216.462 18.3323 216.469 18.3554 216.469 18.3827C216.469 18.4072 216.462 18.4291 216.45 18.4481C216.438 18.4672 216.42 18.4767 216.397 18.4767H215.669C215.643 18.4767 215.621 18.4703 215.602 18.4573C215.583 18.4444 215.573 18.427 215.573 18.4052Z" fill="url(#paint49_linear)"/>
<path d="M216.643 18.4052V17.0519C216.643 17.0328 216.649 17.0165 216.663 17.0029C216.677 16.9892 216.694 16.9824 216.714 16.9824H217.102C217.416 16.9824 217.573 17.1214 217.573 17.3994C217.573 17.5148 217.547 17.6053 217.495 17.6712C217.443 17.737 217.373 17.7808 217.284 17.8025L217.571 18.3414C217.576 18.351 217.579 18.3612 217.579 18.3722C217.579 18.3994 217.565 18.4247 217.537 18.448C217.509 18.4712 217.479 18.4829 217.448 18.4829C217.413 18.4829 217.384 18.4617 217.362 18.4194L217.064 17.8328H216.857V18.405C216.857 18.4268 216.847 18.4443 216.825 18.4573C216.804 18.4703 216.779 18.4768 216.749 18.4768C216.72 18.4768 216.695 18.4703 216.674 18.4573C216.653 18.4444 216.643 18.427 216.643 18.4052ZM216.857 17.661H217.102C217.271 17.661 217.356 17.5801 217.356 17.4178C217.356 17.2557 217.271 17.1745 217.102 17.1745H216.857V17.661Z" fill="url(#paint50_linear)"/>
<defs>
<linearGradient id="paint0_linear" x1="127.415" y1="-24.9942" x2="133.724" y2="260.124" gradientUnits="userSpaceOnUse">
<stop stop-color="#FD749B"/>
<stop offset="1" stop-color="#281AC8"/>
</linearGradient>
<linearGradient id="paint1_linear" x1="100.614" y1="51.9941" x2="142.557" y2="93.9377" gradientUnits="userSpaceOnUse">
<stop stop-color="#FFD459"/>
<stop offset="0.2296" stop-color="#FFD355"/>
<stop offset="0.4362" stop-color="#FFCF4A"/>
<stop offset="0.634" stop-color="#FFC838"/>
<stop offset="0.825" stop-color="#FFBF1F"/>
<stop offset="1" stop-color="#FFB400"/>
</linearGradient>
<linearGradient id="paint2_linear" x1="116.685" y1="80.6238" x2="116.685" y2="86.851" gradientUnits="userSpaceOnUse">
<stop stop-color="#E58200" stop-opacity="0"/>
<stop offset="0.0396" stop-color="#E27F04" stop-opacity="0.039216"/>
<stop offset="0.4671" stop-color="#C15D2F" stop-opacity="0.466667"/>
<stop offset="0.8016" stop-color="#AD4949" stop-opacity="0.8"/>
<stop offset="1" stop-color="#A64153"/>
</linearGradient>
<linearGradient id="paint3_linear" x1="91.4322" y1="71.0802" x2="89.7923" y2="67.3321" gradientUnits="userSpaceOnUse">
<stop stop-color="#E58200" stop-opacity="0"/>
<stop offset="0.0396" stop-color="#E27F04" stop-opacity="0.039216"/>
<stop offset="0.4671" stop-color="#C15D2F" stop-opacity="0.466667"/>
<stop offset="0.8016" stop-color="#AD4949" stop-opacity="0.8"/>
<stop offset="1" stop-color="#A64153"/>
</linearGradient>
<linearGradient id="paint4_linear" x1="108.068" y1="55.6364" x2="98.5587" y2="48.9167" gradientUnits="userSpaceOnUse">
<stop stop-color="#E58200" stop-opacity="0"/>
<stop offset="0.0396" stop-color="#E27F04" stop-opacity="0.039216"/>
<stop offset="0.4671" stop-color="#C15D2F" stop-opacity="0.466667"/>
<stop offset="0.8016" stop-color="#AD4949" stop-opacity="0.8"/>
<stop offset="1" stop-color="#A64153"/>
</linearGradient>
<linearGradient id="paint5_linear" x1="103.93" y1="55.0312" x2="137.945" y2="89.0506" gradientUnits="userSpaceOnUse">
<stop stop-color="#FFFCF8"/>
<stop offset="0.1875" stop-color="#FAF8F6"/>
<stop offset="0.4041" stop-color="#ECEEF2"/>
<stop offset="0.6353" stop-color="#D5DCEA"/>
<stop offset="0.875" stop-color="#B5C4DF"/>
<stop offset="1" stop-color="#A1B5D8"/>
</linearGradient>
<linearGradient id="paint6_linear" x1="110.043" y1="76.8352" x2="99.393" y2="52.4924" gradientUnits="userSpaceOnUse">
<stop stop-color="#A1B5D8" stop-opacity="0"/>
<stop offset="0.0343" stop-color="#9FB3D5" stop-opacity="0.035294"/>
<stop offset="0.4515" stop-color="#8898AF" stop-opacity="0.45098"/>
<stop offset="0.788" stop-color="#798898" stop-opacity="0.788235"/>
<stop offset="1" stop-color="#748290"/>
</linearGradient>
<linearGradient id="paint7_linear" x1="116.683" y1="63.1221" x2="116.683" y2="71.3632" gradientUnits="userSpaceOnUse">
<stop stop-color="#FF6E3A"/>
<stop offset="0.1596" stop-color="#FF6440"/>
<stop offset="0.4266" stop-color="#FF4B52"/>
<stop offset="0.7662" stop-color="#FF216E"/>
<stop offset="1" stop-color="#FF0084"/>
</linearGradient>
<linearGradient id="paint8_linear" x1="114.89" y1="69.715" x2="105.972" y2="60.7976" gradientUnits="userSpaceOnUse">
<stop stop-color="#E58200" stop-opacity="0"/>
<stop offset="0.4384" stop-color="#C4602C" stop-opacity="0.439216"/>
<stop offset="0.7953" stop-color="#AE4948" stop-opacity="0.796078"/>
<stop offset="1" stop-color="#A64153"/>
</linearGradient>
<linearGradient id="paint9_linear" x1="101.162" y1="65.9695" x2="101.162" y2="94.3643" gradientUnits="userSpaceOnUse">
<stop stop-color="#FF6E3A"/>
<stop offset="0.1596" stop-color="#FF6440"/>
<stop offset="0.4266" stop-color="#FF4B52"/>
<stop offset="0.7662" stop-color="#FF216E"/>
<stop offset="1" stop-color="#FF0084"/>
</linearGradient>
<linearGradient id="paint10_linear" x1="106.031" y1="72.4338" x2="97.6818" y2="64.0841" gradientUnits="userSpaceOnUse">
<stop stop-color="#E58200" stop-opacity="0"/>
<stop offset="0.4384" stop-color="#C4602C" stop-opacity="0.439216"/>
<stop offset="0.7953" stop-color="#AE4948" stop-opacity="0.796078"/>
<stop offset="1" stop-color="#A64153"/>
</linearGradient>
<linearGradient id="paint11_linear" x1="97.263" y1="72.0108" x2="93.8727" y2="59.1937" gradientUnits="userSpaceOnUse">
<stop stop-color="#FF0084"/>
<stop offset="0.2338" stop-color="#FF216E"/>
<stop offset="0.5734" stop-color="#FF4B52"/>
<stop offset="0.8404" stop-color="#FF6440"/>
<stop offset="1" stop-color="#FF6E3A"/>
</linearGradient>
<linearGradient id="paint12_linear" x1="106.083" y1="72.6196" x2="107.241" y2="56.9084" gradientUnits="userSpaceOnUse">
<stop stop-color="#FF0084"/>
<stop offset="0.2338" stop-color="#FF216E"/>
<stop offset="0.5734" stop-color="#FF4B52"/>
<stop offset="0.8404" stop-color="#FF6440"/>
<stop offset="1" stop-color="#FF6E3A"/>
</linearGradient>
<linearGradient id="paint13_linear" x1="96.5532" y1="69.7353" x2="96.3142" y2="64.8728" gradientUnits="userSpaceOnUse">
<stop stop-color="#E58200" stop-opacity="0"/>
<stop offset="0.4384" stop-color="#C4602C" stop-opacity="0.439216"/>
<stop offset="0.7953" stop-color="#AE4948" stop-opacity="0.796078"/>
<stop offset="1" stop-color="#A64153"/>
</linearGradient>
<linearGradient id="paint14_linear" x1="95.4148" y1="66.1268" x2="103.551" y2="59.5552" gradientUnits="userSpaceOnUse">
<stop stop-color="#E58200" stop-opacity="0"/>
<stop offset="0.4384" stop-color="#C4602C" stop-opacity="0.439216"/>
<stop offset="0.7953" stop-color="#AE4948" stop-opacity="0.796078"/>
<stop offset="1" stop-color="#A64153"/>
</linearGradient>
<linearGradient id="paint15_linear" x1="105.781" y1="69.6459" x2="105.974" y2="64.7806" gradientUnits="userSpaceOnUse">
<stop stop-color="#E58200" stop-opacity="0"/>
<stop offset="0.4384" stop-color="#C4602C" stop-opacity="0.439216"/>
<stop offset="0.7953" stop-color="#AE4948" stop-opacity="0.796078"/>
<stop offset="1" stop-color="#A64153"/>
</linearGradient>
<linearGradient id="paint16_linear" x1="106.888" y1="66.0265" x2="98.6902" y2="59.5315" gradientUnits="userSpaceOnUse">
<stop stop-color="#E58200" stop-opacity="0"/>
<stop offset="0.4384" stop-color="#C4602C" stop-opacity="0.439216"/>
<stop offset="0.7953" stop-color="#AE4948" stop-opacity="0.796078"/>
<stop offset="1" stop-color="#A64153"/>
</linearGradient>
<linearGradient id="paint17_linear" x1="107.69" y1="69.3553" x2="101.427" y2="63.0923" gradientUnits="userSpaceOnUse">
<stop stop-color="#E58200" stop-opacity="0"/>
<stop offset="0.4384" stop-color="#C4602C" stop-opacity="0.439216"/>
<stop offset="0.7953" stop-color="#AE4948" stop-opacity="0.796078"/>
<stop offset="1" stop-color="#A64153"/>
</linearGradient>
<linearGradient id="paint18_linear" x1="98.8336" y1="62.7001" x2="104.592" y2="68.4583" gradientUnits="userSpaceOnUse">
<stop stop-color="#FF6E3A"/>
<stop offset="0.1596" stop-color="#FF6440"/>
<stop offset="0.4266" stop-color="#FF4B52"/>
<stop offset="0.7662" stop-color="#FF216E"/>
<stop offset="1" stop-color="#FF0084"/>
</linearGradient>
<linearGradient id="paint19_linear" x1="108.753" y1="74.1219" x2="108.753" y2="80.3086" gradientUnits="userSpaceOnUse">
<stop stop-color="#45425A"/>
<stop offset="1" stop-color="#2D3251"/>
</linearGradient>
<linearGradient id="paint20_linear" x1="113.881" y1="74.1219" x2="113.881" y2="80.3086" gradientUnits="userSpaceOnUse">
<stop stop-color="#45425A"/>
<stop offset="1" stop-color="#2D3251"/>
</linearGradient>
<linearGradient id="paint21_linear" x1="119.095" y1="74.1224" x2="119.095" y2="80.3091" gradientUnits="userSpaceOnUse">
<stop stop-color="#45425A"/>
<stop offset="1" stop-color="#2D3251"/>
</linearGradient>
<linearGradient id="paint22_linear" x1="124.316" y1="74.1219" x2="124.316" y2="80.3086" gradientUnits="userSpaceOnUse">
<stop stop-color="#45425A"/>
<stop offset="1" stop-color="#2D3251"/>
</linearGradient>
<linearGradient id="paint23_linear" x1="129.347" y1="74.1219" x2="129.347" y2="80.3086" gradientUnits="userSpaceOnUse">
<stop stop-color="#45425A"/>
<stop offset="1" stop-color="#2D3251"/>
</linearGradient>
<linearGradient id="paint24_linear" x1="134.63" y1="74.1219" x2="134.63" y2="80.3086" gradientUnits="userSpaceOnUse">
<stop stop-color="#45425A"/>
<stop offset="1" stop-color="#2D3251"/>
</linearGradient>
<linearGradient id="paint25_linear" x1="139.47" y1="74.1219" x2="139.47" y2="80.3086" gradientUnits="userSpaceOnUse">
<stop stop-color="#45425A"/>
<stop offset="1" stop-color="#2D3251"/>
</linearGradient>
<linearGradient id="paint26_linear" x1="208.366" y1="12.4487" x2="217.806" y2="21.889" gradientUnits="userSpaceOnUse">
<stop stop-color="#FFD459"/>
<stop offset="0.2296" stop-color="#FFD355"/>
<stop offset="0.4362" stop-color="#FFCF4A"/>
<stop offset="0.634" stop-color="#FFC838"/>
<stop offset="0.825" stop-color="#FFBF1F"/>
<stop offset="1" stop-color="#FFB400"/>
</linearGradient>
<linearGradient id="paint27_linear" x1="211.983" y1="18.8925" x2="211.983" y2="20.2941" gradientUnits="userSpaceOnUse">
<stop stop-color="#E58200" stop-opacity="0"/>
<stop offset="0.0396" stop-color="#E27F04" stop-opacity="0.039216"/>
<stop offset="0.4671" stop-color="#C15D2F" stop-opacity="0.466667"/>
<stop offset="0.8016" stop-color="#AD4949" stop-opacity="0.8"/>
<stop offset="1" stop-color="#A64153"/>
</linearGradient>
<linearGradient id="paint28_linear" x1="206.299" y1="16.7444" x2="205.93" y2="15.9008" gradientUnits="userSpaceOnUse">
<stop stop-color="#E58200" stop-opacity="0"/>
<stop offset="0.0396" stop-color="#E27F04" stop-opacity="0.039216"/>
<stop offset="0.4671" stop-color="#C15D2F" stop-opacity="0.466667"/>
<stop offset="0.8016" stop-color="#AD4949" stop-opacity="0.8"/>
<stop offset="1" stop-color="#A64153"/>
</linearGradient>
<linearGradient id="paint29_linear" x1="210.043" y1="13.2685" x2="207.902" y2="11.7561" gradientUnits="userSpaceOnUse">
<stop stop-color="#E58200" stop-opacity="0"/>
<stop offset="0.0396" stop-color="#E27F04" stop-opacity="0.039216"/>
<stop offset="0.4671" stop-color="#C15D2F" stop-opacity="0.466667"/>
<stop offset="0.8016" stop-color="#AD4949" stop-opacity="0.8"/>
<stop offset="1" stop-color="#A64153"/>
</linearGradient>
<linearGradient id="paint30_linear" x1="209.111" y1="13.1323" x2="216.767" y2="20.7891" gradientUnits="userSpaceOnUse">
<stop stop-color="#FFFCF8"/>
<stop offset="0.1875" stop-color="#FAF8F6"/>
<stop offset="0.4041" stop-color="#ECEEF2"/>
<stop offset="0.6353" stop-color="#D5DCEA"/>
<stop offset="0.875" stop-color="#B5C4DF"/>
<stop offset="1" stop-color="#A1B5D8"/>
</linearGradient>
<linearGradient id="paint31_linear" x1="210.487" y1="18.0396" x2="208.09" y2="12.5608" gradientUnits="userSpaceOnUse">
<stop stop-color="#A1B5D8" stop-opacity="0"/>
<stop offset="0.0343" stop-color="#9FB3D5" stop-opacity="0.035294"/>
<stop offset="0.4515" stop-color="#8898AF" stop-opacity="0.45098"/>
<stop offset="0.788" stop-color="#798898" stop-opacity="0.788235"/>
<stop offset="1" stop-color="#748290"/>
</linearGradient>
<linearGradient id="paint32_linear" x1="211.982" y1="14.9534" x2="211.982" y2="16.8083" gradientUnits="userSpaceOnUse">
<stop stop-color="#FF6E3A"/>
<stop offset="0.1596" stop-color="#FF6440"/>
<stop offset="0.4266" stop-color="#FF4B52"/>
<stop offset="0.7662" stop-color="#FF216E"/>
<stop offset="1" stop-color="#FF0084"/>
</linearGradient>
<linearGradient id="paint33_linear" x1="211.578" y1="16.4373" x2="209.571" y2="14.4303" gradientUnits="userSpaceOnUse">
<stop stop-color="#E58200" stop-opacity="0"/>
<stop offset="0.4384" stop-color="#C4602C" stop-opacity="0.439216"/>
<stop offset="0.7953" stop-color="#AE4948" stop-opacity="0.796078"/>
<stop offset="1" stop-color="#A64153"/>
</linearGradient>
<linearGradient id="paint34_linear" x1="208.489" y1="15.5943" x2="208.489" y2="21.9851" gradientUnits="userSpaceOnUse">
<stop stop-color="#FF6E3A"/>
<stop offset="0.1596" stop-color="#FF6440"/>
<stop offset="0.4266" stop-color="#FF4B52"/>
<stop offset="0.7662" stop-color="#FF216E"/>
<stop offset="1" stop-color="#FF0084"/>
</linearGradient>
<linearGradient id="paint35_linear" x1="209.585" y1="17.049" x2="207.706" y2="15.1697" gradientUnits="userSpaceOnUse">
<stop stop-color="#E58200" stop-opacity="0"/>
<stop offset="0.4384" stop-color="#C4602C" stop-opacity="0.439216"/>
<stop offset="0.7953" stop-color="#AE4948" stop-opacity="0.796078"/>
<stop offset="1" stop-color="#A64153"/>
</linearGradient>
<linearGradient id="paint36_linear" x1="207.61" y1="16.954" x2="206.847" y2="14.0692" gradientUnits="userSpaceOnUse">
<stop stop-color="#FF0084"/>
<stop offset="0.2338" stop-color="#FF216E"/>
<stop offset="0.5734" stop-color="#FF4B52"/>
<stop offset="0.8404" stop-color="#FF6440"/>
<stop offset="1" stop-color="#FF6E3A"/>
</linearGradient>
<linearGradient id="paint37_linear" x1="209.596" y1="17.091" x2="209.856" y2="13.5549" gradientUnits="userSpaceOnUse">
<stop stop-color="#FF0084"/>
<stop offset="0.2338" stop-color="#FF216E"/>
<stop offset="0.5734" stop-color="#FF4B52"/>
<stop offset="0.8404" stop-color="#FF6440"/>
<stop offset="1" stop-color="#FF6E3A"/>
</linearGradient>
<linearGradient id="paint38_linear" x1="207.452" y1="16.4419" x2="207.398" y2="15.3475" gradientUnits="userSpaceOnUse">
<stop stop-color="#E58200" stop-opacity="0"/>
<stop offset="0.4384" stop-color="#C4602C" stop-opacity="0.439216"/>
<stop offset="0.7953" stop-color="#AE4948" stop-opacity="0.796078"/>
<stop offset="1" stop-color="#A64153"/>
</linearGradient>
<linearGradient id="paint39_linear" x1="207.195" y1="15.6296" x2="209.027" y2="14.1506" gradientUnits="userSpaceOnUse">
<stop stop-color="#E58200" stop-opacity="0"/>
<stop offset="0.4384" stop-color="#C4602C" stop-opacity="0.439216"/>
<stop offset="0.7953" stop-color="#AE4948" stop-opacity="0.796078"/>
<stop offset="1" stop-color="#A64153"/>
</linearGradient>
<linearGradient id="paint40_linear" x1="209.528" y1="16.4218" x2="209.571" y2="15.3267" gradientUnits="userSpaceOnUse">
<stop stop-color="#E58200" stop-opacity="0"/>
<stop offset="0.4384" stop-color="#C4602C" stop-opacity="0.439216"/>
<stop offset="0.7953" stop-color="#AE4948" stop-opacity="0.796078"/>
<stop offset="1" stop-color="#A64153"/>
</linearGradient>
<linearGradient id="paint41_linear" x1="209.777" y1="15.6071" x2="207.932" y2="14.1453" gradientUnits="userSpaceOnUse">
<stop stop-color="#E58200" stop-opacity="0"/>
<stop offset="0.4384" stop-color="#C4602C" stop-opacity="0.439216"/>
<stop offset="0.7953" stop-color="#AE4948" stop-opacity="0.796078"/>
<stop offset="1" stop-color="#A64153"/>
</linearGradient>
<linearGradient id="paint42_linear" x1="209.957" y1="16.3564" x2="208.548" y2="14.9468" gradientUnits="userSpaceOnUse">
<stop stop-color="#E58200" stop-opacity="0"/>
<stop offset="0.4384" stop-color="#C4602C" stop-opacity="0.439216"/>
<stop offset="0.7953" stop-color="#AE4948" stop-opacity="0.796078"/>
<stop offset="1" stop-color="#A64153"/>
</linearGradient>
<linearGradient id="paint43_linear" x1="207.965" y1="14.8584" x2="209.261" y2="16.1544" gradientUnits="userSpaceOnUse">
<stop stop-color="#FF6E3A"/>
<stop offset="0.1596" stop-color="#FF6440"/>
<stop offset="0.4266" stop-color="#FF4B52"/>
<stop offset="0.7662" stop-color="#FF216E"/>
<stop offset="1" stop-color="#FF0084"/>
</linearGradient>
<linearGradient id="paint44_linear" x1="210.197" y1="17.4293" x2="210.197" y2="18.8217" gradientUnits="userSpaceOnUse">
<stop stop-color="#45425A"/>
<stop offset="1" stop-color="#2D3251"/>
</linearGradient>
<linearGradient id="paint45_linear" x1="211.351" y1="17.4293" x2="211.351" y2="18.8217" gradientUnits="userSpaceOnUse">
<stop stop-color="#45425A"/>
<stop offset="1" stop-color="#2D3251"/>
</linearGradient>
<linearGradient id="paint46_linear" x1="212.525" y1="17.4294" x2="212.525" y2="18.8218" gradientUnits="userSpaceOnUse">
<stop stop-color="#45425A"/>
<stop offset="1" stop-color="#2D3251"/>
</linearGradient>
<linearGradient id="paint47_linear" x1="213.7" y1="17.4293" x2="213.7" y2="18.8217" gradientUnits="userSpaceOnUse">
<stop stop-color="#45425A"/>
<stop offset="1" stop-color="#2D3251"/>
</linearGradient>
<linearGradient id="paint48_linear" x1="214.833" y1="17.4293" x2="214.833" y2="18.8217" gradientUnits="userSpaceOnUse">
<stop stop-color="#45425A"/>
<stop offset="1" stop-color="#2D3251"/>
</linearGradient>
<linearGradient id="paint49_linear" x1="216.021" y1="17.4293" x2="216.021" y2="18.8217" gradientUnits="userSpaceOnUse">
<stop stop-color="#45425A"/>
<stop offset="1" stop-color="#2D3251"/>
</linearGradient>
<linearGradient id="paint50_linear" x1="217.111" y1="17.4293" x2="217.111" y2="18.8217" gradientUnits="userSpaceOnUse">
<stop stop-color="#45425A"/>
<stop offset="1" stop-color="#2D3251"/>
</linearGradient>
</defs>
</svg>
